<svg width="142" height="52" viewBox="0 0 142 52" fill="none" xmlns="http://www.w3.org/2000/svg">
<g filter="url(#filter0_d_2_101)">
<g clip-path="url(#clip0_2_101)">
<rect width="40" height="40" transform="translate(6 4)" fill="#EA8101"/>
<g clip-path="url(#clip1_2_101)">
<path d="M25.9913 33.9495L20.2195 32.3472L18.9332 17.9205H33.0667L31.7791 32.3449L25.9913 33.9495Z" fill="#264DE4"/>
<path d="M30.6768 31.4264L31.7772 19.1001H26V32.723L30.6768 31.4264Z" fill="#2965F1"/>
<path d="M21.8819 24.4507L22.0405 26.2201H26V24.4507H21.8819Z" fill="#EBEBEB"/>
<path d="M21.5632 20.8695L21.7241 22.6389H26V20.8695H21.5632Z" fill="#EBEBEB"/>
<path d="M26 29.046L25.9922 29.0481L24.0216 28.516L23.8957 27.1048H22.1195L22.3674 29.883L25.9918 30.8891L26 30.8869V29.046Z" fill="#EBEBEB"/>
<path d="M22.2595 14H24.4025V14.8962H23.1556V15.7923H24.4025V16.6885H22.2595V14Z" fill="black"/>
<path d="M24.8311 14H26.9741V14.7793H25.7272V14.9351H26.9741V16.7275H24.8311V15.9092H26.0779V15.7534H24.8311V14Z" fill="black"/>
<path d="M27.4026 14H29.5457V14.7793H28.2988V14.9351H29.5457V16.7275H27.4026V15.9092H28.6495V15.7534H27.4026V14Z" fill="black"/>
<path d="M30.1067 24.4507L30.4261 20.8695H25.9938V22.6389H28.4871L28.3261 24.4507H25.9938V26.2201H28.1726L27.9672 28.5148L25.9938 29.0475V30.8883L29.6211 29.883L29.6477 29.584L30.0635 24.9259L30.1067 24.4507Z" fill="white"/>
</g>
<rect width="90" height="40" transform="translate(46 4)" fill="#F2F2F2"/>
<path d="M84.9648 25.8965H85.8057C85.7373 26.5664 85.5527 27.1452 85.252 27.6328C84.9512 28.1159 84.541 28.4873 84.0215 28.7471C83.502 29.0068 82.8753 29.1367 82.1416 29.1367C81.5765 29.1367 81.0638 29.0296 80.6035 28.8154C80.1478 28.6012 79.7559 28.2982 79.4277 27.9062C79.0996 27.5098 78.8467 27.0358 78.6689 26.4844C78.4912 25.9329 78.4023 25.32 78.4023 24.6455V23.4014C78.4023 22.7269 78.4912 22.1162 78.6689 21.5693C78.8467 21.0179 79.1019 20.5439 79.4346 20.1475C79.7673 19.751 80.166 19.4456 80.6309 19.2314C81.0957 19.0173 81.6198 18.9102 82.2031 18.9102C82.9095 18.9102 83.5202 19.04 84.0352 19.2998C84.5501 19.555 84.9557 19.9242 85.252 20.4072C85.5527 20.8903 85.7373 21.4736 85.8057 22.1572H84.9648C84.901 21.6195 84.7598 21.1637 84.541 20.79C84.3223 20.4163 84.0192 20.1315 83.6318 19.9355C83.249 19.735 82.7728 19.6348 82.2031 19.6348C81.7383 19.6348 81.3236 19.7236 80.959 19.9014C80.5944 20.0791 80.2845 20.3343 80.0293 20.667C79.7741 20.9951 79.5781 21.3893 79.4414 21.8496C79.3092 22.3099 79.2432 22.8226 79.2432 23.3877V24.6455C79.2432 25.1924 79.307 25.696 79.4346 26.1562C79.5622 26.6165 79.749 27.0153 79.9951 27.3525C80.2458 27.6898 80.5511 27.9518 80.9111 28.1387C81.2712 28.3255 81.6813 28.4189 82.1416 28.4189C82.7295 28.4189 83.2194 28.3255 83.6113 28.1387C84.0078 27.9473 84.3154 27.6647 84.5342 27.291C84.7529 26.9173 84.8965 26.4525 84.9648 25.8965ZM93.7693 26.5527C93.7693 26.2793 93.7237 26.0355 93.6325 25.8213C93.5414 25.6071 93.391 25.4157 93.1814 25.2471C92.9763 25.0739 92.6983 24.9144 92.3474 24.7686C92.001 24.6182 91.5681 24.4701 91.0486 24.3242C90.5518 24.1829 90.1029 24.028 89.7019 23.8594C89.3008 23.6908 88.9568 23.4971 88.6696 23.2783C88.3871 23.0596 88.1706 22.8044 88.0202 22.5127C87.8698 22.2165 87.7946 21.8724 87.7946 21.4805C87.7946 21.0977 87.8767 20.749 88.0407 20.4346C88.2048 20.1201 88.4349 19.849 88.7312 19.6211C89.032 19.3932 89.3851 19.2178 89.7907 19.0947C90.2009 18.9717 90.6498 18.9102 91.1374 18.9102C91.8347 18.9102 92.4362 19.0423 92.9421 19.3066C93.4525 19.571 93.8467 19.9287 94.1247 20.3799C94.4073 20.8265 94.5486 21.3278 94.5486 21.8838H93.7077C93.7077 21.4508 93.6052 21.0658 93.4001 20.7285C93.1996 20.3867 92.9079 20.1201 92.5251 19.9287C92.1469 19.7327 91.6843 19.6348 91.1374 19.6348C90.5905 19.6348 90.1303 19.7191 89.7566 19.8877C89.3874 20.0518 89.1071 20.2728 88.9157 20.5508C88.7289 20.8242 88.6355 21.1296 88.6355 21.4668C88.6355 21.7038 88.681 21.9225 88.7722 22.123C88.8633 22.319 89.0114 22.5036 89.2165 22.6768C89.4262 22.8454 89.7019 23.0049 90.0437 23.1553C90.3855 23.3011 90.807 23.4401 91.3083 23.5723C91.837 23.7181 92.3064 23.8799 92.7165 24.0576C93.1267 24.2354 93.473 24.4404 93.7556 24.6729C94.0381 24.9007 94.2523 25.1673 94.3982 25.4727C94.544 25.778 94.6169 26.1335 94.6169 26.5391C94.6169 26.9447 94.5303 27.3092 94.3571 27.6328C94.1885 27.9518 93.9493 28.223 93.6394 28.4463C93.334 28.6696 92.9717 28.8405 92.5525 28.959C92.1377 29.0775 91.6843 29.1367 91.1921 29.1367C90.7501 29.1367 90.3103 29.0798 89.8728 28.9658C89.4353 28.8519 89.0342 28.6764 88.6696 28.4395C88.3096 28.1979 88.0202 27.888 87.8015 27.5098C87.5873 27.1315 87.4802 26.6803 87.4802 26.1562H88.3142C88.3142 26.5755 88.3985 26.9287 88.5671 27.2158C88.7357 27.5029 88.959 27.7354 89.237 27.9131C89.5196 28.0908 89.8295 28.2207 90.1667 28.3027C90.5085 28.3802 90.8503 28.4189 91.1921 28.4189C91.7162 28.4189 92.1696 28.3415 92.5525 28.1865C92.9398 28.0316 93.2383 27.8151 93.448 27.5371C93.6622 27.2546 93.7693 26.9264 93.7693 26.5527ZM102.348 26.5527C102.348 26.2793 102.303 26.0355 102.211 25.8213C102.12 25.6071 101.97 25.4157 101.76 25.2471C101.555 25.0739 101.277 24.9144 100.926 24.7686C100.58 24.6182 100.147 24.4701 99.6274 24.3242C99.1306 24.1829 98.6817 24.028 98.2807 23.8594C97.8797 23.6908 97.5356 23.4971 97.2485 23.2783C96.9659 23.0596 96.7495 22.8044 96.5991 22.5127C96.4487 22.2165 96.3735 21.8724 96.3735 21.4805C96.3735 21.0977 96.4555 20.749 96.6196 20.4346C96.7836 20.1201 97.0138 19.849 97.31 19.6211C97.6108 19.3932 97.964 19.2178 98.3696 19.0947C98.7797 18.9717 99.2286 18.9102 99.7162 18.9102C100.414 18.9102 101.015 19.0423 101.521 19.3066C102.031 19.571 102.426 19.9287 102.704 20.3799C102.986 20.8265 103.127 21.3278 103.127 21.8838H102.287C102.287 21.4508 102.184 21.0658 101.979 20.7285C101.778 20.3867 101.487 20.1201 101.104 19.9287C100.726 19.7327 100.263 19.6348 99.7162 19.6348C99.1694 19.6348 98.7091 19.7191 98.3354 19.8877C97.9662 20.0518 97.686 20.2728 97.4946 20.5508C97.3077 20.8242 97.2143 21.1296 97.2143 21.4668C97.2143 21.7038 97.2599 21.9225 97.351 22.123C97.4422 22.319 97.5903 22.5036 97.7954 22.6768C98.005 22.8454 98.2807 23.0049 98.6225 23.1553C98.9643 23.3011 99.3858 23.4401 99.8871 23.5723C100.416 23.7181 100.885 23.8799 101.295 24.0576C101.706 24.2354 102.052 24.4404 102.334 24.6729C102.617 24.9007 102.831 25.1673 102.977 25.4727C103.123 25.778 103.196 26.1335 103.196 26.5391C103.196 26.9447 103.109 27.3092 102.936 27.6328C102.767 27.9518 102.528 28.223 102.218 28.4463C101.913 28.6696 101.551 28.8405 101.131 28.959C100.717 29.0775 100.263 29.1367 99.7709 29.1367C99.3289 29.1367 98.8891 29.0798 98.4516 28.9658C98.0141 28.8519 97.6131 28.6764 97.2485 28.4395C96.8884 28.1979 96.5991 27.888 96.3803 27.5098C96.1661 27.1315 96.059 26.6803 96.059 26.1562H96.893C96.893 26.5755 96.9773 26.9287 97.1459 27.2158C97.3146 27.5029 97.5379 27.7354 97.8159 27.9131C98.0984 28.0908 98.4083 28.2207 98.7455 28.3027C99.0873 28.3802 99.4291 28.4189 99.7709 28.4189C100.295 28.4189 100.748 28.3415 101.131 28.1865C101.519 28.0316 101.817 27.8151 102.027 27.5371C102.241 27.2546 102.348 26.9264 102.348 26.5527Z" fill="black"/>
</g>
</g>
<defs>
<filter id="filter0_d_2_101" x="0" y="0" width="142" height="52" filterUnits="userSpaceOnUse" color-interpolation-filters="sRGB">
<feFlood flood-opacity="0" result="BackgroundImageFix"/>
<feColorMatrix in="SourceAlpha" type="matrix" values="0 0 0 0 0 0 0 0 0 0 0 0 0 0 0 0 0 0 127 0" result="hardAlpha"/>
<feOffset dy="2"/>
<feGaussianBlur stdDeviation="3"/>
<feComposite in2="hardAlpha" operator="out"/>
<feColorMatrix type="matrix" values="0 0 0 0 0 0 0 0 0 0 0 0 0 0 0 0 0 0 0.25 0"/>
<feBlend mode="normal" in2="BackgroundImageFix" result="effect1_dropShadow_2_101"/>
<feBlend mode="normal" in="SourceGraphic" in2="effect1_dropShadow_2_101" result="shape"/>
</filter>
<clipPath id="clip0_2_101">
<rect x="6" y="4" width="130" height="40" rx="6" fill="white"/>
</clipPath>
<clipPath id="clip1_2_101">
<rect width="14.1828" height="20" fill="white" transform="translate(18.9086 14)"/>
</clipPath>
</defs>
</svg>
