<svg width="142" height="52" viewBox="0 0 142 52" fill="none" xmlns="http://www.w3.org/2000/svg">
<g filter="url(#filter0_d_1_44)">
<g clip-path="url(#clip0_1_44)">
<rect width="40" height="40" transform="translate(6 4)" fill="#009EEB"/>
<g clip-path="url(#clip1_1_44)">
<path d="M25.4207 21.331C25.6019 21.0638 25.8003 21.0299 25.9613 21.0299C26.1223 21.0299 26.3904 21.0638 26.5718 21.331C28.0005 23.2935 30.3589 27.2028 32.0986 30.0865C33.2331 31.9671 34.1045 33.4114 34.2832 33.5952C34.9543 34.2853 35.8747 33.8552 36.4096 33.0725C36.9361 32.302 37.0822 31.7609 37.0822 31.1836C37.0822 30.7905 29.4541 16.6036 28.6859 15.4227C27.9471 14.2869 27.7065 14 26.442 14H25.4958C24.2351 14 24.0529 14.2869 23.3141 15.4227C22.5459 16.6036 14.9177 30.7905 14.9177 31.1836C14.9177 31.7609 15.0639 32.302 15.5904 33.0725C16.1253 33.8552 17.0456 34.2853 17.7167 33.5952C17.8955 33.4114 18.7669 31.9671 19.9014 30.0865C21.6411 27.2028 23.9919 23.2935 25.4207 21.331Z" fill="#000020"/>
</g>
<rect width="90" height="40" transform="translate(46 4)" fill="#F2F2F2"/>
<path d="M82.4512 28.2822V29H76.8525V28.2822H82.4512ZM77.1055 19.0469V29H76.2646V19.0469H77.1055ZM81.7539 23.5107V24.2285H76.8525V23.5107H81.7539ZM82.417 19.0469V19.7715H76.8525V19.0469H82.417ZM84.6452 21.6035L86.6413 24.5908L88.6443 21.6035H89.615L87.1062 25.2266L89.7175 29H88.7605L86.6482 25.876L84.5427 29H83.5857L86.197 25.2266L83.6882 21.6035H84.6452ZM92.2329 23.0254V31.8438H91.4125V21.6035H92.1782L92.2329 23.0254ZM97.3735 25.2334V25.377C97.3735 25.9284 97.3097 26.4342 97.1821 26.8945C97.0545 27.3548 96.8699 27.7536 96.6284 28.0908C96.3914 28.4235 96.0974 28.681 95.7465 28.8633C95.3956 29.0456 94.9968 29.1367 94.5502 29.1367C94.1082 29.1367 93.714 29.0684 93.3676 28.9316C93.0213 28.7949 92.7228 28.6012 92.4721 28.3506C92.226 28.0954 92.0278 27.7992 91.8774 27.4619C91.7315 27.1201 91.629 26.7464 91.5698 26.3408V24.4473C91.6381 24.0007 91.7498 23.5951 91.9047 23.2305C92.0597 22.8659 92.2579 22.5514 92.4995 22.2871C92.7455 22.0228 93.0372 21.82 93.3745 21.6787C93.7117 21.5374 94.0968 21.4668 94.5297 21.4668C94.9809 21.4668 95.3819 21.5557 95.7329 21.7334C96.0883 21.9066 96.3868 22.1595 96.6284 22.4922C96.8745 22.8203 97.059 23.2168 97.1821 23.6816C97.3097 24.1419 97.3735 24.6592 97.3735 25.2334ZM96.5532 25.377V25.2334C96.5532 24.8005 96.5076 24.3994 96.4164 24.0303C96.3299 23.6611 96.1954 23.3398 96.0131 23.0664C95.8354 22.7884 95.6075 22.5719 95.3295 22.417C95.0561 22.262 94.7302 22.1846 94.352 22.1846C93.9601 22.1846 93.6251 22.2507 93.3471 22.3828C93.0737 22.5104 92.8458 22.6813 92.6635 22.8955C92.4812 23.1051 92.3377 23.3353 92.2329 23.5859C92.128 23.8366 92.0506 24.0827 92.0004 24.3242V26.5049C92.087 26.8512 92.226 27.1725 92.4174 27.4688C92.6088 27.7604 92.864 27.9951 93.183 28.1729C93.5066 28.346 93.9008 28.4326 94.3657 28.4326C94.7394 28.4326 95.0629 28.3551 95.3364 28.2002C95.6098 28.0452 95.8354 27.8288 96.0131 27.5508C96.1954 27.2728 96.3299 26.9492 96.4164 26.5801C96.5076 26.2109 96.5532 25.8099 96.5532 25.377ZM99.0207 25.418V25.1924C99.0207 24.6546 99.0981 24.1579 99.2531 23.7021C99.408 23.2464 99.6291 22.8522 99.9162 22.5195C100.208 22.1868 100.556 21.9294 100.962 21.7471C101.368 21.5602 101.819 21.4668 102.316 21.4668C102.817 21.4668 103.27 21.5602 103.676 21.7471C104.082 21.9294 104.43 22.1868 104.722 22.5195C105.014 22.8522 105.237 23.2464 105.392 23.7021C105.547 24.1579 105.624 24.6546 105.624 25.1924V25.418C105.624 25.9557 105.547 26.4525 105.392 26.9082C105.237 27.3594 105.014 27.7513 104.722 28.084C104.435 28.4167 104.088 28.6764 103.683 28.8633C103.277 29.0456 102.826 29.1367 102.329 29.1367C101.828 29.1367 101.375 29.0456 100.969 28.8633C100.563 28.6764 100.215 28.4167 99.923 28.084C99.6313 27.7513 99.408 27.3594 99.2531 26.9082C99.0981 26.4525 99.0207 25.9557 99.0207 25.418ZM99.8341 25.1924V25.418C99.8341 25.8236 99.8888 26.2087 99.9982 26.5732C100.108 26.9333 100.267 27.2546 100.477 27.5371C100.686 27.8151 100.946 28.0339 101.256 28.1934C101.566 28.3529 101.924 28.4326 102.329 28.4326C102.73 28.4326 103.083 28.3529 103.389 28.1934C103.699 28.0339 103.958 27.8151 104.168 27.5371C104.378 27.2546 104.535 26.9333 104.64 26.5732C104.749 26.2087 104.804 25.8236 104.804 25.418V25.1924C104.804 24.7913 104.749 24.4108 104.64 24.0508C104.535 23.6908 104.375 23.3695 104.161 23.0869C103.952 22.8044 103.692 22.5811 103.382 22.417C103.072 22.2529 102.717 22.1709 102.316 22.1709C101.915 22.1709 101.559 22.2529 101.249 22.417C100.944 22.5811 100.684 22.8044 100.47 23.0869C100.26 23.3695 100.101 23.6908 99.9914 24.0508C99.8865 24.4108 99.8341 24.7913 99.8341 25.1924Z" fill="black"/>
</g>
</g>
<defs>
<filter id="filter0_d_1_44" x="0" y="0" width="142" height="52" filterUnits="userSpaceOnUse" color-interpolation-filters="sRGB">
<feFlood flood-opacity="0" result="BackgroundImageFix"/>
<feColorMatrix in="SourceAlpha" type="matrix" values="0 0 0 0 0 0 0 0 0 0 0 0 0 0 0 0 0 0 127 0" result="hardAlpha"/>
<feOffset dy="2"/>
<feGaussianBlur stdDeviation="3"/>
<feComposite in2="hardAlpha" operator="out"/>
<feColorMatrix type="matrix" values="0 0 0 0 0 0 0 0 0 0 0 0 0 0 0 0 0 0 0.25 0"/>
<feBlend mode="normal" in2="BackgroundImageFix" result="effect1_dropShadow_1_44"/>
<feBlend mode="normal" in="SourceGraphic" in2="effect1_dropShadow_1_44" result="shape"/>
</filter>
<clipPath id="clip0_1_44">
<rect x="6" y="4" width="130" height="40" rx="6" fill="white"/>
</clipPath>
<clipPath id="clip1_1_44">
<rect width="22.1645" height="20" fill="white" transform="translate(14.9177 14)"/>
</clipPath>
</defs>
</svg>
