<svg width="142" height="52" viewBox="0 0 142 52" fill="none" xmlns="http://www.w3.org/2000/svg">
<g filter="url(#filter0_d_3_398)">
<g clip-path="url(#clip0_3_398)">
<rect width="40" height="40" transform="translate(6 4)" fill="#009EEB"/>
<path d="M25.8 30.86V31.5H16.42V17.3H25.62V17.94H17.12V23.92H24.56V24.56H17.12V30.86H25.8ZM28.3847 21.1L31.9247 25.62L32.0847 25.88L32.2447 25.62L35.7847 21.1H36.6047L32.5047 26.34L36.5647 31.5H35.7647L32.2447 27.02L32.0847 26.78L31.9247 27.02L28.4247 31.5H27.6047L31.6647 26.34L27.5847 21.1H28.3847Z" fill="black"/>
<rect width="90" height="40" transform="translate(46 4)" fill="#F2F2F2"/>
<path d="M72.9512 28.2822V29H67.3525V28.2822H72.9512ZM67.6055 19.0469V29H66.7646V19.0469H67.6055ZM72.2539 23.5107V24.2285H67.3525V23.5107H72.2539ZM72.917 19.0469V19.7715H67.3525V19.0469H72.917ZM75.1452 21.6035L77.1413 24.5908L79.1443 21.6035H80.115L77.6062 25.2266L80.2175 29H79.2605L77.1482 25.876L75.0427 29H74.0857L76.697 25.2266L74.1882 21.6035H75.1452ZM82.7329 23.0254V31.8438H81.9125V21.6035H82.6782L82.7329 23.0254ZM87.8735 25.2334V25.377C87.8735 25.9284 87.8097 26.4342 87.6821 26.8945C87.5545 27.3548 87.3699 27.7536 87.1284 28.0908C86.8914 28.4235 86.5974 28.681 86.2465 28.8633C85.8956 29.0456 85.4968 29.1367 85.0502 29.1367C84.6082 29.1367 84.214 29.0684 83.8676 28.9316C83.5213 28.7949 83.2228 28.6012 82.9721 28.3506C82.726 28.0954 82.5278 27.7992 82.3774 27.4619C82.2315 27.1201 82.129 26.7464 82.0698 26.3408V24.4473C82.1381 24.0007 82.2498 23.5951 82.4047 23.2305C82.5597 22.8659 82.7579 22.5514 82.9995 22.2871C83.2455 22.0228 83.5372 21.82 83.8745 21.6787C84.2117 21.5374 84.5968 21.4668 85.0297 21.4668C85.4809 21.4668 85.8819 21.5557 86.2329 21.7334C86.5883 21.9066 86.8868 22.1595 87.1284 22.4922C87.3745 22.8203 87.559 23.2168 87.6821 23.6816C87.8097 24.1419 87.8735 24.6592 87.8735 25.2334ZM87.0532 25.377V25.2334C87.0532 24.8005 87.0076 24.3994 86.9164 24.0303C86.8299 23.6611 86.6954 23.3398 86.5131 23.0664C86.3354 22.7884 86.1075 22.5719 85.8295 22.417C85.5561 22.262 85.2302 22.1846 84.852 22.1846C84.4601 22.1846 84.1251 22.2507 83.8471 22.3828C83.5737 22.5104 83.3458 22.6813 83.1635 22.8955C82.9812 23.1051 82.8377 23.3353 82.7329 23.5859C82.628 23.8366 82.5506 24.0827 82.5004 24.3242V26.5049C82.587 26.8512 82.726 27.1725 82.9174 27.4688C83.1088 27.7604 83.364 27.9951 83.683 28.1729C84.0066 28.346 84.4008 28.4326 84.8657 28.4326C85.2394 28.4326 85.5629 28.3551 85.8364 28.2002C86.1098 28.0452 86.3354 27.8288 86.5131 27.5508C86.6954 27.2728 86.8299 26.9492 86.9164 26.5801C87.0076 26.2109 87.0532 25.8099 87.0532 25.377ZM90.7853 22.8271V29H89.9718V21.6035H90.7648L90.7853 22.8271ZM93.4035 21.5488L93.383 22.3008C93.2918 22.2871 93.203 22.2757 93.1164 22.2666C93.0298 22.2575 92.9364 22.2529 92.8361 22.2529C92.4806 22.2529 92.1685 22.319 91.8996 22.4512C91.6352 22.5788 91.4119 22.7588 91.2296 22.9912C91.0474 23.2191 90.9084 23.488 90.8127 23.7979C90.717 24.1032 90.6623 24.4313 90.6486 24.7822L90.3478 24.8984C90.3478 24.4154 90.3979 23.9665 90.4982 23.5518C90.5985 23.137 90.7511 22.7747 90.9562 22.4648C91.1658 22.1504 91.4279 21.9066 91.7423 21.7334C92.0614 21.5557 92.4351 21.4668 92.8634 21.4668C92.9683 21.4668 93.0708 21.4759 93.1711 21.4941C93.2759 21.5078 93.3533 21.526 93.4035 21.5488ZM97.6893 29.1367C97.2063 29.1367 96.7619 29.0479 96.3563 28.8701C95.9553 28.6924 95.6044 28.4417 95.3036 28.1182C95.0074 27.7946 94.7772 27.4118 94.6132 26.9697C94.4537 26.5231 94.3739 26.0355 94.3739 25.5068V25.2129C94.3739 24.6432 94.4582 24.1283 94.6268 23.668C94.7955 23.2077 95.0279 22.8135 95.3241 22.4854C95.6203 22.1572 95.9576 21.9066 96.3358 21.7334C96.7186 21.5557 97.1197 21.4668 97.5389 21.4668C98.0083 21.4668 98.4253 21.5511 98.7899 21.7197C99.1545 21.8838 99.4598 22.1185 99.7059 22.4238C99.9566 22.7246 100.146 23.0824 100.273 23.4971C100.401 23.9072 100.465 24.3607 100.465 24.8574V25.3564H94.8661V24.6592H99.6513V24.5635C99.6421 24.1488 99.5578 23.7614 99.3983 23.4014C99.2434 23.0368 99.011 22.7406 98.7011 22.5127C98.3912 22.2848 98.0038 22.1709 97.5389 22.1709C97.1926 22.1709 96.8736 22.2438 96.5819 22.3896C96.2948 22.5355 96.0464 22.7451 95.8368 23.0186C95.6317 23.2874 95.4722 23.6087 95.3583 23.9824C95.2489 24.3516 95.1942 24.7617 95.1942 25.2129V25.5068C95.1942 25.917 95.2535 26.2998 95.372 26.6553C95.495 27.0062 95.6682 27.3161 95.8915 27.585C96.1193 27.8538 96.3882 28.0635 96.6981 28.2139C97.008 28.3643 97.3498 28.4395 97.7235 28.4395C98.161 28.4395 98.5484 28.3597 98.8856 28.2002C99.2229 28.0361 99.5259 27.7786 99.7948 27.4277L100.308 27.8242C100.148 28.0612 99.9475 28.2799 99.7059 28.4805C99.469 28.681 99.1841 28.8405 98.8514 28.959C98.5188 29.0775 98.1314 29.1367 97.6893 29.1367ZM106.788 27.1133C106.788 26.9128 106.738 26.7145 106.637 26.5186C106.537 26.3226 106.343 26.1426 106.056 25.9785C105.774 25.8145 105.357 25.6755 104.805 25.5615C104.395 25.4704 104.028 25.3678 103.705 25.2539C103.386 25.14 103.117 25.0033 102.898 24.8438C102.679 24.6842 102.513 24.4928 102.399 24.2695C102.285 24.0462 102.228 23.7819 102.228 23.4766C102.228 23.2031 102.287 22.9456 102.406 22.7041C102.529 22.458 102.702 22.2438 102.925 22.0615C103.153 21.8747 103.427 21.7288 103.746 21.624C104.069 21.5192 104.432 21.4668 104.833 21.4668C105.402 21.4668 105.89 21.5648 106.296 21.7607C106.706 21.9521 107.018 22.2142 107.232 22.5469C107.451 22.8796 107.56 23.2555 107.56 23.6748H106.747C106.747 23.4196 106.671 23.1781 106.521 22.9502C106.375 22.7223 106.159 22.5355 105.872 22.3896C105.589 22.2438 105.243 22.1709 104.833 22.1709C104.409 22.1709 104.065 22.2347 103.8 22.3623C103.536 22.4899 103.342 22.6517 103.219 22.8477C103.101 23.0436 103.042 23.2464 103.042 23.4561C103.042 23.6201 103.067 23.7705 103.117 23.9072C103.171 24.0394 103.267 24.1624 103.404 24.2764C103.545 24.3903 103.746 24.4974 104.005 24.5977C104.265 24.6979 104.602 24.7959 105.017 24.8916C105.614 25.0238 106.102 25.1855 106.48 25.377C106.863 25.5638 107.145 25.7962 107.328 26.0742C107.51 26.3477 107.601 26.6803 107.601 27.0723C107.601 27.3776 107.537 27.6579 107.41 27.9131C107.282 28.1637 107.098 28.3802 106.856 28.5625C106.619 28.7448 106.332 28.8861 105.995 28.9863C105.662 29.0866 105.288 29.1367 104.874 29.1367C104.249 29.1367 103.721 29.0342 103.288 28.8291C102.859 28.6195 102.533 28.346 102.31 28.0088C102.091 27.667 101.982 27.3047 101.982 26.9219H102.796C102.823 27.3047 102.944 27.6077 103.158 27.8311C103.372 28.0498 103.634 28.2048 103.944 28.2959C104.258 28.387 104.568 28.4326 104.874 28.4326C105.293 28.4326 105.644 28.3711 105.926 28.248C106.209 28.125 106.423 27.9632 106.569 27.7627C106.715 27.5622 106.788 27.3457 106.788 27.1133ZM114.163 27.1133C114.163 26.9128 114.113 26.7145 114.013 26.5186C113.913 26.3226 113.719 26.1426 113.432 25.9785C113.149 25.8145 112.732 25.6755 112.181 25.5615C111.771 25.4704 111.404 25.3678 111.08 25.2539C110.761 25.14 110.493 25.0033 110.274 24.8438C110.055 24.6842 109.889 24.4928 109.775 24.2695C109.661 24.0462 109.604 23.7819 109.604 23.4766C109.604 23.2031 109.663 22.9456 109.782 22.7041C109.905 22.458 110.078 22.2438 110.301 22.0615C110.529 21.8747 110.802 21.7288 111.121 21.624C111.445 21.5192 111.807 21.4668 112.208 21.4668C112.778 21.4668 113.266 21.5648 113.671 21.7607C114.081 21.9521 114.394 22.2142 114.608 22.5469C114.826 22.8796 114.936 23.2555 114.936 23.6748H114.122C114.122 23.4196 114.047 23.1781 113.897 22.9502C113.751 22.7223 113.534 22.5355 113.247 22.3896C112.965 22.2438 112.618 22.1709 112.208 22.1709C111.784 22.1709 111.44 22.2347 111.176 22.3623C110.912 22.4899 110.718 22.6517 110.595 22.8477C110.477 23.0436 110.417 23.2464 110.417 23.4561C110.417 23.6201 110.442 23.7705 110.493 23.9072C110.547 24.0394 110.643 24.1624 110.78 24.2764C110.921 24.3903 111.121 24.4974 111.381 24.5977C111.641 24.6979 111.978 24.7959 112.393 24.8916C112.99 25.0238 113.478 25.1855 113.856 25.377C114.239 25.5638 114.521 25.7962 114.703 26.0742C114.886 26.3477 114.977 26.6803 114.977 27.0723C114.977 27.3776 114.913 27.6579 114.785 27.9131C114.658 28.1637 114.473 28.3802 114.232 28.5625C113.995 28.7448 113.708 28.8861 113.37 28.9863C113.038 29.0866 112.664 29.1367 112.249 29.1367C111.625 29.1367 111.096 29.0342 110.663 28.8291C110.235 28.6195 109.909 28.346 109.686 28.0088C109.467 27.667 109.358 27.3047 109.358 26.9219H110.171C110.199 27.3047 110.319 27.6077 110.534 27.8311C110.748 28.0498 111.01 28.2048 111.32 28.2959C111.634 28.387 111.944 28.4326 112.249 28.4326C112.669 28.4326 113.02 28.3711 113.302 28.248C113.585 28.125 113.799 27.9632 113.945 27.7627C114.09 27.5622 114.163 27.3457 114.163 27.1133Z" fill="black"/>
</g>
</g>
<defs>
<filter id="filter0_d_3_398" x="0" y="0" width="142" height="52" filterUnits="userSpaceOnUse" color-interpolation-filters="sRGB">
<feFlood flood-opacity="0" result="BackgroundImageFix"/>
<feColorMatrix in="SourceAlpha" type="matrix" values="0 0 0 0 0 0 0 0 0 0 0 0 0 0 0 0 0 0 127 0" result="hardAlpha"/>
<feOffset dy="2"/>
<feGaussianBlur stdDeviation="3"/>
<feComposite in2="hardAlpha" operator="out"/>
<feColorMatrix type="matrix" values="0 0 0 0 0 0 0 0 0 0 0 0 0 0 0 0 0 0 0.25 0"/>
<feBlend mode="normal" in2="BackgroundImageFix" result="effect1_dropShadow_3_398"/>
<feBlend mode="normal" in="SourceGraphic" in2="effect1_dropShadow_3_398" result="shape"/>
</filter>
<clipPath id="clip0_3_398">
<rect x="6" y="4" width="130" height="40" rx="6" fill="white"/>
</clipPath>
</defs>
</svg>
