<svg width="142" height="52" viewBox="0 0 142 52" fill="none" xmlns="http://www.w3.org/2000/svg">
<g filter="url(#filter0_d_2_332)">
<g clip-path="url(#clip0_2_332)">
<rect width="40" height="40" transform="translate(6 4)" fill="#009EEB"/>
<g clip-path="url(#clip1_2_332)">
<path d="M22.6666 34C24.5066 34 26 32.5067 26 30.6667V27.3333H22.6666C20.8266 27.3333 19.3333 28.8267 19.3333 30.6667C19.3333 32.5067 20.8266 34 22.6666 34Z" fill="#0ACF83"/>
<path d="M19.3333 24C19.3333 22.16 20.8266 20.6667 22.6666 20.6667H26V27.3333H22.6666C20.8266 27.3333 19.3333 25.84 19.3333 24Z" fill="#A259FF"/>
<path d="M19.3333 17.3333C19.3333 15.4933 20.8266 14 22.6666 14H26V20.6667H22.6666C20.8266 20.6667 19.3333 19.1733 19.3333 17.3333Z" fill="#F24E1E"/>
<path d="M26 14H29.3333C31.1733 14 32.6667 15.4933 32.6667 17.3333C32.6667 19.1733 31.1733 20.6667 29.3333 20.6667H26V14Z" fill="#FF7262"/>
<path d="M32.6667 24C32.6667 25.84 31.1733 27.3333 29.3333 27.3333C27.4933 27.3333 26 25.84 26 24C26 22.16 27.4933 20.6667 29.3333 20.6667C31.1733 20.6667 32.6667 22.16 32.6667 24Z" fill="#1ABCFE"/>
</g>
<rect width="90" height="40" transform="translate(46 4)" fill="#F2F2F2"/>
<path d="M73.1055 19.0469V29H72.2646V19.0469H73.1055ZM77.7402 23.627V24.3516H72.8252V23.627H77.7402ZM78.4307 19.0469V19.7715H72.8252V19.0469H78.4307ZM81.1374 21.6035V29H80.3239V21.6035H81.1374ZM80.1804 19.4639C80.1804 19.3089 80.2282 19.179 80.3239 19.0742C80.4242 18.9648 80.5609 18.9102 80.7341 18.9102C80.9073 18.9102 81.044 18.9648 81.1443 19.0742C81.2491 19.179 81.3015 19.3089 81.3015 19.4639C81.3015 19.6143 81.2491 19.7441 81.1443 19.8535C81.044 19.9583 80.9073 20.0107 80.7341 20.0107C80.5609 20.0107 80.4242 19.9583 80.3239 19.8535C80.2282 19.7441 80.1804 19.6143 80.1804 19.4639ZM88.52 21.6035H89.2788V28.8701C89.2788 29.5127 89.1557 30.0641 88.9096 30.5244C88.6681 30.9847 88.324 31.3379 87.8774 31.584C87.4353 31.8301 86.9135 31.9531 86.312 31.9531C86.0066 31.9531 85.6922 31.9053 85.3686 31.8096C85.0496 31.7184 84.7465 31.5771 84.4594 31.3857C84.1769 31.1989 83.9353 30.9665 83.7348 30.6885L84.1928 30.1895C84.4936 30.554 84.8149 30.8206 85.1567 30.9893C85.4985 31.1624 85.8676 31.249 86.2641 31.249C86.7335 31.249 87.13 31.1556 87.4536 30.9688C87.7817 30.7819 88.0301 30.513 88.1987 30.1621C88.3718 29.8112 88.4584 29.3896 88.4584 28.8975V23.2305L88.52 21.6035ZM83.3246 25.377V25.2334C83.3246 24.6592 83.3885 24.1419 83.5161 23.6816C83.6482 23.2168 83.8373 22.8203 84.0834 22.4922C84.3295 22.1595 84.628 21.9066 84.9789 21.7334C85.3344 21.5557 85.7355 21.4668 86.1821 21.4668C86.6105 21.4668 86.991 21.5374 87.3237 21.6787C87.6564 21.82 87.9435 22.0228 88.185 22.2871C88.4265 22.5514 88.6202 22.8659 88.7661 23.2305C88.9164 23.5951 89.0258 24.0007 89.0942 24.4473V26.2725C89.0395 26.6917 88.9392 27.0768 88.7934 27.4277C88.6476 27.7741 88.4539 28.0771 88.2123 28.3369C87.9708 28.5921 87.6791 28.7904 87.3373 28.9316C87.0001 29.0684 86.6105 29.1367 86.1684 29.1367C85.7263 29.1367 85.3299 29.0456 84.9789 28.8633C84.628 28.681 84.3295 28.4235 84.0834 28.0908C83.8373 27.7536 83.6482 27.3548 83.5161 26.8945C83.3885 26.4342 83.3246 25.9284 83.3246 25.377ZM84.145 25.2334V25.377C84.145 25.8099 84.1883 26.2109 84.2748 26.5801C84.3614 26.9492 84.4936 27.2705 84.6713 27.5439C84.8491 27.8174 85.0746 28.0316 85.3481 28.1865C85.6215 28.3415 85.9428 28.4189 86.312 28.4189C86.7814 28.4189 87.1756 28.3301 87.4946 28.1523C87.8136 27.9701 88.0665 27.7308 88.2534 27.4346C88.4402 27.1338 88.5769 26.8057 88.6635 26.4502V24.3242C88.6134 24.0827 88.5359 23.8366 88.4311 23.5859C88.3308 23.3353 88.1896 23.1051 88.0073 22.8955C87.8295 22.6813 87.6017 22.5104 87.3237 22.3828C87.0502 22.2507 86.7176 22.1846 86.3256 22.1846C85.9519 22.1846 85.6261 22.262 85.3481 22.417C85.0746 22.5719 84.8491 22.7884 84.6713 23.0664C84.4936 23.3398 84.3614 23.6611 84.2748 24.0303C84.1883 24.3994 84.145 24.8005 84.145 25.2334ZM92.4709 23.1348V29H91.6505V21.6035H92.4367L92.4709 23.1348ZM92.3205 24.8438L91.924 24.6387C91.9513 24.2012 92.0334 23.791 92.1701 23.4082C92.3114 23.0254 92.5073 22.6882 92.758 22.3965C93.0086 22.1048 93.3094 21.877 93.6603 21.7129C94.0112 21.5488 94.41 21.4668 94.8566 21.4668C95.2166 21.4668 95.5425 21.5169 95.8341 21.6172C96.1304 21.7129 96.381 21.8656 96.5861 22.0752C96.7957 22.2803 96.9575 22.5492 97.0714 22.8818C97.1854 23.2145 97.2423 23.6133 97.2423 24.0781V29H96.4289V24.1055C96.4289 23.6133 96.3514 23.2282 96.1964 22.9502C96.0461 22.6722 95.8341 22.474 95.5607 22.3555C95.2918 22.237 94.9796 22.1777 94.6242 22.1777C94.2049 22.1777 93.8494 22.2643 93.5578 22.4375C93.2707 22.6061 93.036 22.8271 92.8537 23.1006C92.6759 23.3695 92.5438 23.6589 92.4572 23.9688C92.3706 24.2741 92.325 24.5658 92.3205 24.8438ZM97.2355 24.2012L96.6886 24.2148C96.7114 23.8548 96.7935 23.5107 96.9347 23.1826C97.0806 22.8545 97.2788 22.5628 97.5295 22.3076C97.7801 22.0479 98.0786 21.8428 98.425 21.6924C98.7759 21.542 99.1701 21.4668 99.6076 21.4668C99.9904 21.4668 100.332 21.5192 100.633 21.624C100.934 21.7243 101.187 21.8861 101.392 22.1094C101.601 22.3281 101.761 22.6084 101.87 22.9502C101.98 23.292 102.034 23.7021 102.034 24.1807V29H101.214V24.1738C101.214 23.6497 101.137 23.2441 100.982 22.957C100.831 22.6654 100.622 22.4626 100.353 22.3486C100.084 22.2347 99.7694 22.1777 99.4093 22.1777C99.0539 22.1823 98.7417 22.2484 98.4728 22.376C98.2039 22.499 97.9783 22.6631 97.7961 22.8682C97.6183 23.0687 97.4816 23.2852 97.3859 23.5176C97.2948 23.75 97.2446 23.9779 97.2355 24.2012ZM108.891 27.6738V23.8594C108.891 23.5085 108.818 23.2054 108.672 22.9502C108.526 22.695 108.312 22.499 108.029 22.3623C107.747 22.2256 107.398 22.1572 106.983 22.1572C106.6 22.1572 106.259 22.2256 105.958 22.3623C105.662 22.4945 105.427 22.6745 105.254 22.9023C105.085 23.1257 105.001 23.374 105.001 23.6475L104.181 23.6406C104.181 23.3626 104.249 23.0938 104.386 22.834C104.522 22.5742 104.716 22.3418 104.967 22.1367C105.217 21.9316 105.516 21.7699 105.862 21.6514C106.213 21.5283 106.598 21.4668 107.017 21.4668C107.546 21.4668 108.011 21.5557 108.412 21.7334C108.818 21.9111 109.134 22.1777 109.362 22.5332C109.59 22.8887 109.704 23.3353 109.704 23.873V27.4482C109.704 27.7035 109.722 27.9678 109.759 28.2412C109.8 28.5146 109.857 28.7402 109.93 28.918V29H109.061C109.007 28.8359 108.963 28.6309 108.932 28.3848C108.904 28.1341 108.891 27.8971 108.891 27.6738ZM109.082 24.6934L109.096 25.3223H107.489C107.07 25.3223 106.694 25.361 106.361 25.4385C106.033 25.5114 105.755 25.6208 105.527 25.7666C105.299 25.9079 105.124 26.0788 105.001 26.2793C104.882 26.4798 104.823 26.7077 104.823 26.9629C104.823 27.2272 104.889 27.4688 105.021 27.6875C105.158 27.9062 105.349 28.0817 105.596 28.2139C105.846 28.3415 106.142 28.4053 106.484 28.4053C106.94 28.4053 107.341 28.321 107.687 28.1523C108.038 27.9837 108.328 27.7627 108.556 27.4893C108.783 27.2158 108.936 26.9173 109.014 26.5938L109.369 27.0654C109.31 27.2933 109.2 27.528 109.041 27.7695C108.886 28.0065 108.683 28.2298 108.432 28.4395C108.182 28.6445 107.886 28.8132 107.544 28.9453C107.207 29.0729 106.824 29.1367 106.395 29.1367C105.912 29.1367 105.491 29.0456 105.131 28.8633C104.775 28.681 104.497 28.4326 104.297 28.1182C104.101 27.7992 104.003 27.4391 104.003 27.0381C104.003 26.6735 104.08 26.3477 104.235 26.0605C104.39 25.7689 104.613 25.5228 104.905 25.3223C105.201 25.1172 105.557 24.9622 105.972 24.8574C106.391 24.748 106.86 24.6934 107.38 24.6934H109.082Z" fill="black"/>
</g>
</g>
<defs>
<filter id="filter0_d_2_332" x="0" y="0" width="142" height="52" filterUnits="userSpaceOnUse" color-interpolation-filters="sRGB">
<feFlood flood-opacity="0" result="BackgroundImageFix"/>
<feColorMatrix in="SourceAlpha" type="matrix" values="0 0 0 0 0 0 0 0 0 0 0 0 0 0 0 0 0 0 127 0" result="hardAlpha"/>
<feOffset dy="2"/>
<feGaussianBlur stdDeviation="3"/>
<feComposite in2="hardAlpha" operator="out"/>
<feColorMatrix type="matrix" values="0 0 0 0 0 0 0 0 0 0 0 0 0 0 0 0 0 0 0.25 0"/>
<feBlend mode="normal" in2="BackgroundImageFix" result="effect1_dropShadow_2_332"/>
<feBlend mode="normal" in="SourceGraphic" in2="effect1_dropShadow_2_332" result="shape"/>
</filter>
<clipPath id="clip0_2_332">
<rect x="6" y="4" width="130" height="40" rx="6" fill="white"/>
</clipPath>
<clipPath id="clip1_2_332">
<rect width="13.3333" height="20" fill="white" transform="translate(19.3333 14)"/>
</clipPath>
</defs>
</svg>
