<svg width="142" height="52" viewBox="0 0 142 52" fill="none" xmlns="http://www.w3.org/2000/svg">
<g filter="url(#filter0_d_2_119)">
<g clip-path="url(#clip0_2_119)">
<rect width="40" height="40" transform="translate(6 4)" fill="#009EEB"/>
<g clip-path="url(#clip1_2_119)">
<path d="M35.6228 23.1089L26.8905 14.3772C26.388 13.8743 25.5723 13.8743 25.0692 14.3772L23.2559 16.1905L25.5561 18.4907C26.0907 18.3101 26.7036 18.4312 27.1297 18.8574C27.5579 19.2862 27.6781 19.9043 27.4931 20.4407L29.7099 22.6575C30.2463 22.4727 30.8651 22.5923 31.2934 23.0213C31.8921 23.6197 31.8921 24.5897 31.2934 25.1885C30.6946 25.7874 29.7246 25.7874 29.1256 25.1885C28.6753 24.7378 28.564 24.0764 28.792 23.5216L26.7246 21.4543L26.7244 26.8947C26.8703 26.9671 27.0082 27.0635 27.1297 27.1846C27.7284 27.783 27.7284 28.7529 27.1297 29.3522C26.5309 29.9509 25.5605 29.9509 24.9625 29.3522C24.3639 28.7529 24.3639 27.783 24.9625 27.1846C25.1104 27.0369 25.2816 26.9252 25.4642 26.8502V21.359C25.2816 21.2844 25.1106 21.1734 24.9625 21.0246C24.5089 20.5717 24.3999 19.9061 24.6322 19.3491L22.365 17.0814L16.3774 23.0685C15.8743 23.5719 15.8743 24.3876 16.3774 24.8905L25.1098 33.6224C25.6125 34.1254 26.4279 34.1254 26.9314 33.6224L35.6228 24.9311C36.1258 24.4279 36.1258 23.6118 35.6228 23.1089Z" fill="#DE4C36"/>
</g>
<rect width="90" height="40" transform="translate(46 4)" fill="#F2F2F2"/>
<path d="M90.4424 24.2695V27.8105C90.3285 27.9792 90.1325 28.166 89.8545 28.3711C89.5765 28.5762 89.2028 28.7562 88.7334 28.9111C88.264 29.0615 87.6807 29.1367 86.9834 29.1367C86.4001 29.1367 85.8646 29.0319 85.377 28.8223C84.8893 28.6126 84.4655 28.3096 84.1055 27.9131C83.75 27.512 83.4743 27.0312 83.2783 26.4707C83.0869 25.9102 82.9912 25.2812 82.9912 24.584V23.3809C82.9912 22.6973 83.0801 22.082 83.2578 21.5352C83.4355 20.9837 83.693 20.512 84.0303 20.1201C84.3675 19.7282 84.7731 19.4297 85.2471 19.2246C85.7256 19.015 86.2611 18.9102 86.8535 18.9102C87.5918 18.9102 88.2139 19.0378 88.7197 19.293C89.2256 19.5482 89.6198 19.8991 89.9023 20.3457C90.1895 20.7878 90.3672 21.2891 90.4355 21.8496H89.5947C89.5309 21.4531 89.3988 21.0885 89.1982 20.7559C88.9977 20.4186 88.7061 20.1475 88.3232 19.9424C87.945 19.7373 87.4551 19.6348 86.8535 19.6348C86.3704 19.6348 85.9398 19.7236 85.5615 19.9014C85.1878 20.0791 84.8734 20.332 84.6182 20.6602C84.363 20.9883 84.1693 21.3825 84.0371 21.8428C83.9049 22.2985 83.8389 22.8066 83.8389 23.3672V24.584C83.8389 25.1673 83.9118 25.6937 84.0576 26.1631C84.208 26.6325 84.4222 27.0358 84.7002 27.373C84.9782 27.7103 85.3109 27.9701 85.6982 28.1523C86.0856 28.3301 86.5163 28.4189 86.9902 28.4189C87.4961 28.4189 87.9268 28.3711 88.2822 28.2754C88.6377 28.1797 88.9225 28.0658 89.1367 27.9336C89.3555 27.7969 89.5127 27.6693 89.6084 27.5508V24.9873H86.9355V24.2695H90.4424ZM93.8464 21.6035V29H93.0329V21.6035H93.8464ZM92.8894 19.4639C92.8894 19.3089 92.9372 19.179 93.0329 19.0742C93.1332 18.9648 93.2699 18.9102 93.4431 18.9102C93.6163 18.9102 93.753 18.9648 93.8532 19.0742C93.9581 19.179 94.0105 19.3089 94.0105 19.4639C94.0105 19.6143 93.9581 19.7441 93.8532 19.8535C93.753 19.9583 93.6163 20.0107 93.4431 20.0107C93.2699 20.0107 93.1332 19.9583 93.0329 19.8535C92.9372 19.7441 92.8894 19.6143 92.8894 19.4639ZM99.1577 21.6035V22.2734H95.4526V21.6035H99.1577ZM96.8129 19.7031H97.6264V27.2021C97.6264 27.5439 97.672 27.8014 97.7631 27.9746C97.8543 28.1478 97.9728 28.264 98.1186 28.3232C98.2644 28.3825 98.4217 28.4121 98.5903 28.4121C98.7133 28.4121 98.8318 28.4053 98.9457 28.3916C99.0597 28.3734 99.1622 28.3551 99.2534 28.3369L99.2875 29.0273C99.1873 29.0592 99.0574 29.0843 98.8979 29.1025C98.7384 29.1253 98.5789 29.1367 98.4194 29.1367C98.1049 29.1367 97.8269 29.0798 97.5854 28.9658C97.3439 28.8473 97.1547 28.6468 97.018 28.3643C96.8813 28.0771 96.8129 27.6875 96.8129 27.1953V19.7031Z" fill="black"/>
</g>
</g>
<defs>
<filter id="filter0_d_2_119" x="0" y="0" width="142" height="52" filterUnits="userSpaceOnUse" color-interpolation-filters="sRGB">
<feFlood flood-opacity="0" result="BackgroundImageFix"/>
<feColorMatrix in="SourceAlpha" type="matrix" values="0 0 0 0 0 0 0 0 0 0 0 0 0 0 0 0 0 0 127 0" result="hardAlpha"/>
<feOffset dy="2"/>
<feGaussianBlur stdDeviation="3"/>
<feComposite in2="hardAlpha" operator="out"/>
<feColorMatrix type="matrix" values="0 0 0 0 0 0 0 0 0 0 0 0 0 0 0 0 0 0 0.25 0"/>
<feBlend mode="normal" in2="BackgroundImageFix" result="effect1_dropShadow_2_119"/>
<feBlend mode="normal" in="SourceGraphic" in2="effect1_dropShadow_2_119" result="shape"/>
</filter>
<clipPath id="clip0_2_119">
<rect x="6" y="4" width="130" height="40" rx="6" fill="white"/>
</clipPath>
<clipPath id="clip1_2_119">
<rect width="20" height="20" fill="white" transform="translate(16 14)"/>
</clipPath>
</defs>
</svg>
