<svg width="142" height="52" viewBox="0 0 142 52" fill="none" xmlns="http://www.w3.org/2000/svg">
<g filter="url(#filter0_d_2_137)">
<g clip-path="url(#clip0_2_137)">
<rect width="40" height="40" transform="translate(6 4)" fill="#009EEB"/>
<g clip-path="url(#clip1_2_137)">
<path d="M33.0667 17.9205L31.7791 32.3449L25.9913 33.9495L20.2195 32.3472L18.9332 17.9205H33.0667Z" fill="#E44D26"/>
<path d="M26 32.723L30.6768 31.4264L31.7772 19.1001H26V32.723Z" fill="#F16529"/>
<path d="M23.4969 22.6389H26V20.8695H21.5632L21.6056 21.3442L22.0405 26.2201H26V24.4507H23.6586L23.4969 22.6389Z" fill="#EBEBEB"/>
<path d="M23.8957 27.1048H22.1195L22.3674 29.883L25.9918 30.8891L26 30.8869V29.046L25.9922 29.0481L24.0216 28.516L23.8957 27.1048Z" fill="#EBEBEB"/>
<path d="M20.2482 14H21.1474V14.8884H21.9699V14H22.8691V16.6902H21.97V15.7894H21.1474V16.6902H20.2483L20.2482 14Z" fill="black"/>
<path d="M24.0515 14.8921H23.2599V14H25.7427V14.8921H24.9508V16.6902H24.0516L24.0515 14.8921Z" fill="black"/>
<path d="M26.1368 14H27.0744L27.6511 14.9453L28.2273 14H29.1652V16.6902H28.2697V15.3568L27.6511 16.3133H27.6356L27.0166 15.3568V16.6902H26.1368V14Z" fill="black"/>
<path d="M29.6127 14H30.5121V15.801H31.7766V16.6902H29.6127V14Z" fill="black"/>
<path d="M25.9938 26.2201H28.1726L27.9672 28.5148L25.9938 29.0475V30.8883L29.6211 29.883L29.6477 29.584L30.0635 24.9259L30.1067 24.4507H25.9938V26.2201Z" fill="white"/>
<path d="M25.9938 22.6346V22.6389H30.2677L30.3032 22.2412L30.3838 21.3442L30.4261 20.8695H25.9938V22.6346Z" fill="white"/>
</g>
<rect width="90" height="40" transform="translate(46 4)" fill="#F2F2F2"/>
<path d="M79.457 23.5107V24.2285H73.4072V23.5107H79.457ZM73.6055 19.0469V29H72.7646V19.0469H73.6055ZM80.1338 19.0469V29H79.293V19.0469H80.1338ZM86.0876 19.0469V29H85.2536V19.0469H86.0876ZM89.4987 19.0469V19.7715H81.8493V19.0469H89.4987ZM91.6586 19.0469H92.5063L96.184 27.8105L99.8686 19.0469H100.709L96.5053 29H95.8627L91.6586 19.0469ZM91.3989 19.0469H92.144L92.2329 24.6523V29H91.3989V19.0469ZM100.238 19.0469H100.983V29H100.142V24.6523L100.238 19.0469ZM109.548 28.2822V29H104.387V28.2822H109.548ZM104.633 19.0469V29H103.792V19.0469H104.633Z" fill="black"/>
</g>
</g>
<defs>
<filter id="filter0_d_2_137" x="0" y="0" width="142" height="52" filterUnits="userSpaceOnUse" color-interpolation-filters="sRGB">
<feFlood flood-opacity="0" result="BackgroundImageFix"/>
<feColorMatrix in="SourceAlpha" type="matrix" values="0 0 0 0 0 0 0 0 0 0 0 0 0 0 0 0 0 0 127 0" result="hardAlpha"/>
<feOffset dy="2"/>
<feGaussianBlur stdDeviation="3"/>
<feComposite in2="hardAlpha" operator="out"/>
<feColorMatrix type="matrix" values="0 0 0 0 0 0 0 0 0 0 0 0 0 0 0 0 0 0 0.25 0"/>
<feBlend mode="normal" in2="BackgroundImageFix" result="effect1_dropShadow_2_137"/>
<feBlend mode="normal" in="SourceGraphic" in2="effect1_dropShadow_2_137" result="shape"/>
</filter>
<clipPath id="clip0_2_137">
<rect x="6" y="4" width="130" height="40" rx="6" fill="white"/>
</clipPath>
<clipPath id="clip1_2_137">
<rect width="14.1828" height="20" fill="white" transform="translate(18.9086 14)"/>
</clipPath>
</defs>
</svg>
