<svg width="142" height="52" viewBox="0 0 142 52" fill="none" xmlns="http://www.w3.org/2000/svg">
<g filter="url(#filter0_d_2_294)">
<g clip-path="url(#clip0_2_294)">
<rect width="40" height="40" transform="translate(6 4)" fill="#009EEB"/>
<g clip-path="url(#clip1_2_294)">
<path d="M16 14H36V34H16V14Z" fill="#F7DF1E"/>
<path d="M21.2588 30.7135L22.7893 29.7872C23.0846 30.3107 23.3532 30.7537 23.9975 30.7537C24.615 30.7537 25.0044 30.5121 25.0044 29.5724V23.1819H26.8839V29.599C26.8839 31.5457 25.7428 32.4317 24.078 32.4317C22.5745 32.4317 21.7017 31.653 21.2587 30.7133" fill="black"/>
<path d="M27.9048 30.5121L29.4351 29.626C29.838 30.2839 30.3616 30.7672 31.2879 30.7672C32.0666 30.7672 32.5632 30.3778 32.5632 29.8408C32.5632 29.1964 32.0531 28.9681 31.1939 28.5923L30.7241 28.3908C29.3681 27.8136 28.4686 27.0887 28.4686 25.5582C28.4686 24.1485 29.5426 23.0745 31.2208 23.0745C32.4156 23.0745 33.2748 23.4907 33.8923 24.5781L32.429 25.5179C32.1068 24.9406 31.7578 24.7124 31.2208 24.7124C30.6704 24.7124 30.3213 25.0615 30.3213 25.5179C30.3213 26.0817 30.6704 26.31 31.4758 26.6591L31.9456 26.8605C33.5433 27.5452 34.4428 28.2432 34.4428 29.8139C34.4428 31.5056 33.1137 32.4319 31.3282 32.4319C29.5829 32.4319 28.4551 31.5995 27.9048 30.5121Z" fill="black"/>
</g>
<rect width="90" height="40" transform="translate(46 4)" fill="#F2F2F2"/>
<path d="M62.6602 26.0332V19.0469H63.501V26.0332C63.501 26.7031 63.3688 27.2682 63.1045 27.7285C62.8447 28.1888 62.4893 28.5397 62.0381 28.7812C61.5869 29.0182 61.0719 29.1367 60.4932 29.1367C59.9007 29.1367 59.3766 29.0319 58.9209 28.8223C58.4697 28.6126 58.1188 28.2959 57.8682 27.8721C57.6175 27.4437 57.4922 26.9036 57.4922 26.252H58.333C58.333 26.7305 58.4173 27.1315 58.5859 27.4551C58.7591 27.7741 59.0075 28.0156 59.3311 28.1797C59.6546 28.3392 60.042 28.4189 60.4932 28.4189C60.8988 28.4189 61.2633 28.3301 61.5869 28.1523C61.915 27.9701 62.1748 27.7035 62.3662 27.3525C62.5622 26.9971 62.6602 26.5573 62.6602 26.0332ZM70.5622 27.6738V23.8594C70.5622 23.5085 70.4893 23.2054 70.3435 22.9502C70.1976 22.695 69.9835 22.499 69.7009 22.3623C69.4183 22.2256 69.0697 22.1572 68.655 22.1572C68.2722 22.1572 67.9304 22.2256 67.6296 22.3623C67.3334 22.4945 67.0987 22.6745 66.9255 22.9023C66.7569 23.1257 66.6726 23.374 66.6726 23.6475L65.8523 23.6406C65.8523 23.3626 65.9206 23.0938 66.0573 22.834C66.1941 22.5742 66.3877 22.3418 66.6384 22.1367C66.889 21.9316 67.1876 21.7699 67.5339 21.6514C67.8848 21.5283 68.2699 21.4668 68.6892 21.4668C69.2178 21.4668 69.6827 21.5557 70.0837 21.7334C70.4893 21.9111 70.806 22.1777 71.0339 22.5332C71.2618 22.8887 71.3757 23.3353 71.3757 23.873V27.4482C71.3757 27.7035 71.3939 27.9678 71.4304 28.2412C71.4714 28.5146 71.5284 28.7402 71.6013 28.918V29H70.7331C70.6784 28.8359 70.6351 28.6309 70.6032 28.3848C70.5759 28.1341 70.5622 27.8971 70.5622 27.6738ZM70.7536 24.6934L70.7673 25.3223H69.1609C68.7416 25.3223 68.3656 25.361 68.0329 25.4385C67.7048 25.5114 67.4268 25.6208 67.1989 25.7666C66.9711 25.9079 66.7956 26.0788 66.6726 26.2793C66.5541 26.4798 66.4948 26.7077 66.4948 26.9629C66.4948 27.2272 66.5609 27.4688 66.6931 27.6875C66.8298 27.9062 67.0212 28.0817 67.2673 28.2139C67.518 28.3415 67.8142 28.4053 68.156 28.4053C68.6117 28.4053 69.0127 28.321 69.3591 28.1523C69.71 27.9837 69.9994 27.7627 70.2273 27.4893C70.4551 27.2158 70.6078 26.9173 70.6853 26.5938L71.0407 27.0654C70.9815 27.2933 70.8721 27.528 70.7126 27.7695C70.5577 28.0065 70.3549 28.2298 70.1042 28.4395C69.8536 28.6445 69.5573 28.8132 69.2155 28.9453C68.8783 29.0729 68.4955 29.1367 68.0671 29.1367C67.584 29.1367 67.1625 29.0456 66.8025 28.8633C66.447 28.681 66.169 28.4326 65.9685 28.1182C65.7725 27.7992 65.6745 27.4391 65.6745 27.0381C65.6745 26.6735 65.752 26.3477 65.907 26.0605C66.0619 25.7689 66.2852 25.5228 66.5769 25.3223C66.8731 25.1172 67.2286 24.9622 67.6433 24.8574C68.0626 24.748 68.532 24.6934 69.0515 24.6934H70.7536ZM75.9213 28.2139L78.2934 21.6035H79.1342L76.3657 29H75.7709L75.9213 28.2139ZM73.7748 21.6035L76.1743 28.2344L76.3041 29H75.7026L72.9272 21.6035H73.7748ZM85.1496 27.6738V23.8594C85.1496 23.5085 85.0767 23.2054 84.9308 22.9502C84.785 22.695 84.5708 22.499 84.2882 22.3623C84.0057 22.2256 83.6571 22.1572 83.2423 22.1572C82.8595 22.1572 82.5177 22.2256 82.217 22.3623C81.9207 22.4945 81.686 22.6745 81.5129 22.9023C81.3442 23.1257 81.2599 23.374 81.2599 23.6475L80.4396 23.6406C80.4396 23.3626 80.508 23.0938 80.6447 22.834C80.7814 22.5742 80.9751 22.3418 81.2257 22.1367C81.4764 21.9316 81.7749 21.7699 82.1213 21.6514C82.4722 21.5283 82.8573 21.4668 83.2765 21.4668C83.8052 21.4668 84.27 21.5557 84.6711 21.7334C85.0767 21.9111 85.3934 22.1777 85.6213 22.5332C85.8491 22.8887 85.963 23.3353 85.963 23.873V27.4482C85.963 27.7035 85.9813 27.9678 86.0177 28.2412C86.0588 28.5146 86.1157 28.7402 86.1886 28.918V29H85.3205C85.2658 28.8359 85.2225 28.6309 85.1906 28.3848C85.1632 28.1341 85.1496 27.8971 85.1496 27.6738ZM85.341 24.6934L85.3546 25.3223H83.7482C83.3289 25.3223 82.953 25.361 82.6203 25.4385C82.2921 25.5114 82.0142 25.6208 81.7863 25.7666C81.5584 25.9079 81.383 26.0788 81.2599 26.2793C81.1414 26.4798 81.0822 26.7077 81.0822 26.9629C81.0822 27.2272 81.1483 27.4688 81.2804 27.6875C81.4171 27.9062 81.6086 28.0817 81.8546 28.2139C82.1053 28.3415 82.4015 28.4053 82.7433 28.4053C83.199 28.4053 83.6001 28.321 83.9464 28.1523C84.2974 27.9837 84.5867 27.7627 84.8146 27.4893C85.0425 27.2158 85.1951 26.9173 85.2726 26.5938L85.6281 27.0654C85.5688 27.2933 85.4595 27.528 85.3 27.7695C85.145 28.0065 84.9422 28.2298 84.6916 28.4395C84.4409 28.6445 84.1447 28.8132 83.8029 28.9453C83.4657 29.0729 83.0828 29.1367 82.6545 29.1367C82.1714 29.1367 81.7498 29.0456 81.3898 28.8633C81.0343 28.681 80.7563 28.4326 80.5558 28.1182C80.3599 27.7992 80.2619 27.4391 80.2619 27.0381C80.2619 26.6735 80.3393 26.3477 80.4943 26.0605C80.6492 25.7689 80.8726 25.5228 81.1642 25.3223C81.4604 25.1172 81.8159 24.9622 82.2306 24.8574C82.6499 24.748 83.1193 24.6934 83.6388 24.6934H85.341ZM94.2616 26.5527C94.2616 26.2793 94.216 26.0355 94.1249 25.8213C94.0337 25.6071 93.8833 25.4157 93.6737 25.2471C93.4686 25.0739 93.1906 24.9144 92.8397 24.7686C92.4934 24.6182 92.0604 24.4701 91.5409 24.3242C91.0442 24.1829 90.5953 24.028 90.1942 23.8594C89.7932 23.6908 89.4491 23.4971 89.162 23.2783C88.8794 23.0596 88.663 22.8044 88.5126 22.5127C88.3622 22.2165 88.287 21.8724 88.287 21.4805C88.287 21.0977 88.369 20.749 88.5331 20.4346C88.6971 20.1201 88.9273 19.849 89.2235 19.6211C89.5243 19.3932 89.8775 19.2178 90.2831 19.0947C90.6932 18.9717 91.1421 18.9102 91.6298 18.9102C92.327 18.9102 92.9286 19.0423 93.4345 19.3066C93.9449 19.571 94.3391 19.9287 94.6171 20.3799C94.8996 20.8265 95.0409 21.3278 95.0409 21.8838H94.2001C94.2001 21.4508 94.0975 21.0658 93.8925 20.7285C93.6919 20.3867 93.4003 20.1201 93.0175 19.9287C92.6392 19.7327 92.1766 19.6348 91.6298 19.6348C91.0829 19.6348 90.6226 19.7191 90.2489 19.8877C89.8798 20.0518 89.5995 20.2728 89.4081 20.5508C89.2212 20.8242 89.1278 21.1296 89.1278 21.4668C89.1278 21.7038 89.1734 21.9225 89.2645 22.123C89.3557 22.319 89.5038 22.5036 89.7089 22.6768C89.9185 22.8454 90.1942 23.0049 90.536 23.1553C90.8778 23.3011 91.2994 23.4401 91.8007 23.5723C92.3293 23.7181 92.7987 23.8799 93.2089 24.0576C93.619 24.2354 93.9654 24.4404 94.2479 24.6729C94.5305 24.9007 94.7447 25.1673 94.8905 25.4727C95.0363 25.778 95.1093 26.1335 95.1093 26.5391C95.1093 26.9447 95.0227 27.3092 94.8495 27.6328C94.6809 27.9518 94.4416 28.223 94.1317 28.4463C93.8264 28.6696 93.4641 28.8405 93.0448 28.959C92.6301 29.0775 92.1766 29.1367 91.6845 29.1367C91.2424 29.1367 90.8026 29.0798 90.3651 28.9658C89.9276 28.8519 89.5266 28.6764 89.162 28.4395C88.802 28.1979 88.5126 27.888 88.2938 27.5098C88.0796 27.1315 87.9725 26.6803 87.9725 26.1562H88.8065C88.8065 26.5755 88.8908 26.9287 89.0595 27.2158C89.2281 27.5029 89.4514 27.7354 89.7294 27.9131C90.0119 28.0908 90.3218 28.2207 90.6591 28.3027C91.0009 28.3802 91.3427 28.4189 91.6845 28.4189C92.2085 28.4189 92.662 28.3415 93.0448 28.1865C93.4322 28.0316 93.7307 27.8151 93.9403 27.5371C94.1545 27.2546 94.2616 26.9264 94.2616 26.5527ZM99.7438 28.4326C100.09 28.4326 100.414 28.3688 100.714 28.2412C101.02 28.109 101.27 27.9154 101.466 27.6602C101.667 27.4004 101.781 27.0837 101.808 26.71H102.588C102.565 27.1794 102.421 27.5986 102.157 27.9678C101.897 28.3324 101.555 28.6195 101.131 28.8291C100.712 29.0342 100.25 29.1367 99.7438 29.1367C99.2288 29.1367 98.773 29.0433 98.3766 28.8564C97.9846 28.6696 97.6565 28.4098 97.3922 28.0771C97.1279 27.7399 96.9273 27.348 96.7906 26.9014C96.6585 26.4502 96.5924 25.9648 96.5924 25.4453V25.1582C96.5924 24.6387 96.6585 24.1556 96.7906 23.709C96.9273 23.2578 97.1279 22.8659 97.3922 22.5332C97.6565 22.196 97.9846 21.9339 98.3766 21.7471C98.7685 21.5602 99.2219 21.4668 99.7369 21.4668C100.266 21.4668 100.74 21.5739 101.159 21.7881C101.583 22.0023 101.92 22.3053 102.171 22.6973C102.426 23.0892 102.565 23.554 102.588 24.0918H101.808C101.785 23.6953 101.681 23.3535 101.494 23.0664C101.307 22.7793 101.061 22.5583 100.755 22.4033C100.45 22.2484 100.111 22.1709 99.7369 22.1709C99.3176 22.1709 98.9599 22.2529 98.6637 22.417C98.3674 22.5765 98.1259 22.7975 97.9391 23.0801C97.7568 23.3581 97.6223 23.6771 97.5357 24.0371C97.4492 24.3926 97.4059 24.7663 97.4059 25.1582V25.4453C97.4059 25.8418 97.4469 26.2201 97.5289 26.5801C97.6155 26.9355 97.7499 27.2523 97.9322 27.5303C98.1191 27.8083 98.3606 28.0293 98.6568 28.1934C98.9576 28.3529 99.3199 28.4326 99.7438 28.4326ZM105.328 22.8271V29H104.515V21.6035H105.308L105.328 22.8271ZM107.947 21.5488L107.926 22.3008C107.835 22.2871 107.746 22.2757 107.659 22.2666C107.573 22.2575 107.479 22.2529 107.379 22.2529C107.024 22.2529 106.712 22.319 106.443 22.4512C106.178 22.5788 105.955 22.7588 105.773 22.9912C105.59 23.2191 105.451 23.488 105.356 23.7979C105.26 24.1032 105.205 24.4313 105.192 24.7822L104.891 24.8984C104.891 24.4154 104.941 23.9665 105.041 23.5518C105.142 23.137 105.294 22.7747 105.499 22.4648C105.709 22.1504 105.971 21.9066 106.285 21.7334C106.604 21.5557 106.978 21.4668 107.407 21.4668C107.511 21.4668 107.614 21.4759 107.714 21.4941C107.819 21.5078 107.896 21.526 107.947 21.5488ZM110.421 21.6035V29H109.607V21.6035H110.421ZM109.464 19.4639C109.464 19.3089 109.512 19.179 109.607 19.0742C109.708 18.9648 109.844 18.9102 110.018 18.9102C110.191 18.9102 110.328 18.9648 110.428 19.0742C110.533 19.179 110.585 19.3089 110.585 19.4639C110.585 19.6143 110.533 19.7441 110.428 19.8535C110.328 19.9583 110.191 20.0107 110.018 20.0107C109.844 20.0107 109.708 19.9583 109.607 19.8535C109.512 19.7441 109.464 19.6143 109.464 19.4639ZM113.743 23.0254V31.8438H112.923V21.6035H113.688L113.743 23.0254ZM118.884 25.2334V25.377C118.884 25.9284 118.82 26.4342 118.692 26.8945C118.565 27.3548 118.38 27.7536 118.138 28.0908C117.901 28.4235 117.608 28.681 117.257 28.8633C116.906 29.0456 116.507 29.1367 116.06 29.1367C115.618 29.1367 115.224 29.0684 114.878 28.9316C114.531 28.7949 114.233 28.6012 113.982 28.3506C113.736 28.0954 113.538 27.7992 113.387 27.4619C113.242 27.1201 113.139 26.7464 113.08 26.3408V24.4473C113.148 24.0007 113.26 23.5951 113.415 23.2305C113.57 22.8659 113.768 22.5514 114.01 22.2871C114.256 22.0228 114.547 21.82 114.885 21.6787C115.222 21.5374 115.607 21.4668 116.04 21.4668C116.491 21.4668 116.892 21.5557 117.243 21.7334C117.598 21.9066 117.897 22.1595 118.138 22.4922C118.385 22.8203 118.569 23.2168 118.692 23.6816C118.82 24.1419 118.884 24.6592 118.884 25.2334ZM118.063 25.377V25.2334C118.063 24.8005 118.018 24.3994 117.927 24.0303C117.84 23.6611 117.705 23.3398 117.523 23.0664C117.345 22.7884 117.118 22.5719 116.84 22.417C116.566 22.262 116.24 22.1846 115.862 22.1846C115.47 22.1846 115.135 22.2507 114.857 22.3828C114.584 22.5104 114.356 22.6813 114.174 22.8955C113.991 23.1051 113.848 23.3353 113.743 23.5859C113.638 23.8366 113.561 24.0827 113.511 24.3242V26.5049C113.597 26.8512 113.736 27.1725 113.928 27.4688C114.119 27.7604 114.374 27.9951 114.693 28.1729C115.017 28.346 115.411 28.4326 115.876 28.4326C116.249 28.4326 116.573 28.3551 116.846 28.2002C117.12 28.0452 117.345 27.8288 117.523 27.5508C117.705 27.2728 117.84 26.9492 117.927 26.5801C118.018 26.2109 118.063 25.8099 118.063 25.377ZM123.778 21.6035V22.2734H120.073V21.6035H123.778ZM121.433 19.7031H122.247V27.2021C122.247 27.5439 122.292 27.8014 122.383 27.9746C122.474 28.1478 122.593 28.264 122.739 28.3232C122.885 28.3825 123.042 28.4121 123.21 28.4121C123.333 28.4121 123.452 28.4053 123.566 28.3916C123.68 28.3734 123.782 28.3551 123.874 28.3369L123.908 29.0273C123.807 29.0592 123.678 29.0843 123.518 29.1025C123.359 29.1253 123.199 29.1367 123.04 29.1367C122.725 29.1367 122.447 29.0798 122.206 28.9658C121.964 28.8473 121.775 28.6468 121.638 28.3643C121.501 28.0771 121.433 27.6875 121.433 27.1953V19.7031Z" fill="black"/>
</g>
</g>
<defs>
<filter id="filter0_d_2_294" x="0" y="0" width="142" height="52" filterUnits="userSpaceOnUse" color-interpolation-filters="sRGB">
<feFlood flood-opacity="0" result="BackgroundImageFix"/>
<feColorMatrix in="SourceAlpha" type="matrix" values="0 0 0 0 0 0 0 0 0 0 0 0 0 0 0 0 0 0 127 0" result="hardAlpha"/>
<feOffset dy="2"/>
<feGaussianBlur stdDeviation="3"/>
<feComposite in2="hardAlpha" operator="out"/>
<feColorMatrix type="matrix" values="0 0 0 0 0 0 0 0 0 0 0 0 0 0 0 0 0 0 0.25 0"/>
<feBlend mode="normal" in2="BackgroundImageFix" result="effect1_dropShadow_2_294"/>
<feBlend mode="normal" in="SourceGraphic" in2="effect1_dropShadow_2_294" result="shape"/>
</filter>
<clipPath id="clip0_2_294">
<rect x="6" y="4" width="130" height="40" rx="6" fill="white"/>
</clipPath>
<clipPath id="clip1_2_294">
<rect width="20" height="20" fill="white" transform="translate(16 14)"/>
</clipPath>
</defs>
</svg>
