<svg width="142" height="52" viewBox="0 0 142 52" fill="none" xmlns="http://www.w3.org/2000/svg">
<g filter="url(#filter0_d_2_156)">
<g clip-path="url(#clip0_2_156)">
<rect width="40" height="40" transform="translate(6 4)" fill="#EA8101"/>
<g clip-path="url(#clip1_2_156)">
<path d="M33.8835 23.8205C33.8835 22.7952 33.0523 21.964 32.027 21.964C31.961 21.964 31.896 21.9675 31.8318 21.9743L34.3818 14.4534H23.5453L26.0917 21.9677C26.0544 21.9655 26.0168 21.964 25.9789 21.964C24.9536 21.964 24.1223 22.7952 24.1223 23.8205C24.1223 24.6494 24.6655 25.351 25.4152 25.5897C25.0192 26.2756 24.521 26.8933 23.9553 27.427C23.1862 28.1526 22.3059 28.7028 21.3538 29.0419C20.2203 28.4595 19.6849 27.1645 20.168 26.029C20.2225 25.9007 20.2782 25.7708 20.3314 25.6414C21.1526 25.4497 21.7646 24.7135 21.7646 23.8339C21.7646 22.8085 20.9334 21.9773 19.908 21.9773C18.8826 21.9773 18.0514 22.8085 18.0514 23.8339C18.0514 24.4626 18.3643 25.018 18.8425 25.3539C18.383 26.4001 17.7075 27.495 17.497 28.7641C17.2448 30.285 17.4962 31.8994 18.8116 32.8111C21.8751 34.9343 25.2005 31.4948 28.7066 30.6302C29.9773 30.3169 31.3721 30.3674 32.4916 29.719C33.3323 29.232 33.8866 28.4251 34.0439 27.5192C34.1992 26.6242 33.9727 25.7331 33.4517 25.0106C33.7212 24.6883 33.8835 24.2735 33.8835 23.8205Z" fill="#99425B"/>
<path d="M33.5972 27.4416C33.4606 28.2281 32.9748 28.9151 32.2644 29.3266C31.6022 29.7102 30.8086 29.8247 29.9684 29.9458C29.5182 30.0107 29.0528 30.0779 28.5981 30.19C27.3958 30.4865 26.2313 31.0649 25.1052 31.6243C22.8515 32.7437 20.9052 33.7103 19.07 32.4384C17.7257 31.5067 17.7878 29.7829 17.9444 28.8383C18.0895 27.9631 18.4819 27.1571 18.8614 26.3777C18.927 26.2429 18.9912 26.1106 19.0537 25.9795C19.2418 26.0546 19.4419 26.1059 19.6504 26.1292C19.2641 27.404 19.8716 28.7902 21.1466 29.4452L21.3211 29.5348L21.5059 29.4691C22.5139 29.1101 23.4427 28.534 24.2666 27.7568C24.7991 27.2544 25.2569 26.6985 25.6332 26.1046C25.7461 26.1216 25.8615 26.1306 25.9789 26.1306C27.1492 26.1306 28.1182 25.2557 28.2682 24.1258C28.7472 24.1083 29.256 24.1081 29.7377 24.1256C29.8876 25.2556 30.8567 26.1306 32.027 26.1306C32.5163 26.1306 32.9702 25.9772 33.3441 25.7167C33.6036 26.2481 33.7005 26.846 33.5972 27.4416ZM19.908 22.4308C20.6817 22.4308 21.3111 23.0602 21.3111 23.8339C21.3111 24.1118 21.2296 24.371 21.0896 24.5892C20.8563 24.9529 20.46 25.2023 20.0044 25.2334C19.9725 25.2356 19.9404 25.237 19.908 25.237C19.7356 25.237 19.5704 25.2056 19.4177 25.1485C19.1088 25.0329 18.8514 24.8112 18.6895 24.5282C18.5722 24.3233 18.5049 24.0864 18.5049 23.8339C18.5049 23.0602 19.1343 22.4308 19.908 22.4308ZM24.5758 23.8206C24.5758 23.1176 25.0954 22.5339 25.7707 22.433C25.8386 22.4228 25.9082 22.4174 25.9789 22.4174C26.4287 22.4174 26.8292 22.6305 27.0861 22.9607C27.1499 23.0428 27.2053 23.1318 27.2499 23.2268C27.3345 23.4073 27.3821 23.6084 27.3821 23.8206C27.3821 23.9328 27.3685 24.0418 27.3435 24.1464C27.2067 24.7189 26.7186 25.1564 26.1205 25.2166C26.074 25.2213 26.0267 25.2237 25.9789 25.2237C25.6988 25.2237 25.4378 25.1409 25.2185 24.9989C24.8322 24.7486 24.5758 24.3141 24.5758 23.8206ZM30.432 22.1521C30.1314 22.4397 29.9079 22.8072 29.7965 23.2204C29.277 23.2009 28.726 23.2009 28.2094 23.2204C28.0907 22.78 27.8446 22.3914 27.5136 22.0963L28.9655 19.1604L30.432 22.1521ZM24.1778 14.9069H33.7493L31.4886 21.5744C31.3906 21.598 31.295 21.6276 31.2023 21.6632L28.969 17.1074L26.7295 21.6359C26.6327 21.6026 26.5329 21.5758 26.4308 21.5554L24.1778 14.9069ZM33.4301 23.8206C33.4301 23.9613 33.4091 24.0971 33.3704 24.2253C33.2783 24.5304 33.0849 24.7918 32.8296 24.9705C32.602 25.1299 32.3253 25.2237 32.027 25.2237C31.3791 25.2237 30.8326 24.7822 30.6719 24.1843C30.6407 24.0682 30.6238 23.9464 30.6238 23.8206C30.6238 23.6288 30.6626 23.4459 30.7326 23.2793C30.7686 23.1934 30.8136 23.1122 30.8652 23.036C31.1178 22.6633 31.5439 22.4174 32.027 22.4174C32.0713 22.4174 32.115 22.4197 32.1582 22.4238C32.8706 22.4902 33.4301 23.0911 33.4301 23.8206ZM34.337 23.8206C34.337 22.6928 33.5244 21.7518 32.4542 21.5508L35.0143 14H22.9129L25.4769 21.5662C24.4438 21.7961 23.6689 22.7192 23.6689 23.8206C23.6689 24.6475 24.106 25.374 24.761 25.7822C24.4459 26.2516 24.0723 26.6932 23.6442 27.0972C22.9652 27.7377 22.2088 28.2235 21.3933 28.5431C20.5719 28.0271 20.2247 27.0541 20.5853 26.2064L20.6135 26.14C20.6312 26.0985 20.6489 26.0569 20.6665 26.0154C21.5687 25.7007 22.218 24.842 22.218 23.8339C22.218 22.5601 21.1817 21.5239 19.908 21.5239C18.6343 21.5239 17.598 22.5601 17.598 23.8339C17.598 24.4768 17.8623 25.059 18.2876 25.4782C18.2105 25.6425 18.1293 25.8096 18.046 25.9807C17.6572 26.7794 17.2164 27.6847 17.0498 28.6899C16.7187 30.6864 17.2527 32.2823 18.5534 33.1838C19.3427 33.7308 20.1441 33.9459 20.9508 33.9459C22.4696 33.9459 24.0059 33.1828 25.5086 32.4364C26.5908 31.8989 27.7099 31.3431 28.8152 31.0705C29.2265 30.969 29.6497 30.908 30.0978 30.8434C30.9863 30.7152 31.9051 30.5827 32.7189 30.1114C33.6623 29.565 34.308 28.6484 34.4906 27.5967C34.6474 26.6939 34.4588 25.7896 33.9987 25.0228C34.2131 24.6723 34.337 24.2607 34.337 23.8206Z" fill="white"/>
</g>
<rect width="90" height="40" transform="translate(46 4)" fill="#F2F2F2"/>
<path d="M82.6602 26.0332V19.0469H83.501V26.0332C83.501 26.7031 83.3688 27.2682 83.1045 27.7285C82.8447 28.1888 82.4893 28.5397 82.0381 28.7812C81.5869 29.0182 81.0719 29.1367 80.4932 29.1367C79.9007 29.1367 79.3766 29.0319 78.9209 28.8223C78.4697 28.6126 78.1188 28.2959 77.8682 27.8721C77.6175 27.4437 77.4922 26.9036 77.4922 26.252H78.333C78.333 26.7305 78.4173 27.1315 78.5859 27.4551C78.7591 27.7741 79.0075 28.0156 79.3311 28.1797C79.6546 28.3392 80.042 28.4189 80.4932 28.4189C80.8988 28.4189 81.2633 28.3301 81.5869 28.1523C81.915 27.9701 82.1748 27.7035 82.3662 27.3525C82.5622 26.9971 82.6602 26.5573 82.6602 26.0332ZM88.9216 29.1367C88.4385 29.1367 87.9942 29.0479 87.5886 28.8701C87.1876 28.6924 86.8366 28.4417 86.5359 28.1182C86.2396 27.7946 86.0095 27.4118 85.8454 26.9697C85.6859 26.5231 85.6062 26.0355 85.6062 25.5068V25.2129C85.6062 24.6432 85.6905 24.1283 85.8591 23.668C86.0277 23.2077 86.2601 22.8135 86.5564 22.4854C86.8526 22.1572 87.1898 21.9066 87.5681 21.7334C87.9509 21.5557 88.3519 21.4668 88.7712 21.4668C89.2406 21.4668 89.6576 21.5511 90.0222 21.7197C90.3868 21.8838 90.6921 22.1185 90.9382 22.4238C91.1889 22.7246 91.378 23.0824 91.5056 23.4971C91.6332 23.9072 91.697 24.3607 91.697 24.8574V25.3564H86.0984V24.6592H90.8835V24.5635C90.8744 24.1488 90.7901 23.7614 90.6306 23.4014C90.4756 23.0368 90.2432 22.7406 89.9333 22.5127C89.6234 22.2848 89.2361 22.1709 88.7712 22.1709C88.4249 22.1709 88.1058 22.2438 87.8142 22.3896C87.5271 22.5355 87.2787 22.7451 87.0691 23.0186C86.864 23.2874 86.7045 23.6087 86.5905 23.9824C86.4812 24.3516 86.4265 24.7617 86.4265 25.2129V25.5068C86.4265 25.917 86.4857 26.2998 86.6042 26.6553C86.7273 27.0062 86.9004 27.3161 87.1238 27.585C87.3516 27.8538 87.6205 28.0635 87.9304 28.2139C88.2403 28.3643 88.5821 28.4395 88.9558 28.4395C89.3933 28.4395 89.7807 28.3597 90.1179 28.2002C90.4551 28.0361 90.7582 27.7786 91.0271 27.4277L91.5398 27.8242C91.3803 28.0612 91.1797 28.2799 90.9382 28.4805C90.7012 28.681 90.4164 28.8405 90.0837 28.959C89.751 29.0775 89.3637 29.1367 88.9216 29.1367ZM98.02 27.1133C98.02 26.9128 97.9698 26.7145 97.8696 26.5186C97.7693 26.3226 97.5756 26.1426 97.2885 25.9785C97.006 25.8145 96.589 25.6755 96.0375 25.5615C95.6274 25.4704 95.2605 25.3678 94.937 25.2539C94.6179 25.14 94.3491 25.0033 94.1303 24.8438C93.9116 24.6842 93.7452 24.4928 93.6313 24.2695C93.5174 24.0462 93.4604 23.7819 93.4604 23.4766C93.4604 23.2031 93.5196 22.9456 93.6381 22.7041C93.7612 22.458 93.9343 22.2438 94.1577 22.0615C94.3855 21.8747 94.659 21.7288 94.978 21.624C95.3015 21.5192 95.6638 21.4668 96.0649 21.4668C96.6345 21.4668 97.1222 21.5648 97.5278 21.7607C97.9379 21.9521 98.2501 22.2142 98.4643 22.5469C98.683 22.8796 98.7924 23.2555 98.7924 23.6748H97.9789C97.9789 23.4196 97.9038 23.1781 97.7534 22.9502C97.6075 22.7223 97.3911 22.5355 97.1039 22.3896C96.8214 22.2438 96.475 22.1709 96.0649 22.1709C95.6411 22.1709 95.297 22.2347 95.0327 22.3623C94.7683 22.4899 94.5746 22.6517 94.4516 22.8477C94.3331 23.0436 94.2739 23.2464 94.2739 23.4561C94.2739 23.6201 94.2989 23.7705 94.3491 23.9072C94.4038 24.0394 94.4995 24.1624 94.6362 24.2764C94.7774 24.3903 94.978 24.4974 95.2377 24.5977C95.4975 24.6979 95.8347 24.7959 96.2495 24.8916C96.8465 25.0238 97.3341 25.1855 97.7123 25.377C98.0952 25.5638 98.3777 25.7962 98.56 26.0742C98.7423 26.3477 98.8334 26.6803 98.8334 27.0723C98.8334 27.3776 98.7696 27.6579 98.642 27.9131C98.5144 28.1637 98.3299 28.3802 98.0883 28.5625C97.8513 28.7448 97.5642 28.8861 97.227 28.9863C96.8943 29.0866 96.5206 29.1367 96.1059 29.1367C95.4815 29.1367 94.9529 29.0342 94.52 28.8291C94.0916 28.6195 93.7657 28.346 93.5424 28.0088C93.3237 27.667 93.2143 27.3047 93.2143 26.9219H94.0278C94.0551 27.3047 94.1759 27.6077 94.3901 27.8311C94.6043 28.0498 94.8663 28.2048 95.1762 28.2959C95.4907 28.387 95.8006 28.4326 96.1059 28.4326C96.5252 28.4326 96.8761 28.3711 97.1586 28.248C97.4412 28.125 97.6554 27.9632 97.8012 27.7627C97.947 27.5622 98.02 27.3457 98.02 27.1133ZM103.762 21.6035V22.2734H100.057V21.6035H103.762ZM101.417 19.7031H102.231V27.2021C102.231 27.5439 102.276 27.8014 102.367 27.9746C102.458 28.1478 102.577 28.264 102.723 28.3232C102.869 28.3825 103.026 28.4121 103.194 28.4121C103.318 28.4121 103.436 28.4053 103.55 28.3916C103.664 28.3734 103.766 28.3551 103.858 28.3369L103.892 29.0273C103.791 29.0592 103.662 29.0843 103.502 29.1025C103.343 29.1253 103.183 29.1367 103.024 29.1367C102.709 29.1367 102.431 29.0798 102.19 28.9658C101.948 28.8473 101.759 28.6468 101.622 28.3643C101.486 28.0771 101.417 27.6875 101.417 27.1953V19.7031Z" fill="black"/>
</g>
</g>
<defs>
<filter id="filter0_d_2_156" x="0" y="0" width="142" height="52" filterUnits="userSpaceOnUse" color-interpolation-filters="sRGB">
<feFlood flood-opacity="0" result="BackgroundImageFix"/>
<feColorMatrix in="SourceAlpha" type="matrix" values="0 0 0 0 0 0 0 0 0 0 0 0 0 0 0 0 0 0 127 0" result="hardAlpha"/>
<feOffset dy="2"/>
<feGaussianBlur stdDeviation="3"/>
<feComposite in2="hardAlpha" operator="out"/>
<feColorMatrix type="matrix" values="0 0 0 0 0 0 0 0 0 0 0 0 0 0 0 0 0 0 0.25 0"/>
<feBlend mode="normal" in2="BackgroundImageFix" result="effect1_dropShadow_2_156"/>
<feBlend mode="normal" in="SourceGraphic" in2="effect1_dropShadow_2_156" result="shape"/>
</filter>
<clipPath id="clip0_2_156">
<rect x="6" y="4" width="130" height="40" rx="6" fill="white"/>
</clipPath>
<clipPath id="clip1_2_156">
<rect width="18.0919" height="20" fill="white" transform="translate(16.954 14)"/>
</clipPath>
</defs>
</svg>
