<svg width="142" height="52" viewBox="0 0 142 52" fill="none" xmlns="http://www.w3.org/2000/svg">
<g filter="url(#filter0_d_2_348)">
<g clip-path="url(#clip0_2_348)">
<rect width="40" height="40" transform="translate(6 4)" fill="#EA8101"/>
<g clip-path="url(#clip1_2_348)">
<path d="M27.7349 16.2262C26.8966 15.2316 26.1747 14.2215 26.0273 14.0117C26.0117 13.9961 25.9885 13.9961 25.9729 14.0117C25.8255 14.2215 25.1036 15.2316 24.2653 16.2262C17.0702 25.4027 25.3986 31.5956 25.3986 31.5956L25.4684 31.6422C25.5305 32.5979 25.6857 33.9733 25.6857 33.9733H25.9962H26.3067C26.3067 33.9733 26.4619 32.6057 26.524 31.6422L26.5939 31.5878C26.6016 31.5956 34.9301 25.4027 27.7349 16.2262ZM25.9962 31.4557C25.9962 31.4557 25.6237 31.1371 25.5227 30.974V30.9584L25.9729 20.966C25.9729 20.9349 26.0195 20.9349 26.0195 20.966L26.4697 30.9584V30.974C26.3688 31.1371 25.9962 31.4557 25.9962 31.4557Z" fill="#01EC64"/>
</g>
<rect width="90" height="40" transform="translate(46 4)" fill="#F2F2F2"/>
<path d="M61.0244 19.0469H61.8721L65.5498 27.8105L69.2344 19.0469H70.0752L65.8711 29H65.2285L61.0244 19.0469ZM60.7646 19.0469H61.5098L61.5986 24.6523V29H60.7646V19.0469ZM69.6035 19.0469H70.3486V29H69.5078V24.6523L69.6035 19.0469ZM72.5154 25.418V25.1924C72.5154 24.6546 72.5928 24.1579 72.7478 23.7021C72.9027 23.2464 73.1237 22.8522 73.4109 22.5195C73.7025 22.1868 74.0512 21.9294 74.4568 21.7471C74.8624 21.5602 75.3135 21.4668 75.8103 21.4668C76.3116 21.4668 76.765 21.5602 77.1706 21.7471C77.5762 21.9294 77.9249 22.1868 78.2165 22.5195C78.5082 22.8522 78.7315 23.2464 78.8864 23.7021C79.0414 24.1579 79.1189 24.6546 79.1189 25.1924V25.418C79.1189 25.9557 79.0414 26.4525 78.8864 26.9082C78.7315 27.3594 78.5082 27.7513 78.2165 28.084C77.9294 28.4167 77.5831 28.6764 77.1775 28.8633C76.7719 29.0456 76.3207 29.1367 75.8239 29.1367C75.3226 29.1367 74.8692 29.0456 74.4636 28.8633C74.058 28.6764 73.7094 28.4167 73.4177 28.084C73.126 27.7513 72.9027 27.3594 72.7478 26.9082C72.5928 26.4525 72.5154 25.9557 72.5154 25.418ZM73.3288 25.1924V25.418C73.3288 25.8236 73.3835 26.2087 73.4929 26.5732C73.6023 26.9333 73.7618 27.2546 73.9714 27.5371C74.181 27.8151 74.4408 28.0339 74.7507 28.1934C75.0606 28.3529 75.4183 28.4326 75.8239 28.4326C76.225 28.4326 76.5782 28.3529 76.8835 28.1934C77.1934 28.0339 77.4532 27.8151 77.6628 27.5371C77.8724 27.2546 78.0297 26.9333 78.1345 26.5732C78.2439 26.2087 78.2986 25.8236 78.2986 25.418V25.1924C78.2986 24.7913 78.2439 24.4108 78.1345 24.0508C78.0297 23.6908 77.8702 23.3695 77.656 23.0869C77.4463 22.8044 77.1866 22.5811 76.8767 22.417C76.5668 22.2529 76.2113 22.1709 75.8103 22.1709C75.4092 22.1709 75.0538 22.2529 74.7439 22.417C74.4385 22.5811 74.1788 22.8044 73.9646 23.0869C73.7549 23.3695 73.5954 23.6908 73.4861 24.0508C73.3812 24.4108 73.3288 24.7913 73.3288 25.1924ZM81.9077 23.1826V29H81.0942V21.6035H81.8735L81.9077 23.1826ZM81.7231 24.8438L81.3608 24.6387C81.3881 24.2012 81.477 23.791 81.6274 23.4082C81.7778 23.0254 81.9806 22.6882 82.2358 22.3965C82.4955 22.1048 82.7986 21.877 83.145 21.7129C83.4959 21.5488 83.8832 21.4668 84.3071 21.4668C84.6762 21.4668 85.0066 21.5169 85.2983 21.6172C85.5899 21.7174 85.8383 21.877 86.0434 22.0957C86.2485 22.3145 86.4034 22.5947 86.5082 22.9365C86.6176 23.2783 86.6723 23.6953 86.6723 24.1875V29H85.852V24.1807C85.852 23.6702 85.7814 23.2715 85.6401 22.9844C85.4988 22.6927 85.2983 22.4854 85.0385 22.3623C84.7787 22.2393 84.4711 22.1777 84.1157 22.1777C83.7237 22.1777 83.3797 22.2643 83.0834 22.4375C82.7918 22.6061 82.5457 22.8271 82.3452 23.1006C82.1492 23.3695 81.9988 23.6589 81.894 23.9688C81.7892 24.2741 81.7322 24.5658 81.7231 24.8438ZM93.9386 21.6035H94.6974V28.8701C94.6974 29.5127 94.5744 30.0641 94.3283 30.5244C94.0867 30.9847 93.7427 31.3379 93.2961 31.584C92.854 31.8301 92.3322 31.9531 91.7306 31.9531C91.4253 31.9531 91.1108 31.9053 90.7873 31.8096C90.4683 31.7184 90.1652 31.5771 89.8781 31.3857C89.5955 31.1989 89.354 30.9665 89.1535 30.6885L89.6115 30.1895C89.9123 30.554 90.2336 30.8206 90.5754 30.9893C90.9171 31.1624 91.2863 31.249 91.6828 31.249C92.1522 31.249 92.5487 31.1556 92.8722 30.9688C93.2004 30.7819 93.4487 30.513 93.6173 30.1621C93.7905 29.8112 93.8771 29.3896 93.8771 28.8975V23.2305L93.9386 21.6035ZM88.7433 25.377V25.2334C88.7433 24.6592 88.8071 24.1419 88.9347 23.6816C89.0669 23.2168 89.256 22.8203 89.5021 22.4922C89.7482 22.1595 90.0467 21.9066 90.3976 21.7334C90.7531 21.5557 91.1541 21.4668 91.6007 21.4668C92.0291 21.4668 92.4097 21.5374 92.7423 21.6787C93.075 21.82 93.3621 22.0228 93.6037 22.2871C93.8452 22.5514 94.0389 22.8659 94.1847 23.2305C94.3351 23.5951 94.4445 24.0007 94.5129 24.4473V26.2725C94.4582 26.6917 94.3579 27.0768 94.2121 27.4277C94.0662 27.7741 93.8726 28.0771 93.631 28.3369C93.3895 28.5921 93.0978 28.7904 92.756 28.9316C92.4188 29.0684 92.0291 29.1367 91.5871 29.1367C91.145 29.1367 90.7485 29.0456 90.3976 28.8633C90.0467 28.681 89.7482 28.4235 89.5021 28.0908C89.256 27.7536 89.0669 27.3548 88.9347 26.8945C88.8071 26.4342 88.7433 25.9284 88.7433 25.377ZM89.5636 25.2334V25.377C89.5636 25.8099 89.6069 26.2109 89.6935 26.5801C89.7801 26.9492 89.9123 27.2705 90.09 27.5439C90.2677 27.8174 90.4933 28.0316 90.7668 28.1865C91.0402 28.3415 91.3615 28.4189 91.7306 28.4189C92.2 28.4189 92.5942 28.3301 92.9132 28.1523C93.2323 27.9701 93.4852 27.7308 93.672 27.4346C93.8589 27.1338 93.9956 26.8057 94.0822 26.4502V24.3242C94.0321 24.0827 93.9546 23.8366 93.8498 23.5859C93.7495 23.3353 93.6082 23.1051 93.4259 22.8955C93.2482 22.6813 93.0203 22.5104 92.7423 22.3828C92.4689 22.2507 92.1362 22.1846 91.7443 22.1846C91.3706 22.1846 91.0448 22.262 90.7668 22.417C90.4933 22.5719 90.2677 22.7884 90.09 23.0664C89.9123 23.3398 89.7801 23.6611 89.6935 24.0303C89.6069 24.3994 89.5636 24.8005 89.5636 25.2334ZM96.6659 25.418V25.1924C96.6659 24.6546 96.7434 24.1579 96.8983 23.7021C97.0533 23.2464 97.2743 22.8522 97.5614 22.5195C97.8531 22.1868 98.2017 21.9294 98.6073 21.7471C99.0129 21.5602 99.4641 21.4668 99.9608 21.4668C100.462 21.4668 100.916 21.5602 101.321 21.7471C101.727 21.9294 102.075 22.1868 102.367 22.5195C102.659 22.8522 102.882 23.2464 103.037 23.7021C103.192 24.1579 103.269 24.6546 103.269 25.1924V25.418C103.269 25.9557 103.192 26.4525 103.037 26.9082C102.882 27.3594 102.659 27.7513 102.367 28.084C102.08 28.4167 101.734 28.6764 101.328 28.8633C100.922 29.0456 100.471 29.1367 99.9745 29.1367C99.4732 29.1367 99.0197 29.0456 98.6141 28.8633C98.2085 28.6764 97.8599 28.4167 97.5682 28.084C97.2766 27.7513 97.0533 27.3594 96.8983 26.9082C96.7434 26.4525 96.6659 25.9557 96.6659 25.418ZM97.4794 25.1924V25.418C97.4794 25.8236 97.5341 26.2087 97.6434 26.5732C97.7528 26.9333 97.9123 27.2546 98.122 27.5371C98.3316 27.8151 98.5914 28.0339 98.9012 28.1934C99.2111 28.3529 99.5689 28.4326 99.9745 28.4326C100.376 28.4326 100.729 28.3529 101.034 28.1934C101.344 28.0339 101.604 27.8151 101.813 27.5371C102.023 27.2546 102.18 26.9333 102.285 26.5732C102.394 26.2087 102.449 25.8236 102.449 25.418V25.1924C102.449 24.7913 102.394 24.4108 102.285 24.0508C102.18 23.6908 102.021 23.3695 101.807 23.0869C101.597 22.8044 101.337 22.5811 101.027 22.417C100.717 22.2529 100.362 22.1709 99.9608 22.1709C99.5598 22.1709 99.2043 22.2529 98.8944 22.417C98.5891 22.5811 98.3293 22.8044 98.1151 23.0869C97.9055 23.3695 97.746 23.6908 97.6366 24.0508C97.5318 24.4108 97.4794 24.7913 97.4794 25.1924ZM108.157 29H105.901L105.915 28.2822H108.157C108.872 28.2822 109.488 28.1227 110.003 27.8037C110.522 27.4801 110.923 27.0335 111.206 26.4639C111.488 25.8942 111.629 25.2334 111.629 24.4814V23.5518C111.629 22.9775 111.547 22.458 111.383 21.9932C111.224 21.5283 110.994 21.1318 110.693 20.8037C110.392 20.471 110.032 20.2158 109.613 20.0381C109.198 19.8604 108.733 19.7715 108.218 19.7715H105.86V19.0469H108.218C108.838 19.0469 109.406 19.154 109.921 19.3682C110.44 19.5778 110.889 19.8831 111.267 20.2842C111.65 20.6807 111.944 21.1569 112.149 21.7129C112.359 22.2689 112.463 22.8887 112.463 23.5723V24.4814C112.463 25.165 112.359 25.7848 112.149 26.3408C111.944 26.8968 111.65 27.373 111.267 27.7695C110.884 28.166 110.431 28.4714 109.907 28.6855C109.383 28.8952 108.799 29 108.157 29ZM106.277 19.0469V29H105.436V19.0469H106.277ZM118.315 24.2148H115.512L115.498 23.5039H117.911C118.404 23.5039 118.823 23.4333 119.169 23.292C119.516 23.1507 119.778 22.9411 119.955 22.6631C120.138 22.3805 120.229 22.0342 120.229 21.624C120.229 21.2048 120.14 20.8584 119.962 20.585C119.784 20.307 119.518 20.1019 119.162 19.9697C118.807 19.8376 118.36 19.7715 117.823 19.7715H115.731V29H114.89V19.0469H117.823C118.328 19.0469 118.782 19.097 119.183 19.1973C119.584 19.2975 119.926 19.4548 120.208 19.6689C120.491 19.8831 120.705 20.1543 120.851 20.4824C121.001 20.806 121.076 21.1934 121.076 21.6445C121.076 22.0547 120.985 22.4261 120.803 22.7588C120.621 23.0869 120.363 23.3558 120.031 23.5654C119.702 23.7705 119.308 23.8981 118.848 23.9482L118.315 24.2148ZM118.253 29H115.245L115.676 28.2822H118.253C118.745 28.2822 119.165 28.2002 119.511 28.0361C119.862 27.8675 120.131 27.6283 120.318 27.3184C120.505 27.0085 120.598 26.6393 120.598 26.2109C120.598 25.8327 120.516 25.4932 120.352 25.1924C120.188 24.8916 119.937 24.6546 119.6 24.4814C119.263 24.3037 118.834 24.2148 118.315 24.2148H116.572L116.585 23.5039H119.053L119.203 23.7568C119.65 23.8024 120.04 23.9414 120.372 24.1738C120.71 24.4017 120.969 24.6911 121.152 25.042C121.339 25.3929 121.432 25.778 121.432 26.1973C121.432 26.7988 121.298 27.3092 121.029 27.7285C120.764 28.1432 120.393 28.46 119.914 28.6787C119.44 28.8929 118.887 29 118.253 29Z" fill="black"/>
</g>
</g>
<defs>
<filter id="filter0_d_2_348" x="0" y="0" width="142" height="52" filterUnits="userSpaceOnUse" color-interpolation-filters="sRGB">
<feFlood flood-opacity="0" result="BackgroundImageFix"/>
<feColorMatrix in="SourceAlpha" type="matrix" values="0 0 0 0 0 0 0 0 0 0 0 0 0 0 0 0 0 0 127 0" result="hardAlpha"/>
<feOffset dy="2"/>
<feGaussianBlur stdDeviation="3"/>
<feComposite in2="hardAlpha" operator="out"/>
<feColorMatrix type="matrix" values="0 0 0 0 0 0 0 0 0 0 0 0 0 0 0 0 0 0 0.25 0"/>
<feBlend mode="normal" in2="BackgroundImageFix" result="effect1_dropShadow_2_348"/>
<feBlend mode="normal" in="SourceGraphic" in2="effect1_dropShadow_2_348" result="shape"/>
</filter>
<clipPath id="clip0_2_348">
<rect x="6" y="4" width="130" height="40" rx="6" fill="white"/>
</clipPath>
<clipPath id="clip1_2_348">
<rect width="9.32605" height="20" fill="white" transform="translate(21.337 14)"/>
</clipPath>
</defs>
</svg>
