<svg width="142" height="52" viewBox="0 0 142 52" fill="none" xmlns="http://www.w3.org/2000/svg">
<g filter="url(#filter0_d_2_176)">
<g clip-path="url(#clip0_2_176)">
<rect width="40" height="40" transform="translate(6 4)" fill="#009EEB"/>
<g clip-path="url(#clip1_2_176)">
<mask id="mask0_2_176" style="mask-type:luminance" maskUnits="userSpaceOnUse" x="16" y="14" width="20" height="20">
<path d="M26 34C31.5228 34 36 29.5228 36 24C36 18.4772 31.5228 14 26 14C20.4772 14 16 18.4772 16 24C16 29.5228 20.4772 34 26 34Z" fill="white"/>
</mask>
<g mask="url(#mask0_2_176)">
<path d="M26 34C31.5228 34 36 29.5228 36 24C36 18.4772 31.5228 14 26 14C20.4772 14 16 18.4772 16 24C16 29.5228 20.4772 34 26 34Z" fill="black"/>
<path d="M32.612 31.5022L23.6824 20H22V27.9967H23.346V21.7093L31.5554 32.3161C31.9259 32.0682 32.2788 31.7961 32.612 31.5022Z" fill="url(#paint0_linear_2_176)"/>
<path d="M30.1111 20H28.7778V28H30.1111V20Z" fill="url(#paint1_linear_2_176)"/>
</g>
</g>
<rect width="90" height="40" transform="translate(46 4)" fill="#F2F2F2"/>
<path d="M74.6748 19.0469V29H73.8271L68.1055 20.4961V29H67.2646V19.0469H68.1055L73.8408 27.5508V19.0469H74.6748ZM80.1638 29.1367C79.6807 29.1367 79.2364 29.0479 78.8308 28.8701C78.4297 28.6924 78.0788 28.4417 77.778 28.1182C77.4818 27.7946 77.2517 27.4118 77.0876 26.9697C76.9281 26.5231 76.8484 26.0355 76.8484 25.5068V25.2129C76.8484 24.6432 76.9327 24.1283 77.1013 23.668C77.2699 23.2077 77.5023 22.8135 77.7986 22.4854C78.0948 22.1572 78.432 21.9066 78.8103 21.7334C79.1931 21.5557 79.5941 21.4668 80.0134 21.4668C80.4828 21.4668 80.8998 21.5511 81.2644 21.7197C81.629 21.8838 81.9343 22.1185 82.1804 22.4238C82.431 22.7246 82.6202 23.0824 82.7478 23.4971C82.8754 23.9072 82.9392 24.3607 82.9392 24.8574V25.3564H77.3405V24.6592H82.1257V24.5635C82.1166 24.1488 82.0323 23.7614 81.8728 23.4014C81.7178 23.0368 81.4854 22.7406 81.1755 22.5127C80.8656 22.2848 80.4782 22.1709 80.0134 22.1709C79.667 22.1709 79.348 22.2438 79.0564 22.3896C78.7693 22.5355 78.5209 22.7451 78.3112 23.0186C78.1062 23.2874 77.9467 23.6087 77.8327 23.9824C77.7234 24.3516 77.6687 24.7617 77.6687 25.2129V25.5068C77.6687 25.917 77.7279 26.2998 77.8464 26.6553C77.9695 27.0062 78.1426 27.3161 78.3659 27.585C78.5938 27.8538 78.8627 28.0635 79.1726 28.2139C79.4825 28.3643 79.8243 28.4395 80.198 28.4395C80.6355 28.4395 81.0228 28.3597 81.3601 28.2002C81.6973 28.0361 82.0004 27.7786 82.2693 27.4277L82.782 27.8242C82.6224 28.0612 82.4219 28.2799 82.1804 28.4805C81.9434 28.681 81.6586 28.8405 81.3259 28.959C80.9932 29.0775 80.6058 29.1367 80.1638 29.1367ZM85.1537 21.6035L87.1498 24.5908L89.1528 21.6035H90.1235L87.6147 25.2266L90.226 29H89.269L87.1567 25.876L85.0512 29H84.0942L86.7055 25.2266L84.1967 21.6035H85.1537ZM94.7306 21.6035V22.2734H91.0255V21.6035H94.7306ZM92.3859 19.7031H93.1994V27.2021C93.1994 27.5439 93.2449 27.8014 93.3361 27.9746C93.4272 28.1478 93.5457 28.264 93.6916 28.3232C93.8374 28.3825 93.9946 28.4121 94.1632 28.4121C94.2863 28.4121 94.4048 28.4053 94.5187 28.3916C94.6326 28.3734 94.7352 28.3551 94.8263 28.3369L94.8605 29.0273C94.7602 29.0592 94.6304 29.0843 94.4709 29.1025C94.3114 29.1253 94.1518 29.1367 93.9923 29.1367C93.6779 29.1367 93.3999 29.0798 93.1584 28.9658C92.9168 28.8473 92.7277 28.6468 92.591 28.3643C92.4543 28.0771 92.3859 27.6875 92.3859 27.1953V19.7031ZM105.011 26.0332V19.0469H105.852V26.0332C105.852 26.7031 105.72 27.2682 105.456 27.7285C105.196 28.1888 104.84 28.5397 104.389 28.7812C103.938 29.0182 103.423 29.1367 102.844 29.1367C102.252 29.1367 101.728 29.0319 101.272 28.8223C100.821 28.6126 100.47 28.2959 100.219 27.8721C99.9687 27.4437 99.8434 26.9036 99.8434 26.252H100.684C100.684 26.7305 100.768 27.1315 100.937 27.4551C101.11 27.7741 101.359 28.0156 101.682 28.1797C102.006 28.3392 102.393 28.4189 102.844 28.4189C103.25 28.4189 103.615 28.3301 103.938 28.1523C104.266 27.9701 104.526 27.7035 104.717 27.3525C104.913 26.9971 105.011 26.5573 105.011 26.0332ZM114.24 26.5527C114.24 26.2793 114.194 26.0355 114.103 25.8213C114.012 25.6071 113.861 25.4157 113.652 25.2471C113.447 25.0739 113.169 24.9144 112.818 24.7686C112.471 24.6182 112.038 24.4701 111.519 24.3242C111.022 24.1829 110.573 24.028 110.172 23.8594C109.771 23.6908 109.427 23.4971 109.14 23.2783C108.857 23.0596 108.641 22.8044 108.491 22.5127C108.34 22.2165 108.265 21.8724 108.265 21.4805C108.265 21.0977 108.347 20.749 108.511 20.4346C108.675 20.1201 108.905 19.849 109.201 19.6211C109.502 19.3932 109.855 19.2178 110.261 19.0947C110.671 18.9717 111.12 18.9102 111.608 18.9102C112.305 18.9102 112.907 19.0423 113.412 19.3066C113.923 19.571 114.317 19.9287 114.595 20.3799C114.878 20.8265 115.019 21.3278 115.019 21.8838H114.178C114.178 21.4508 114.076 21.0658 113.87 20.7285C113.67 20.3867 113.378 20.1201 112.995 19.9287C112.617 19.7327 112.155 19.6348 111.608 19.6348C111.061 19.6348 110.601 19.7191 110.227 19.8877C109.858 20.0518 109.577 20.2728 109.386 20.5508C109.199 20.8242 109.106 21.1296 109.106 21.4668C109.106 21.7038 109.151 21.9225 109.243 22.123C109.334 22.319 109.482 22.5036 109.687 22.6768C109.896 22.8454 110.172 23.0049 110.514 23.1553C110.856 23.3011 111.277 23.4401 111.779 23.5723C112.307 23.7181 112.777 23.8799 113.187 24.0576C113.597 24.2354 113.943 24.4404 114.226 24.6729C114.508 24.9007 114.723 25.1673 114.868 25.4727C115.014 25.778 115.087 26.1335 115.087 26.5391C115.087 26.9447 115.001 27.3092 114.827 27.6328C114.659 27.9518 114.42 28.223 114.11 28.4463C113.804 28.6696 113.442 28.8405 113.023 28.959C112.608 29.0775 112.155 29.1367 111.662 29.1367C111.22 29.1367 110.781 29.0798 110.343 28.9658C109.906 28.8519 109.505 28.6764 109.14 28.4395C108.78 28.1979 108.491 27.888 108.272 27.5098C108.058 27.1315 107.951 26.6803 107.951 26.1562H108.784C108.784 26.5755 108.869 26.9287 109.037 27.2158C109.206 27.5029 109.429 27.7354 109.707 27.9131C109.99 28.0908 110.3 28.2207 110.637 28.3027C110.979 28.3802 111.321 28.4189 111.662 28.4189C112.187 28.4189 112.64 28.3415 113.023 28.1865C113.41 28.0316 113.709 27.8151 113.918 27.5371C114.132 27.2546 114.24 26.9264 114.24 26.5527Z" fill="black"/>
</g>
</g>
<defs>
<filter id="filter0_d_2_176" x="0" y="0" width="142" height="52" filterUnits="userSpaceOnUse" color-interpolation-filters="sRGB">
<feFlood flood-opacity="0" result="BackgroundImageFix"/>
<feColorMatrix in="SourceAlpha" type="matrix" values="0 0 0 0 0 0 0 0 0 0 0 0 0 0 0 0 0 0 127 0" result="hardAlpha"/>
<feOffset dy="2"/>
<feGaussianBlur stdDeviation="3"/>
<feComposite in2="hardAlpha" operator="out"/>
<feColorMatrix type="matrix" values="0 0 0 0 0 0 0 0 0 0 0 0 0 0 0 0 0 0 0.25 0"/>
<feBlend mode="normal" in2="BackgroundImageFix" result="effect1_dropShadow_2_176"/>
<feBlend mode="normal" in="SourceGraphic" in2="effect1_dropShadow_2_176" result="shape"/>
</filter>
<linearGradient id="paint0_linear_2_176" x1="612.373" y1="714.444" x2="966.756" y2="1153.68" gradientUnits="userSpaceOnUse">
<stop stop-color="white"/>
<stop offset="1" stop-color="white" stop-opacity="0"/>
</linearGradient>
<linearGradient id="paint1_linear_2_176" x1="95.4444" y1="20" x2="93.2111" y2="607.492" gradientUnits="userSpaceOnUse">
<stop stop-color="white"/>
<stop offset="1" stop-color="white" stop-opacity="0"/>
</linearGradient>
<clipPath id="clip0_2_176">
<rect x="6" y="4" width="130" height="40" rx="6" fill="white"/>
</clipPath>
<clipPath id="clip1_2_176">
<rect width="20" height="20" fill="white" transform="translate(16 14)"/>
</clipPath>
</defs>
</svg>
