<svg width="142" height="52" viewBox="0 0 142 52" fill="none" xmlns="http://www.w3.org/2000/svg">
<g filter="url(#filter0_d_2_194)">
<g clip-path="url(#clip0_2_194)">
<rect width="40" height="40" transform="translate(6 4)" fill="#EA8101"/>
<g clip-path="url(#clip1_2_194)">
<path d="M26 33.9629C25.7249 33.9629 25.4681 33.8895 25.2297 33.7612L22.7905 32.3123C22.4237 32.1106 22.6071 32.0372 22.7172 32.0005C23.2123 31.8355 23.304 31.7988 23.8175 31.5054C23.8726 31.4687 23.9459 31.487 24.0009 31.5237L25.8716 32.6424C25.945 32.6791 26.0367 32.6791 26.0917 32.6424L33.4093 28.4059C33.4826 28.3692 33.5193 28.2959 33.5193 28.2042V19.7495C33.5193 19.6578 33.4826 19.5845 33.4093 19.5478L26.0917 15.3296C26.0183 15.293 25.9266 15.293 25.8716 15.3296L18.554 19.5478C18.4807 19.5845 18.444 19.6762 18.444 19.7495V28.2042C18.444 28.2775 18.4807 28.3692 18.554 28.4059L20.5531 29.5613C21.6351 30.1115 22.3137 29.4696 22.3137 28.8277V20.4831C22.3137 20.3731 22.4054 20.263 22.5338 20.263H23.4691C23.5791 20.263 23.6892 20.3547 23.6892 20.4831V28.8277C23.6892 30.2766 22.9005 31.1202 21.5251 31.1202C21.1032 31.1202 20.7731 31.1202 19.8378 30.6617L17.9121 29.5613C17.4353 29.2862 17.1418 28.7727 17.1418 28.2225V19.7679C17.1418 19.2177 17.4353 18.7042 17.9121 18.4291L25.2297 14.1926C25.6882 13.9358 26.3118 13.9358 26.7702 14.1926L34.0878 18.4291C34.5647 18.7042 34.8581 19.2177 34.8581 19.7679V28.2225C34.8581 28.7727 34.5647 29.2862 34.0878 29.5613L26.7702 33.7978C26.5318 33.9079 26.2567 33.9629 26 33.9629ZM28.2558 28.1492C25.0463 28.1492 24.3861 26.682 24.3861 25.4349C24.3861 25.3248 24.4778 25.2148 24.6062 25.2148H25.5598C25.6699 25.2148 25.7616 25.2882 25.7616 25.3982C25.9083 26.3702 26.3301 26.847 28.2741 26.847C29.8147 26.847 30.4749 26.4986 30.4749 25.6733C30.4749 25.1965 30.2915 24.848 27.889 24.6096C25.8899 24.4078 24.6428 23.9677 24.6428 22.3721C24.6428 20.8866 25.8899 20.0063 27.9807 20.0063C30.3282 20.0063 31.4836 20.8132 31.6303 22.5739C31.6303 22.6289 31.612 22.6839 31.5753 22.7389C31.5386 22.7756 31.4836 22.8123 31.4286 22.8123H30.4749C30.3832 22.8123 30.2915 22.7389 30.2732 22.6472C30.0531 21.6385 29.4845 21.3084 27.9807 21.3084C26.2934 21.3084 26.0917 21.8953 26.0917 22.3354C26.0917 22.8673 26.3301 23.0324 28.6042 23.3258C30.86 23.6192 31.9237 24.0411 31.9237 25.6183C31.9054 27.2322 30.5849 28.1492 28.2558 28.1492Z" fill="#539E43"/>
</g>
<rect width="90" height="40" transform="translate(46 4)" fill="#F2F2F2"/>
<path d="M72.6748 19.0469V29H71.8271L66.1055 20.4961V29H65.2646V19.0469H66.1055L71.8408 27.5508V19.0469H72.6748ZM74.8552 25.418V25.1924C74.8552 24.6546 74.9327 24.1579 75.0876 23.7021C75.2426 23.2464 75.4636 22.8522 75.7507 22.5195C76.0424 22.1868 76.391 21.9294 76.7966 21.7471C77.2022 21.5602 77.6534 21.4668 78.1501 21.4668C78.6514 21.4668 79.1049 21.5602 79.5105 21.7471C79.9161 21.9294 80.2647 22.1868 80.5564 22.5195C80.848 22.8522 81.0713 23.2464 81.2263 23.7021C81.3812 24.1579 81.4587 24.6546 81.4587 25.1924V25.418C81.4587 25.9557 81.3812 26.4525 81.2263 26.9082C81.0713 27.3594 80.848 27.7513 80.5564 28.084C80.2693 28.4167 79.9229 28.6764 79.5173 28.8633C79.1117 29.0456 78.6605 29.1367 78.1638 29.1367C77.6625 29.1367 77.209 29.0456 76.8034 28.8633C76.3978 28.6764 76.0492 28.4167 75.7575 28.084C75.4659 27.7513 75.2426 27.3594 75.0876 26.9082C74.9327 26.4525 74.8552 25.9557 74.8552 25.418ZM75.6687 25.1924V25.418C75.6687 25.8236 75.7234 26.2087 75.8327 26.5732C75.9421 26.9333 76.1016 27.2546 76.3112 27.5371C76.5209 27.8151 76.7807 28.0339 77.0905 28.1934C77.4004 28.3529 77.7582 28.4326 78.1638 28.4326C78.5648 28.4326 78.918 28.3529 79.2234 28.1934C79.5333 28.0339 79.793 27.8151 80.0027 27.5371C80.2123 27.2546 80.3695 26.9333 80.4743 26.5732C80.5837 26.2087 80.6384 25.8236 80.6384 25.418V25.1924C80.6384 24.7913 80.5837 24.4108 80.4743 24.0508C80.3695 23.6908 80.21 23.3695 79.9958 23.0869C79.7862 22.8044 79.5264 22.5811 79.2165 22.417C78.9066 22.2529 78.5512 22.1709 78.1501 22.1709C77.7491 22.1709 77.3936 22.2529 77.0837 22.417C76.7784 22.5811 76.5186 22.8044 76.3044 23.0869C76.0948 23.3695 75.9353 23.6908 75.8259 24.0508C75.7211 24.4108 75.6687 24.7913 75.6687 25.1924ZM88.2397 27.5645V18.5H89.06V29H88.2944L88.2397 27.5645ZM83.1059 25.377V25.2334C83.1059 24.6592 83.172 24.1419 83.3041 23.6816C83.4363 23.2168 83.6254 22.8203 83.8715 22.4922C84.1222 22.1595 84.423 21.9066 84.7739 21.7334C85.1248 21.5557 85.5213 21.4668 85.9633 21.4668C86.3963 21.4668 86.7791 21.5374 87.1118 21.6787C87.4444 21.82 87.7293 22.0228 87.9662 22.2871C88.2078 22.5514 88.4015 22.8659 88.5473 23.2305C88.6977 23.5951 88.8071 24.0007 88.8754 24.4473V26.2725C88.8207 26.6917 88.7205 27.0768 88.5746 27.4277C88.4288 27.7741 88.2351 28.0771 87.9936 28.3369C87.7521 28.5921 87.4604 28.7904 87.1186 28.9316C86.7814 29.0684 86.3917 29.1367 85.9496 29.1367C85.5121 29.1367 85.1179 29.0456 84.767 28.8633C84.4161 28.681 84.1176 28.4235 83.8715 28.0908C83.6254 27.7536 83.4363 27.3548 83.3041 26.8945C83.172 26.4342 83.1059 25.9284 83.1059 25.377ZM83.9262 25.2334V25.377C83.9262 25.8099 83.9695 26.2109 84.0561 26.5801C84.1427 26.9492 84.2748 27.2705 84.4526 27.5439C84.6303 27.8174 84.8559 28.0316 85.1293 28.1865C85.4028 28.3415 85.7263 28.4189 86.1 28.4189C86.5694 28.4189 86.9636 28.3301 87.2827 28.1523C87.6017 27.9701 87.8569 27.7308 88.0483 27.4346C88.2397 27.1338 88.3787 26.8057 88.4653 26.4502V24.3242C88.4106 24.0827 88.3308 23.8366 88.226 23.5859C88.1212 23.3353 87.9776 23.1051 87.7954 22.8955C87.6176 22.6813 87.3898 22.5104 87.1118 22.3828C86.8383 22.2507 86.5056 22.1846 86.1137 22.1846C85.7355 22.1846 85.4096 22.262 85.1362 22.417C84.8627 22.5719 84.6349 22.7884 84.4526 23.0664C84.2748 23.3398 84.1427 23.6611 84.0561 24.0303C83.9695 24.3994 83.9262 24.8005 83.9262 25.2334ZM94.3507 29.1367C93.8677 29.1367 93.4233 29.0479 93.0177 28.8701C92.6167 28.6924 92.2658 28.4417 91.965 28.1182C91.6688 27.7946 91.4386 27.4118 91.2746 26.9697C91.1151 26.5231 91.0353 26.0355 91.0353 25.5068V25.2129C91.0353 24.6432 91.1196 24.1283 91.2882 23.668C91.4569 23.2077 91.6893 22.8135 91.9855 22.4854C92.2817 22.1572 92.619 21.9066 92.9972 21.7334C93.38 21.5557 93.7811 21.4668 94.2004 21.4668C94.6698 21.4668 95.0867 21.5511 95.4513 21.7197C95.8159 21.8838 96.1213 22.1185 96.3673 22.4238C96.618 22.7246 96.8071 23.0824 96.9347 23.4971C97.0623 23.9072 97.1261 24.3607 97.1261 24.8574V25.3564H91.5275V24.6592H96.3127V24.5635C96.3035 24.1488 96.2192 23.7614 96.0597 23.4014C95.9048 23.0368 95.6724 22.7406 95.3625 22.5127C95.0526 22.2848 94.6652 22.1709 94.2004 22.1709C93.854 22.1709 93.535 22.2438 93.2433 22.3896C92.9562 22.5355 92.7078 22.7451 92.4982 23.0186C92.2931 23.2874 92.1336 23.6087 92.0197 23.9824C91.9103 24.3516 91.8556 24.7617 91.8556 25.2129V25.5068C91.8556 25.917 91.9149 26.2998 92.0334 26.6553C92.1564 27.0062 92.3296 27.3161 92.5529 27.585C92.7808 27.8538 93.0496 28.0635 93.3595 28.2139C93.6694 28.3643 94.0112 28.4395 94.3849 28.4395C94.8224 28.4395 95.2098 28.3597 95.547 28.2002C95.8843 28.0361 96.1873 27.7786 96.4562 27.4277L96.9689 27.8242C96.8094 28.0612 96.6089 28.2799 96.3673 28.4805C96.1304 28.681 95.8455 28.8405 95.5129 28.959C95.1802 29.0775 94.7928 29.1367 94.3507 29.1367ZM107.304 26.0332V19.0469H108.145V26.0332C108.145 26.7031 108.013 27.2682 107.749 27.7285C107.489 28.1888 107.133 28.5397 106.682 28.7812C106.231 29.0182 105.716 29.1367 105.137 29.1367C104.545 29.1367 104.021 29.0319 103.565 28.8223C103.114 28.6126 102.763 28.2959 102.512 27.8721C102.262 27.4437 102.136 26.9036 102.136 26.252H102.977C102.977 26.7305 103.061 27.1315 103.23 27.4551C103.403 27.7741 103.652 28.0156 103.975 28.1797C104.299 28.3392 104.686 28.4189 105.137 28.4189C105.543 28.4189 105.907 28.3301 106.231 28.1523C106.559 27.9701 106.819 27.7035 107.01 27.3525C107.206 26.9971 107.304 26.5573 107.304 26.0332ZM116.533 26.5527C116.533 26.2793 116.487 26.0355 116.396 25.8213C116.305 25.6071 116.154 25.4157 115.945 25.2471C115.74 25.0739 115.462 24.9144 115.111 24.7686C114.764 24.6182 114.331 24.4701 113.812 24.3242C113.315 24.1829 112.866 24.028 112.465 23.8594C112.064 23.6908 111.72 23.4971 111.433 23.2783C111.15 23.0596 110.934 22.8044 110.784 22.5127C110.633 22.2165 110.558 21.8724 110.558 21.4805C110.558 21.0977 110.64 20.749 110.804 20.4346C110.968 20.1201 111.198 19.849 111.494 19.6211C111.795 19.3932 112.148 19.2178 112.554 19.0947C112.964 18.9717 113.413 18.9102 113.901 18.9102C114.598 18.9102 115.2 19.0423 115.705 19.3066C116.216 19.571 116.61 19.9287 116.888 20.3799C117.171 20.8265 117.312 21.3278 117.312 21.8838H116.471C116.471 21.4508 116.368 21.0658 116.163 20.7285C115.963 20.3867 115.671 20.1201 115.288 19.9287C114.91 19.7327 114.448 19.6348 113.901 19.6348C113.354 19.6348 112.894 19.7191 112.52 19.8877C112.151 20.0518 111.87 20.2728 111.679 20.5508C111.492 20.8242 111.399 21.1296 111.399 21.4668C111.399 21.7038 111.444 21.9225 111.535 22.123C111.627 22.319 111.775 22.5036 111.98 22.6768C112.189 22.8454 112.465 23.0049 112.807 23.1553C113.149 23.3011 113.57 23.4401 114.072 23.5723C114.6 23.7181 115.07 23.8799 115.48 24.0576C115.89 24.2354 116.236 24.4404 116.519 24.6729C116.801 24.9007 117.016 25.1673 117.161 25.4727C117.307 25.778 117.38 26.1335 117.38 26.5391C117.38 26.9447 117.294 27.3092 117.12 27.6328C116.952 27.9518 116.713 28.223 116.403 28.4463C116.097 28.6696 115.735 28.8405 115.316 28.959C114.901 29.0775 114.448 29.1367 113.955 29.1367C113.513 29.1367 113.074 29.0798 112.636 28.9658C112.199 28.8519 111.798 28.6764 111.433 28.4395C111.073 28.1979 110.784 27.888 110.565 27.5098C110.351 27.1315 110.243 26.6803 110.243 26.1562H111.077C111.077 26.5755 111.162 26.9287 111.33 27.2158C111.499 27.5029 111.722 27.7354 112 27.9131C112.283 28.0908 112.593 28.2207 112.93 28.3027C113.272 28.3802 113.614 28.4189 113.955 28.4189C114.479 28.4189 114.933 28.3415 115.316 28.1865C115.703 28.0316 116.002 27.8151 116.211 27.5371C116.425 27.2546 116.533 26.9264 116.533 26.5527Z" fill="black"/>
</g>
</g>
<defs>
<filter id="filter0_d_2_194" x="0" y="0" width="142" height="52" filterUnits="userSpaceOnUse" color-interpolation-filters="sRGB">
<feFlood flood-opacity="0" result="BackgroundImageFix"/>
<feColorMatrix in="SourceAlpha" type="matrix" values="0 0 0 0 0 0 0 0 0 0 0 0 0 0 0 0 0 0 127 0" result="hardAlpha"/>
<feOffset dy="2"/>
<feGaussianBlur stdDeviation="3"/>
<feComposite in2="hardAlpha" operator="out"/>
<feColorMatrix type="matrix" values="0 0 0 0 0 0 0 0 0 0 0 0 0 0 0 0 0 0 0.25 0"/>
<feBlend mode="normal" in2="BackgroundImageFix" result="effect1_dropShadow_2_194"/>
<feBlend mode="normal" in="SourceGraphic" in2="effect1_dropShadow_2_194" result="shape"/>
</filter>
<clipPath id="clip0_2_194">
<rect x="6" y="4" width="130" height="40" rx="6" fill="white"/>
</clipPath>
<clipPath id="clip1_2_194">
<rect width="17.7163" height="20" fill="white" transform="translate(17.1418 14)"/>
</clipPath>
</defs>
</svg>
