<svg width="142" height="52" viewBox="0 0 142 52" fill="none" xmlns="http://www.w3.org/2000/svg">
<g filter="url(#filter0_d_2_210)">
<g clip-path="url(#clip0_2_210)">
<rect width="40" height="40" transform="translate(6 4)" fill="#EA8101"/>
<g clip-path="url(#clip1_2_210)">
<path d="M35.6218 25.9762C35.5055 25.624 35.2009 25.3787 34.807 25.3198C34.6212 25.2921 34.4085 25.3039 34.1567 25.3558C33.718 25.4464 33.3925 25.4808 33.1549 25.4875C34.0516 23.9735 34.7808 22.2469 35.2005 20.6217C35.8793 17.9938 35.5166 16.7966 35.0927 16.2551C33.971 14.8218 32.3344 14.0518 30.36 14.0282C29.3068 14.0153 28.3821 14.2233 27.8998 14.3728C27.4507 14.2936 26.9678 14.2493 26.4611 14.2411C25.5114 14.226 24.6722 14.433 23.9552 14.8585C23.5581 14.7243 22.9211 14.5351 22.1853 14.4143C20.4548 14.1302 19.0602 14.3516 18.04 15.0723C16.8047 15.9449 16.232 17.4609 16.338 19.5783C16.3716 20.2506 16.7477 22.296 17.3398 24.2359C17.6801 25.3509 18.043 26.2768 18.4184 26.9882C18.9507 27.9969 19.5203 28.5909 20.1597 28.8042C20.5182 28.9237 21.1694 29.0072 21.8544 28.4369C21.9412 28.542 22.0569 28.6465 22.2107 28.7435C22.4059 28.8666 22.6446 28.9672 22.883 29.0268C23.7422 29.2416 24.547 29.1879 25.2336 28.8868C25.2378 29.0089 25.241 29.1256 25.2438 29.2263C25.2484 29.3898 25.2529 29.55 25.2589 29.6998C25.2995 30.7131 25.3685 31.5009 25.5727 32.052C25.5839 32.0824 25.599 32.1286 25.6149 32.1775C25.7168 32.4895 25.8872 33.0118 26.3207 33.4209C26.7696 33.8445 27.3125 33.9745 27.8098 33.9745C28.0592 33.9745 28.2971 33.9418 28.5058 33.897C29.2498 33.7376 30.0947 33.4947 30.7059 32.6244C31.2838 31.8017 31.5647 30.5625 31.6155 28.61C31.6221 28.5548 31.6282 28.5021 31.6341 28.4518C31.638 28.4179 31.642 28.3832 31.6461 28.3486L31.7823 28.3606L31.8173 28.363C32.5751 28.3975 33.5016 28.2368 34.0706 27.9725C34.5203 27.7638 35.9611 27.0032 35.6218 25.9762Z" fill="black"/>
<path d="M34.3262 26.1759C32.0732 26.6407 31.9183 25.8779 31.9183 25.8779C34.2971 22.3481 35.2915 17.8675 34.4334 16.771C32.0922 13.7797 28.0396 15.1944 27.9719 15.2311L27.9502 15.235C27.505 15.1426 27.0069 15.0875 26.447 15.0784C25.4276 15.0617 24.6543 15.3457 24.0675 15.7906C24.0675 15.7906 16.8379 12.8124 17.1742 19.5364C17.2457 20.9669 19.2244 30.3602 21.5846 27.5229C22.4473 26.4855 23.2808 25.6083 23.2808 25.6083C23.6948 25.8833 24.1904 26.0236 24.7099 25.9732L24.7503 25.9389C24.7377 26.0677 24.7435 26.1937 24.7665 26.3429C24.1584 27.0222 24.3371 27.1415 23.1216 27.3917C21.8918 27.6451 22.6143 28.0964 23.086 28.2143C23.6579 28.3573 24.9809 28.5599 25.8749 27.3085L25.8392 27.4513C26.0775 27.6421 26.2447 28.6925 26.2167 29.6446C26.1887 30.5968 26.1699 31.2505 26.3577 31.7611C26.5454 32.2717 26.7325 33.4205 28.3303 33.0782C29.6654 32.7921 30.3573 32.0506 30.4535 30.8138C30.5218 29.9346 30.6764 30.0645 30.6862 29.2784L30.8102 28.9063C30.9531 27.7144 30.8329 27.3299 31.6554 27.5087L31.8553 27.5263C32.4607 27.5538 33.2531 27.4289 33.7182 27.2127C34.7196 26.748 35.3135 25.9721 34.3261 26.1759H34.3262Z" fill="#336791"/>
<path d="M24.4906 20.1761C24.2877 20.1479 24.1038 20.174 24.0107 20.2444C23.9584 20.2841 23.9422 20.33 23.9379 20.3616C23.9262 20.4453 23.9848 20.5379 24.0209 20.5856C24.1228 20.7207 24.2718 20.8136 24.4192 20.8341C24.4406 20.8371 24.4618 20.8385 24.4829 20.8385C24.7288 20.8385 24.9523 20.6471 24.972 20.5057C24.9967 20.3288 24.7398 20.2108 24.4906 20.1761Z" fill="white"/>
<path d="M31.2167 20.1817C31.1973 20.043 30.9504 20.0035 30.7162 20.036C30.4823 20.0686 30.2554 20.1742 30.2744 20.3132C30.2896 20.4214 30.4847 20.6059 30.7159 20.6059C30.7353 20.6059 30.755 20.6046 30.7749 20.6018C30.9291 20.5805 31.0423 20.4825 31.0961 20.426C31.178 20.34 31.2253 20.2441 31.2167 20.1817Z" fill="white"/>
<path d="M35.0759 26.1231C34.99 25.8634 34.7135 25.7797 34.2541 25.8746C32.8901 26.1561 32.4016 25.9611 32.2412 25.843C33.3014 24.2278 34.1736 22.2755 34.6441 20.4538C34.8671 19.591 34.9902 18.7896 35.0002 18.1365C35.0113 17.4195 34.8893 16.8927 34.6374 16.5709C33.6221 15.2736 32.132 14.5777 30.3282 14.5585C29.0881 14.5446 28.0404 14.862 27.8373 14.9512C27.4095 14.8448 26.9432 14.7795 26.4356 14.7712C25.5047 14.7561 24.7 14.979 24.0338 15.4333C23.7444 15.3256 22.9965 15.0689 22.0819 14.9215C20.5007 14.6669 19.2442 14.8598 18.3475 15.4951C17.2776 16.2531 16.7836 17.6081 16.8793 19.5223C16.9115 20.1664 17.2785 22.1476 17.8576 24.0449C18.6199 26.5422 19.4484 27.9559 20.3203 28.2467C20.4223 28.2807 20.54 28.3046 20.6698 28.3046C20.9878 28.3046 21.3777 28.1612 21.7834 27.6735C22.4573 26.8628 23.0864 26.1835 23.3183 25.9366C23.6611 26.1206 24.0375 26.2233 24.4227 26.2336C24.4234 26.2437 24.4244 26.2538 24.4253 26.2638C24.348 26.3555 24.2846 26.4358 24.2306 26.5043C23.9638 26.843 23.9083 26.9135 23.0494 27.0904C22.8051 27.1408 22.1561 27.2745 22.1467 27.7294C22.1363 28.2263 22.9137 28.435 23.0023 28.4572C23.3109 28.5344 23.6082 28.5726 23.8918 28.5726C24.5815 28.5725 25.1883 28.3459 25.6733 27.9073C25.6584 29.679 25.7323 31.4248 25.945 31.9567C26.1192 32.3921 26.5448 33.4563 27.8893 33.4562C28.0865 33.4562 28.3037 33.4333 28.5425 33.3821C29.9456 33.0812 30.5549 32.4611 30.7906 31.0939C30.9167 30.3633 31.1332 28.6185 31.235 27.6826C31.4498 27.7496 31.7265 27.7803 32.0255 27.7802C32.6491 27.7802 33.3687 27.6477 33.82 27.4383C34.3269 27.2028 35.2418 26.6251 35.0759 26.1231ZM31.7346 19.7988C31.7299 20.0751 31.6919 20.326 31.6516 20.5878C31.6082 20.8694 31.5633 21.1605 31.552 21.514C31.5409 21.8579 31.5838 22.2155 31.6254 22.5613C31.7093 23.2597 31.7955 23.9788 31.462 24.6884C31.4102 24.5963 31.3602 24.4959 31.3143 24.3847C31.2729 24.2843 31.1829 24.1229 31.0583 23.8995C30.5735 23.0301 29.4383 20.9943 30.0194 20.1635C30.1925 19.9162 30.6318 19.662 31.7346 19.7988ZM30.3979 15.118C32.0141 15.1537 33.2925 15.7584 34.1977 16.915C34.892 17.8022 34.1275 21.8391 31.9144 25.3217C31.8925 25.2939 31.8703 25.2659 31.8472 25.2372C31.8381 25.2256 31.8287 25.214 31.8193 25.2021C32.3911 24.2576 32.2793 23.3232 32.1798 22.4947C32.1389 22.1547 32.1003 21.8335 32.1101 21.5319C32.1202 21.2121 32.1625 20.938 32.2034 20.6728C32.2537 20.346 32.3048 20.008 32.2907 19.6094C32.3012 19.5676 32.3054 19.5182 32.2999 19.4596C32.2639 19.0773 31.8276 17.9335 30.9382 16.8981C30.4517 16.3319 29.7422 15.6982 28.7735 15.2707C29.1901 15.1844 29.76 15.1038 30.3979 15.118ZM21.3541 27.3165C20.9071 27.8539 20.5984 27.7509 20.497 27.7171C19.8355 27.4965 19.0682 26.0986 18.3916 23.882C17.8061 21.9639 17.464 20.0352 17.4369 19.4944C17.3514 17.784 17.766 16.5919 18.6693 15.9513C20.1393 14.9088 22.5562 15.5328 23.5273 15.8493C23.5133 15.863 23.4988 15.8759 23.485 15.8899C21.8914 17.4993 21.9292 20.2491 21.9331 20.4171C21.933 20.482 21.9384 20.5738 21.9459 20.7001C21.9733 21.1625 22.0243 22.0233 21.888 22.9981C21.7613 23.9039 22.0405 24.7906 22.6539 25.4306C22.7174 25.4968 22.7837 25.5591 22.8522 25.6176C22.5791 25.91 21.9857 26.5567 21.3541 27.3165ZM23.057 25.0443C22.5626 24.5284 22.3381 23.8109 22.4409 23.0754C22.5849 22.0457 22.5317 21.1488 22.5032 20.667C22.4992 20.5996 22.4957 20.5406 22.4935 20.4939C22.7264 20.2875 23.8052 19.7094 24.5746 19.8857C24.9257 19.9662 25.1396 20.2052 25.2285 20.6165C25.6889 22.7455 25.2895 23.6328 24.9686 24.3459C24.9024 24.4928 24.8399 24.6316 24.7866 24.7753L24.7452 24.8864C24.6405 25.1671 24.5431 25.4282 24.4827 25.6761C23.9571 25.6745 23.4458 25.45 23.057 25.0443ZM23.1377 27.9155C22.9843 27.8772 22.8462 27.8106 22.7652 27.7554C22.8329 27.7235 22.9533 27.6803 23.162 27.6373C24.1724 27.4292 24.3284 27.2824 24.6692 26.8498C24.7474 26.7506 24.8359 26.6381 24.9585 26.5012L24.9587 26.501C25.1414 26.2965 25.2249 26.3311 25.3764 26.394C25.4992 26.4448 25.6188 26.5987 25.6673 26.7681C25.6903 26.8481 25.7161 27 25.6317 27.1181C24.9199 28.1148 23.8827 28.1019 23.1377 27.9155ZM28.4255 32.8362C27.1894 33.101 26.7518 32.4703 26.4634 31.7494C26.2772 31.2839 26.1858 29.1849 26.2507 26.867C26.2515 26.8361 26.2471 26.8063 26.2386 26.7783C26.2312 26.7243 26.2199 26.6696 26.2041 26.6145C26.1075 26.2773 25.8723 25.9951 25.5902 25.8782C25.4781 25.8317 25.2723 25.7465 25.025 25.8097C25.0777 25.5925 25.1692 25.3472 25.2683 25.0815L25.3099 24.9697C25.3568 24.8437 25.4155 24.7132 25.4777 24.575C25.8135 23.8289 26.2734 22.807 25.7743 20.4984C25.5873 19.6338 24.9629 19.2116 24.0164 19.3096C23.4489 19.3683 22.9298 19.5973 22.6708 19.7286C22.6151 19.7568 22.5642 19.784 22.5167 19.8106C22.5889 18.9393 22.862 17.3112 23.8834 16.281C24.5264 15.6325 25.3829 15.3122 26.4264 15.3294C28.4825 15.3631 29.8009 16.4183 30.545 17.2976C31.1862 18.0553 31.5334 18.8185 31.672 19.2301C30.63 19.1242 29.9212 19.3299 29.5619 19.8435C28.7804 20.9607 29.9896 23.1293 30.5707 24.1714C30.6773 24.3625 30.7693 24.5275 30.7982 24.5976C30.9874 25.0563 31.2324 25.3625 31.4113 25.586C31.4661 25.6545 31.5193 25.7209 31.5598 25.7789C31.2442 25.8699 30.6773 26.0801 30.7289 27.131C30.6873 27.6583 30.391 30.1269 30.2405 30.9991C30.0418 32.1513 29.6178 32.5806 28.4255 32.8362ZM33.5849 26.9319C33.2622 27.0817 32.7221 27.1941 32.2091 27.2182C31.6424 27.2447 31.3539 27.1547 31.2861 27.0993C31.2542 26.4445 31.498 26.3761 31.7559 26.3036C31.7965 26.2922 31.836 26.2812 31.8742 26.2678C31.8979 26.2871 31.9239 26.3063 31.9523 26.325C32.4078 26.6257 33.2202 26.6581 34.367 26.4214C34.3712 26.4205 34.3754 26.4197 34.3796 26.4188C34.225 26.5635 33.9602 26.7576 33.5849 26.9319Z" fill="white"/>
</g>
<rect width="90" height="40" transform="translate(46 4)" fill="#F2F2F2"/>
<path d="M57.6484 24.9463H54.8115V24.2285H57.6484C58.2409 24.2285 58.7217 24.1328 59.0908 23.9414C59.4645 23.7454 59.7357 23.4811 59.9043 23.1484C60.0775 22.8158 60.1641 22.4421 60.1641 22.0273C60.1641 21.6217 60.0775 21.248 59.9043 20.9062C59.7357 20.5645 59.4645 20.291 59.0908 20.0859C58.7217 19.8763 58.2409 19.7715 57.6484 19.7715H55.1055V29H54.2646V19.0469H57.6484C58.3776 19.0469 58.9906 19.1722 59.4873 19.4229C59.9886 19.6735 60.3669 20.0221 60.6221 20.4688C60.8773 20.9154 61.0049 21.4303 61.0049 22.0137C61.0049 22.6243 60.8773 23.1507 60.6221 23.5928C60.3669 24.0303 59.9909 24.3652 59.4941 24.5977C58.9974 24.8301 58.3822 24.9463 57.6484 24.9463ZM62.4333 25.418V25.1924C62.4333 24.6546 62.5108 24.1579 62.6657 23.7021C62.8207 23.2464 63.0417 22.8522 63.3288 22.5195C63.6205 22.1868 63.9691 21.9294 64.3747 21.7471C64.7803 21.5602 65.2315 21.4668 65.7282 21.4668C66.2295 21.4668 66.683 21.5602 67.0886 21.7471C67.4942 21.9294 67.8428 22.1868 68.1345 22.5195C68.4262 22.8522 68.6495 23.2464 68.8044 23.7021C68.9594 24.1579 69.0368 24.6546 69.0368 25.1924V25.418C69.0368 25.9557 68.9594 26.4525 68.8044 26.9082C68.6495 27.3594 68.4262 27.7513 68.1345 28.084C67.8474 28.4167 67.501 28.6764 67.0954 28.8633C66.6898 29.0456 66.2387 29.1367 65.7419 29.1367C65.2406 29.1367 64.7872 29.0456 64.3816 28.8633C63.976 28.6764 63.6273 28.4167 63.3357 28.084C63.044 27.7513 62.8207 27.3594 62.6657 26.9082C62.5108 26.4525 62.4333 25.9557 62.4333 25.418ZM63.2468 25.1924V25.418C63.2468 25.8236 63.3015 26.2087 63.4109 26.5732C63.5202 26.9333 63.6797 27.2546 63.8894 27.5371C64.099 27.8151 64.3588 28.0339 64.6687 28.1934C64.9786 28.3529 65.3363 28.4326 65.7419 28.4326C66.143 28.4326 66.4961 28.3529 66.8015 28.1934C67.1114 28.0339 67.3711 27.8151 67.5808 27.5371C67.7904 27.2546 67.9476 26.9333 68.0525 26.5732C68.1618 26.2087 68.2165 25.8236 68.2165 25.418V25.1924C68.2165 24.7913 68.1618 24.4108 68.0525 24.0508C67.9476 23.6908 67.7881 23.3695 67.5739 23.0869C67.3643 22.8044 67.1045 22.5811 66.7946 22.417C66.4848 22.2529 66.1293 22.1709 65.7282 22.1709C65.3272 22.1709 64.9717 22.2529 64.6618 22.417C64.3565 22.5811 64.0967 22.8044 63.8825 23.0869C63.6729 23.3695 63.5134 23.6908 63.404 24.0508C63.2992 24.4108 63.2468 24.7913 63.2468 25.1924ZM75.4418 27.1133C75.4418 26.9128 75.3917 26.7145 75.2914 26.5186C75.1912 26.3226 74.9975 26.1426 74.7104 25.9785C74.4278 25.8145 74.0108 25.6755 73.4594 25.5615C73.0493 25.4704 72.6824 25.3678 72.3588 25.2539C72.0398 25.14 71.7709 25.0033 71.5522 24.8438C71.3334 24.6842 71.1671 24.4928 71.0532 24.2695C70.9392 24.0462 70.8823 23.7819 70.8823 23.4766C70.8823 23.2031 70.9415 22.9456 71.06 22.7041C71.183 22.458 71.3562 22.2438 71.5795 22.0615C71.8074 21.8747 72.0808 21.7288 72.3998 21.624C72.7234 21.5192 73.0857 21.4668 73.4868 21.4668C74.0564 21.4668 74.544 21.5648 74.9496 21.7607C75.3598 21.9521 75.672 22.2142 75.8862 22.5469C76.1049 22.8796 76.2143 23.2555 76.2143 23.6748H75.4008C75.4008 23.4196 75.3256 23.1781 75.1752 22.9502C75.0294 22.7223 74.8129 22.5355 74.5258 22.3896C74.2433 22.2438 73.8969 22.1709 73.4868 22.1709C73.0629 22.1709 72.7189 22.2347 72.4545 22.3623C72.1902 22.4899 71.9965 22.6517 71.8735 22.8477C71.755 23.0436 71.6957 23.2464 71.6957 23.4561C71.6957 23.6201 71.7208 23.7705 71.7709 23.9072C71.8256 24.0394 71.9213 24.1624 72.058 24.2764C72.1993 24.3903 72.3998 24.4974 72.6596 24.5977C72.9194 24.6979 73.2566 24.7959 73.6713 24.8916C74.2683 25.0238 74.756 25.1855 75.1342 25.377C75.517 25.5638 75.7996 25.7962 75.9819 26.0742C76.1642 26.3477 76.2553 26.6803 76.2553 27.0723C76.2553 27.3776 76.1915 27.6579 76.0639 27.9131C75.9363 28.1637 75.7517 28.3802 75.5102 28.5625C75.2732 28.7448 74.9861 28.8861 74.6489 28.9863C74.3162 29.0866 73.9425 29.1367 73.5278 29.1367C72.9034 29.1367 72.3748 29.0342 71.9418 28.8291C71.5134 28.6195 71.1876 28.346 70.9643 28.0088C70.7455 27.667 70.6362 27.3047 70.6362 26.9219H71.4496C71.477 27.3047 71.5978 27.6077 71.812 27.8311C72.0261 28.0498 72.2882 28.2048 72.5981 28.2959C72.9125 28.387 73.2224 28.4326 73.5278 28.4326C73.947 28.4326 74.298 28.3711 74.5805 28.248C74.8631 28.125 75.0773 27.9632 75.2231 27.7627C75.3689 27.5622 75.4418 27.3457 75.4418 27.1133ZM81.1838 21.6035V22.2734H77.4787V21.6035H81.1838ZM78.839 19.7031H79.6525V27.2021C79.6525 27.5439 79.6981 27.8014 79.7892 27.9746C79.8804 28.1478 79.9989 28.264 80.1447 28.3232C80.2905 28.3825 80.4477 28.4121 80.6164 28.4121C80.7394 28.4121 80.8579 28.4053 80.9718 28.3916C81.0858 28.3734 81.1883 28.3551 81.2795 28.3369L81.3136 29.0273C81.2134 29.0592 81.0835 29.0843 80.924 29.1025C80.7645 29.1253 80.605 29.1367 80.4455 29.1367C80.131 29.1367 79.853 29.0798 79.6115 28.9658C79.3699 28.8473 79.1808 28.6468 79.0441 28.3643C78.9074 28.0771 78.839 27.6875 78.839 27.1953V19.7031ZM88.0468 21.6035H88.8055V28.8701C88.8055 29.5127 88.6825 30.0641 88.4364 30.5244C88.1949 30.9847 87.8508 31.3379 87.4042 31.584C86.9621 31.8301 86.4403 31.9531 85.8388 31.9531C85.5334 31.9531 85.219 31.9053 84.8954 31.8096C84.5764 31.7184 84.2733 31.5771 83.9862 31.3857C83.7037 31.1989 83.4621 30.9665 83.2616 30.6885L83.7196 30.1895C84.0204 30.554 84.3417 30.8206 84.6835 30.9893C85.0253 31.1624 85.3944 31.249 85.7909 31.249C86.2603 31.249 86.6568 31.1556 86.9804 30.9688C87.3085 30.7819 87.5568 30.513 87.7255 30.1621C87.8986 29.8112 87.9852 29.3896 87.9852 28.8975V23.2305L88.0468 21.6035ZM82.8514 25.377V25.2334C82.8514 24.6592 82.9152 24.1419 83.0429 23.6816C83.175 23.2168 83.3641 22.8203 83.6102 22.4922C83.8563 22.1595 84.1548 21.9066 84.5057 21.7334C84.8612 21.5557 85.2623 21.4668 85.7089 21.4668C86.1373 21.4668 86.5178 21.5374 86.8505 21.6787C87.1832 21.82 87.4703 22.0228 87.7118 22.2871C87.9533 22.5514 88.147 22.8659 88.2929 23.2305C88.4432 23.5951 88.5526 24.0007 88.621 24.4473V26.2725C88.5663 26.6917 88.466 27.0768 88.3202 27.4277C88.1744 27.7741 87.9807 28.0771 87.7391 28.3369C87.4976 28.5921 87.2059 28.7904 86.8641 28.9316C86.5269 29.0684 86.1373 29.1367 85.6952 29.1367C85.2531 29.1367 84.8567 29.0456 84.5057 28.8633C84.1548 28.681 83.8563 28.4235 83.6102 28.0908C83.3641 27.7536 83.175 27.3548 83.0429 26.8945C82.9152 26.4342 82.8514 25.9284 82.8514 25.377ZM83.6718 25.2334V25.377C83.6718 25.8099 83.7151 26.2109 83.8016 26.5801C83.8882 26.9492 84.0204 27.2705 84.1981 27.5439C84.3759 27.8174 84.6014 28.0316 84.8749 28.1865C85.1483 28.3415 85.4696 28.4189 85.8388 28.4189C86.3082 28.4189 86.7024 28.3301 87.0214 28.1523C87.3404 27.9701 87.5933 27.7308 87.7802 27.4346C87.967 27.1338 88.1037 26.8057 88.1903 26.4502V24.3242C88.1402 24.0827 88.0627 23.8366 87.9579 23.5859C87.8576 23.3353 87.7164 23.1051 87.5341 22.8955C87.3563 22.6813 87.1285 22.5104 86.8505 22.3828C86.577 22.2507 86.2443 22.1846 85.8524 22.1846C85.4787 22.1846 85.1529 22.262 84.8749 22.417C84.6014 22.5719 84.3759 22.7884 84.1981 23.0664C84.0204 23.3398 83.8882 23.6611 83.8016 24.0303C83.7151 24.3994 83.6718 24.8005 83.6718 25.2334ZM92.0387 22.8271V29H91.2252V21.6035H92.0182L92.0387 22.8271ZM94.6568 21.5488L94.6363 22.3008C94.5452 22.2871 94.4563 22.2757 94.3697 22.2666C94.2831 22.2575 94.1897 22.2529 94.0895 22.2529C93.734 22.2529 93.4218 22.319 93.1529 22.4512C92.8886 22.5788 92.6653 22.7588 92.483 22.9912C92.3007 23.2191 92.1617 23.488 92.066 23.7979C91.9703 24.1032 91.9156 24.4313 91.902 24.7822L91.6012 24.8984C91.6012 24.4154 91.6513 23.9665 91.7516 23.5518C91.8518 23.137 92.0045 22.7747 92.2096 22.4648C92.4192 22.1504 92.6813 21.9066 92.9957 21.7334C93.3147 21.5557 93.6884 21.4668 94.1168 21.4668C94.2216 21.4668 94.3242 21.4759 94.4244 21.4941C94.5292 21.5078 94.6067 21.526 94.6568 21.5488ZM98.9427 29.1367C98.4596 29.1367 98.0153 29.0479 97.6097 28.8701C97.2086 28.6924 96.8577 28.4417 96.557 28.1182C96.2607 27.7946 96.0306 27.4118 95.8665 26.9697C95.707 26.5231 95.6273 26.0355 95.6273 25.5068V25.2129C95.6273 24.6432 95.7116 24.1283 95.8802 23.668C96.0488 23.2077 96.2812 22.8135 96.5775 22.4854C96.8737 22.1572 97.2109 21.9066 97.5892 21.7334C97.972 21.5557 98.373 21.4668 98.7923 21.4668C99.2617 21.4668 99.6787 21.5511 100.043 21.7197C100.408 21.8838 100.713 22.1185 100.959 22.4238C101.21 22.7246 101.399 23.0824 101.527 23.4971C101.654 23.9072 101.718 24.3607 101.718 24.8574V25.3564H96.1195V24.6592H100.905V24.5635C100.895 24.1488 100.811 23.7614 100.652 23.4014C100.497 23.0368 100.264 22.7406 99.9544 22.5127C99.6445 22.2848 99.2571 22.1709 98.7923 22.1709C98.446 22.1709 98.1269 22.2438 97.8353 22.3896C97.5482 22.5355 97.2998 22.7451 97.0902 23.0186C96.8851 23.2874 96.7256 23.6087 96.6116 23.9824C96.5023 24.3516 96.4476 24.7617 96.4476 25.2129V25.5068C96.4476 25.917 96.5068 26.2998 96.6253 26.6553C96.7484 27.0062 96.9215 27.3161 97.1448 27.585C97.3727 27.8538 97.6416 28.0635 97.9515 28.2139C98.2614 28.3643 98.6032 28.4395 98.9769 28.4395C99.4144 28.4395 99.8017 28.3597 100.139 28.2002C100.476 28.0361 100.779 27.7786 101.048 27.4277L101.561 27.8242C101.401 28.0612 101.201 28.2799 100.959 28.4805C100.722 28.681 100.437 28.8405 100.105 28.959C99.7721 29.0775 99.3848 29.1367 98.9427 29.1367ZM109.436 26.5527C109.436 26.2793 109.39 26.0355 109.299 25.8213C109.208 25.6071 109.057 25.4157 108.848 25.2471C108.643 25.0739 108.365 24.9144 108.014 24.7686C107.667 24.6182 107.234 24.4701 106.715 24.3242C106.218 24.1829 105.769 24.028 105.368 23.8594C104.967 23.6908 104.623 23.4971 104.336 23.2783C104.053 23.0596 103.837 22.8044 103.687 22.5127C103.536 22.2165 103.461 21.8724 103.461 21.4805C103.461 21.0977 103.543 20.749 103.707 20.4346C103.871 20.1201 104.101 19.849 104.397 19.6211C104.698 19.3932 105.051 19.2178 105.457 19.0947C105.867 18.9717 106.316 18.9102 106.804 18.9102C107.501 18.9102 108.103 19.0423 108.608 19.3066C109.119 19.571 109.513 19.9287 109.791 20.3799C110.074 20.8265 110.215 21.3278 110.215 21.8838H109.374C109.374 21.4508 109.272 21.0658 109.066 20.7285C108.866 20.3867 108.574 20.1201 108.191 19.9287C107.813 19.7327 107.351 19.6348 106.804 19.6348C106.257 19.6348 105.797 19.7191 105.423 19.8877C105.054 20.0518 104.773 20.2728 104.582 20.5508C104.395 20.8242 104.302 21.1296 104.302 21.4668C104.302 21.7038 104.347 21.9225 104.439 22.123C104.53 22.319 104.678 22.5036 104.883 22.6768C105.092 22.8454 105.368 23.0049 105.71 23.1553C106.052 23.3011 106.473 23.4401 106.975 23.5723C107.503 23.7181 107.973 23.8799 108.383 24.0576C108.793 24.2354 109.139 24.4404 109.422 24.6729C109.704 24.9007 109.919 25.1673 110.064 25.4727C110.21 25.778 110.283 26.1335 110.283 26.5391C110.283 26.9447 110.197 27.3092 110.023 27.6328C109.855 27.9518 109.616 28.223 109.306 28.4463C109 28.6696 108.638 28.8405 108.219 28.959C107.804 29.0775 107.351 29.1367 106.858 29.1367C106.416 29.1367 105.977 29.0798 105.539 28.9658C105.102 28.8519 104.701 28.6764 104.336 28.4395C103.976 28.1979 103.687 27.888 103.468 27.5098C103.254 27.1315 103.147 26.6803 103.147 26.1562H103.981C103.981 26.5755 104.065 26.9287 104.233 27.2158C104.402 27.5029 104.625 27.7354 104.903 27.9131C105.186 28.0908 105.496 28.2207 105.833 28.3027C106.175 28.3802 106.517 28.4189 106.858 28.4189C107.383 28.4189 107.836 28.3415 108.219 28.1865C108.606 28.0316 108.905 27.8151 109.114 27.5371C109.328 27.2546 109.436 26.9264 109.436 26.5527ZM117.303 28.2139L119.58 30.21L119.006 30.7432L116.743 28.7676L117.303 28.2139ZM119.703 23.4902V24.5566C119.703 25.2539 119.612 25.8851 119.429 26.4502C119.247 27.0107 118.987 27.4915 118.65 27.8926C118.313 28.2936 117.905 28.6012 117.427 28.8154C116.953 29.0296 116.422 29.1367 115.834 29.1367C115.255 29.1367 114.726 29.0296 114.248 28.8154C113.774 28.6012 113.364 28.2936 113.017 27.8926C112.676 27.4915 112.411 27.0107 112.224 26.4502C112.042 25.8851 111.951 25.2539 111.951 24.5566V23.4902C111.951 22.793 112.042 22.1641 112.224 21.6035C112.411 21.0384 112.676 20.5553 113.017 20.1543C113.359 19.7533 113.767 19.4456 114.241 19.2314C114.715 19.0173 115.241 18.9102 115.82 18.9102C116.408 18.9102 116.939 19.0173 117.413 19.2314C117.891 19.4456 118.302 19.7533 118.643 20.1543C118.985 20.5553 119.247 21.0384 119.429 21.6035C119.612 22.1641 119.703 22.793 119.703 23.4902ZM118.869 24.5566V23.4766C118.869 22.8887 118.801 22.36 118.664 21.8906C118.527 21.4212 118.327 21.0202 118.062 20.6875C117.803 20.3548 117.483 20.0996 117.105 19.9219C116.732 19.7441 116.303 19.6553 115.82 19.6553C115.351 19.6553 114.929 19.7441 114.555 19.9219C114.182 20.0996 113.863 20.3548 113.598 20.6875C113.334 21.0202 113.131 21.4212 112.99 21.8906C112.853 22.36 112.785 22.8887 112.785 23.4766V24.5566C112.785 25.1491 112.856 25.6823 112.997 26.1562C113.138 26.6257 113.341 27.029 113.605 27.3662C113.87 27.6989 114.189 27.9541 114.562 28.1318C114.941 28.3096 115.364 28.3984 115.834 28.3984C116.317 28.3984 116.745 28.3096 117.119 28.1318C117.497 27.9541 117.816 27.6989 118.076 27.3662C118.336 27.029 118.532 26.6257 118.664 26.1562C118.801 25.6823 118.869 25.1491 118.869 24.5566ZM127.892 28.2822V29H122.731V28.2822H127.892ZM122.977 19.0469V29H122.136V19.0469H122.977Z" fill="black"/>
</g>
</g>
<defs>
<filter id="filter0_d_2_210" x="0" y="0" width="142" height="52" filterUnits="userSpaceOnUse" color-interpolation-filters="sRGB">
<feFlood flood-opacity="0" result="BackgroundImageFix"/>
<feColorMatrix in="SourceAlpha" type="matrix" values="0 0 0 0 0 0 0 0 0 0 0 0 0 0 0 0 0 0 127 0" result="hardAlpha"/>
<feOffset dy="2"/>
<feGaussianBlur stdDeviation="3"/>
<feComposite in2="hardAlpha" operator="out"/>
<feColorMatrix type="matrix" values="0 0 0 0 0 0 0 0 0 0 0 0 0 0 0 0 0 0 0.25 0"/>
<feBlend mode="normal" in2="BackgroundImageFix" result="effect1_dropShadow_2_210"/>
<feBlend mode="normal" in="SourceGraphic" in2="effect1_dropShadow_2_210" result="shape"/>
</filter>
<clipPath id="clip0_2_210">
<rect x="6" y="4" width="130" height="40" rx="6" fill="white"/>
</clipPath>
<clipPath id="clip1_2_210">
<rect width="19.3939" height="20" fill="white" transform="translate(16.303 14)"/>
</clipPath>
</defs>
</svg>
