<svg width="142" height="52" viewBox="0 0 142 52" fill="none" xmlns="http://www.w3.org/2000/svg">
<g filter="url(#filter0_d_2_224)">
<g clip-path="url(#clip0_2_224)">
<rect width="40" height="40" transform="translate(6 4)" fill="#009EEB"/>
<g clip-path="url(#clip1_2_224)">
<path d="M30.0476 27.9125C30.822 27.8324 31.4094 27.1648 31.3827 26.3637C31.356 25.5626 30.6885 24.9217 29.8874 24.9217H29.834C29.0062 24.9484 28.3653 25.6427 28.392 26.4705C28.4187 26.8711 28.579 27.2182 28.8193 27.4586C27.9114 29.2477 26.5229 30.5562 24.4401 31.651C23.0248 32.3987 21.5562 32.6657 20.0876 32.4788C18.8859 32.3186 17.9514 31.7845 17.3639 30.9033C16.5094 29.5948 16.4293 28.1796 17.1503 26.7643C17.6576 25.7495 18.4587 25.0018 18.9661 24.628C18.8592 24.2808 18.699 23.6934 18.6189 23.2661C14.7471 26.07 15.1476 29.8619 16.3225 31.651C17.2037 32.9862 18.9928 33.814 20.9687 33.814C21.5028 33.814 22.0368 33.7606 22.5709 33.6271C25.9888 32.9595 28.579 30.93 30.0476 27.9125ZM34.7472 24.6013C32.7179 22.2247 29.7272 20.9162 26.3092 20.9162H25.882C25.6417 20.4355 25.1343 20.1151 24.5736 20.1151H24.5202C23.6924 20.1418 23.0515 20.8361 23.0782 21.6639C23.1049 22.465 23.7725 23.1059 24.5736 23.1059H24.627C25.2144 23.0792 25.7218 22.7053 25.9354 22.198H26.4161C28.4454 22.198 30.368 22.7854 32.1037 23.9337C33.4388 24.8149 34.4001 25.9632 34.9342 27.3517C35.3881 28.4733 35.3614 29.5681 34.8808 30.5028C34.1331 31.918 32.8781 32.6924 31.2225 32.6924C30.1544 32.6924 29.1397 32.372 28.6057 32.1317C28.3119 32.3987 27.7779 32.826 27.4041 33.093C28.5523 33.6271 29.7272 33.9208 30.8487 33.9208C33.4121 33.9208 35.308 32.5055 36.029 31.0902C36.8033 29.5414 36.7499 26.8711 34.7472 24.6013ZM21.1824 28.3665C21.2091 29.1676 21.8766 29.8085 22.6777 29.8085H22.7311C23.5589 29.7818 24.1997 29.0875 24.173 28.2597C24.1463 27.4586 23.4788 26.8177 22.6777 26.8177H22.6243C22.5709 26.8177 22.4908 26.8177 22.4374 26.8444C21.3426 25.0285 20.8886 23.0525 21.0489 20.9162C21.1557 19.314 21.6897 17.9254 22.6243 16.7772C23.3987 15.7891 24.894 15.3085 25.9087 15.2818C28.7392 15.2284 29.9408 18.7532 30.0209 20.1685C30.368 20.2486 30.9555 20.4355 31.356 20.5691C31.0356 16.2431 28.3653 14 25.8019 14C23.3987 14 21.1824 15.7357 20.3012 18.2993C19.0729 21.7173 19.8739 25.0018 21.3693 27.5921C21.2358 27.779 21.1557 28.0727 21.1824 28.3665Z" fill="#764ABC"/>
</g>
<rect width="90" height="40" transform="translate(46 4)" fill="#F2F2F2"/>
<path d="M72.2441 19.0469H75.4775C76.1657 19.0469 76.7627 19.1585 77.2686 19.3818C77.7744 19.6051 78.1641 19.9355 78.4375 20.373C78.7155 20.806 78.8545 21.3392 78.8545 21.9727C78.8545 22.4421 78.7542 22.8682 78.5537 23.251C78.3577 23.6338 78.0866 23.9551 77.7402 24.2148C77.3939 24.4701 76.9928 24.6455 76.5371 24.7412L76.2432 24.8506H72.791L72.7773 24.1328H75.6689C76.1885 24.1328 76.6214 24.0326 76.9678 23.832C77.3141 23.6315 77.5739 23.3672 77.7471 23.0391C77.9248 22.7064 78.0137 22.3509 78.0137 21.9727C78.0137 21.5215 77.9157 21.1318 77.7197 20.8037C77.5283 20.471 77.2435 20.2158 76.8652 20.0381C76.487 19.8604 76.0244 19.7715 75.4775 19.7715H73.085V29H72.2441V19.0469ZM78.3896 29L75.8125 24.5498L76.7148 24.543L79.2852 28.9111V29H78.3896ZM84.1111 29.1367C83.628 29.1367 83.1836 29.0479 82.778 28.8701C82.377 28.6924 82.0261 28.4417 81.7253 28.1182C81.4291 27.7946 81.1989 27.4118 81.0349 26.9697C80.8754 26.5231 80.7956 26.0355 80.7956 25.5068V25.2129C80.7956 24.6432 80.8799 24.1283 81.0486 23.668C81.2172 23.2077 81.4496 22.8135 81.7458 22.4854C82.042 22.1572 82.3793 21.9066 82.7575 21.7334C83.1404 21.5557 83.5414 21.4668 83.9607 21.4668C84.4301 21.4668 84.8471 21.5511 85.2116 21.7197C85.5762 21.8838 85.8816 22.1185 86.1277 22.4238C86.3783 22.7246 86.5674 23.0824 86.695 23.4971C86.8226 23.9072 86.8864 24.3607 86.8864 24.8574V25.3564H81.2878V24.6592H86.073V24.5635C86.0639 24.1488 85.9795 23.7614 85.82 23.4014C85.6651 23.0368 85.4327 22.7406 85.1228 22.5127C84.8129 22.2848 84.4255 22.1709 83.9607 22.1709C83.6143 22.1709 83.2953 22.2438 83.0036 22.3896C82.7165 22.5355 82.4682 22.7451 82.2585 23.0186C82.0534 23.2874 81.8939 23.6087 81.78 23.9824C81.6706 24.3516 81.6159 24.7617 81.6159 25.2129V25.5068C81.6159 25.917 81.6752 26.2998 81.7937 26.6553C81.9167 27.0062 82.0899 27.3161 82.3132 27.585C82.5411 27.8538 82.8099 28.0635 83.1198 28.2139C83.4297 28.3643 83.7715 28.4395 84.1452 28.4395C84.5827 28.4395 84.9701 28.3597 85.3073 28.2002C85.6446 28.0361 85.9476 27.7786 86.2165 27.4277L86.7292 27.8242C86.5697 28.0612 86.3692 28.2799 86.1277 28.4805C85.8907 28.681 85.6058 28.8405 85.2732 28.959C84.9405 29.0775 84.5531 29.1367 84.1111 29.1367ZM93.5854 27.5645V18.5H94.4057V29H93.6401L93.5854 27.5645ZM88.4516 25.377V25.2334C88.4516 24.6592 88.5177 24.1419 88.6498 23.6816C88.782 23.2168 88.9711 22.8203 89.2172 22.4922C89.4679 22.1595 89.7687 21.9066 90.1196 21.7334C90.4705 21.5557 90.867 21.4668 91.309 21.4668C91.742 21.4668 92.1248 21.5374 92.4575 21.6787C92.7901 21.82 93.075 22.0228 93.312 22.2871C93.5535 22.5514 93.7472 22.8659 93.893 23.2305C94.0434 23.5951 94.1528 24.0007 94.2211 24.4473V26.2725C94.1664 26.6917 94.0662 27.0768 93.9204 27.4277C93.7745 27.7741 93.5808 28.0771 93.3393 28.3369C93.0978 28.5921 92.8061 28.7904 92.4643 28.9316C92.1271 29.0684 91.7374 29.1367 91.2954 29.1367C90.8579 29.1367 90.4636 29.0456 90.1127 28.8633C89.7618 28.681 89.4633 28.4235 89.2172 28.0908C88.9711 27.7536 88.782 27.3548 88.6498 26.8945C88.5177 26.4342 88.4516 25.9284 88.4516 25.377ZM89.2719 25.2334V25.377C89.2719 25.8099 89.3152 26.2109 89.4018 26.5801C89.4884 26.9492 89.6205 27.2705 89.7983 27.5439C89.976 27.8174 90.2016 28.0316 90.475 28.1865C90.7485 28.3415 91.072 28.4189 91.4457 28.4189C91.9151 28.4189 92.3093 28.3301 92.6284 28.1523C92.9474 27.9701 93.2026 27.7308 93.394 27.4346C93.5854 27.1338 93.7244 26.8057 93.811 26.4502V24.3242C93.7563 24.0827 93.6765 23.8366 93.5717 23.5859C93.4669 23.3353 93.3233 23.1051 93.1411 22.8955C92.9633 22.6813 92.7355 22.5104 92.4575 22.3828C92.184 22.2507 91.8513 22.1846 91.4594 22.1846C91.0812 22.1846 90.7553 22.262 90.4819 22.417C90.2084 22.5719 89.9806 22.7884 89.7983 23.0664C89.6205 23.3398 89.4884 23.6611 89.4018 24.0303C89.3152 24.3994 89.2719 24.8005 89.2719 25.2334ZM101.576 27.291V21.6035H102.397V29H101.611L101.576 27.291ZM101.727 25.9238L102.151 25.9102C102.151 26.375 102.096 26.8034 101.986 27.1953C101.877 27.5872 101.706 27.929 101.474 28.2207C101.241 28.5124 100.941 28.738 100.571 28.8975C100.202 29.057 99.758 29.1367 99.2384 29.1367C98.8784 29.1367 98.548 29.0866 98.2472 28.9863C97.951 28.8815 97.6958 28.7174 97.4816 28.4941C97.2674 28.2708 97.1011 27.9814 96.9826 27.626C96.8686 27.2705 96.8117 26.8398 96.8117 26.334V21.6035H97.6252V26.3477C97.6252 26.7441 97.6685 27.0745 97.755 27.3389C97.8462 27.6032 97.9692 27.8151 98.1242 27.9746C98.2837 28.1341 98.466 28.248 98.6711 28.3164C98.8761 28.3848 99.0972 28.4189 99.3341 28.4189C99.9357 28.4189 100.41 28.3027 100.756 28.0703C101.107 27.8379 101.355 27.5326 101.501 27.1543C101.652 26.7715 101.727 26.3613 101.727 25.9238ZM105.138 21.6035L107.134 24.5908L109.137 21.6035H110.107L107.599 25.2266L110.21 29H109.253L107.141 25.876L105.035 29H104.078L106.689 25.2266L104.181 21.6035H105.138Z" fill="black"/>
</g>
</g>
<defs>
<filter id="filter0_d_2_224" x="0" y="0" width="142" height="52" filterUnits="userSpaceOnUse" color-interpolation-filters="sRGB">
<feFlood flood-opacity="0" result="BackgroundImageFix"/>
<feColorMatrix in="SourceAlpha" type="matrix" values="0 0 0 0 0 0 0 0 0 0 0 0 0 0 0 0 0 0 127 0" result="hardAlpha"/>
<feOffset dy="2"/>
<feGaussianBlur stdDeviation="3"/>
<feComposite in2="hardAlpha" operator="out"/>
<feColorMatrix type="matrix" values="0 0 0 0 0 0 0 0 0 0 0 0 0 0 0 0 0 0 0.25 0"/>
<feBlend mode="normal" in2="BackgroundImageFix" result="effect1_dropShadow_2_224"/>
<feBlend mode="normal" in="SourceGraphic" in2="effect1_dropShadow_2_224" result="shape"/>
</filter>
<clipPath id="clip0_2_224">
<rect x="6" y="4" width="130" height="40" rx="6" fill="white"/>
</clipPath>
<clipPath id="clip1_2_224">
<rect width="20.9836" height="20" fill="white" transform="translate(15.5082 14)"/>
</clipPath>
</defs>
</svg>
