<svg width="142" height="52" viewBox="0 0 142 52" fill="none" xmlns="http://www.w3.org/2000/svg">
<g filter="url(#filter0_d_2_238)">
<g clip-path="url(#clip0_2_238)">
<rect width="40" height="40" transform="translate(6 4)" fill="#009EEB"/>
<g clip-path="url(#clip1_2_238)">
<path d="M35.6126 25.5118C34.6849 25.5167 33.8786 25.7401 33.2034 26.0704C32.9557 25.5798 32.708 25.1427 32.6643 24.8221C32.6157 24.4481 32.5574 24.2198 32.6157 23.7729C32.674 23.326 32.9363 22.6897 32.9314 22.6412C32.9266 22.5926 32.8731 22.3643 32.3388 22.3594C31.8045 22.3546 31.3431 22.4614 31.2896 22.6023C31.2362 22.7432 31.1342 23.0638 31.0662 23.3941C30.9739 23.8798 29.9976 25.6138 29.439 26.5222C29.2593 26.1676 29.1038 25.8567 29.0698 25.609C29.0213 25.235 28.963 25.0067 29.0213 24.5598C29.0796 24.1129 29.3419 23.4766 29.337 23.4281C29.3321 23.3795 29.2787 23.1512 28.7444 23.1463C28.2101 23.1415 27.7487 23.2483 27.6952 23.3892C27.6418 23.5301 27.5835 23.8604 27.4718 24.1809C27.3601 24.5015 26.0632 27.3965 25.7232 28.1445C25.5483 28.5282 25.3977 28.8342 25.2909 29.0431C25.2909 29.0431 25.286 29.0577 25.2714 29.082C25.1791 29.2617 25.1257 29.3588 25.1257 29.3588C25.1257 29.3588 25.1257 29.3588 25.1257 29.3637C25.0528 29.4948 24.9751 29.6163 24.9363 29.6163C24.9071 29.6163 24.8537 29.2665 24.946 28.7905C25.1403 27.7851 25.6017 26.221 25.5969 26.1676C25.5969 26.1384 25.6843 25.8664 25.2957 25.7256C24.9168 25.5847 24.7808 25.8179 24.7468 25.8179C24.7128 25.8179 24.6885 25.9004 24.6885 25.9004C24.6885 25.9004 25.1111 24.1421 23.8822 24.1421C23.1148 24.1421 22.0559 24.9824 21.5313 25.7401C21.201 25.9199 20.4967 26.3036 19.7438 26.7165C19.4572 26.8767 19.1609 27.037 18.8841 27.1876C18.8646 27.1682 18.8452 27.1439 18.8258 27.1245C17.3394 25.5361 14.5902 24.4141 14.7068 22.2817C14.7505 21.5046 15.0176 19.4645 19.9867 16.9873C24.0765 14.9715 27.3309 15.5301 27.8944 16.7687C28.7007 18.5367 26.1506 21.8203 21.9247 22.2963C20.3121 22.476 19.4669 21.8543 19.2532 21.6211C19.0298 21.3783 18.9958 21.3637 18.9132 21.4123C18.7772 21.4851 18.8646 21.7037 18.9132 21.83C19.0395 22.1603 19.5592 22.7432 20.4384 23.0298C21.2156 23.2823 23.1051 23.4232 25.3929 22.5392C27.9527 21.5483 29.9539 18.7942 29.3661 16.4869C28.7784 14.1457 24.8926 13.3734 21.2156 14.68C19.0298 15.4572 16.6594 16.6812 14.9545 18.2744C12.929 20.1688 12.6084 21.8154 12.7395 22.5052C13.2107 24.9533 16.5865 26.5465 17.9369 27.7268C17.8689 27.7656 17.8057 27.7996 17.7523 27.8288C17.0771 28.1639 14.5028 29.5094 13.8616 30.9326C13.133 32.5452 13.9782 33.7013 14.5368 33.8567C16.2708 34.3376 18.0535 33.473 19.0103 32.0449C19.9672 30.6169 19.8507 28.7614 19.4086 27.9114C19.4038 27.9016 19.3989 27.8919 19.3892 27.8822C19.5641 27.7802 19.7438 27.6733 19.9187 27.5713C20.2635 27.3673 20.6035 27.1779 20.895 27.0225C20.7298 27.4742 20.6084 28.0134 20.5501 28.7905C20.4773 29.7037 20.8513 30.8889 21.3419 31.3552C21.5604 31.5592 21.8179 31.5641 21.983 31.5641C22.5562 31.5641 22.8136 31.088 23.1002 30.5246C23.4499 29.8349 23.7657 29.0334 23.7657 29.0334C23.7657 29.0334 23.3722 31.1998 24.4408 31.1998C24.8294 31.1998 25.2229 30.6946 25.3977 30.4372V30.442C25.3977 30.442 25.4074 30.4274 25.4269 30.3934C25.4657 30.3303 25.49 30.2914 25.49 30.2914V30.2817C25.6454 30.0097 25.9952 29.3928 26.5149 28.3679C27.1852 27.0468 27.8312 25.3953 27.8312 25.3953C27.8312 25.3953 27.8895 25.7984 28.0887 26.4687C28.2052 26.8622 28.4481 27.2945 28.6424 27.7122C28.487 27.9308 28.3898 28.0522 28.3898 28.0522C28.3898 28.0522 28.3898 28.0522 28.3947 28.0571C28.2684 28.2222 28.1324 28.4019 27.9818 28.5768C27.4524 29.2083 26.8209 29.932 26.7335 30.1409C26.6315 30.3886 26.6558 30.5683 26.8501 30.714C26.9909 30.8209 27.2435 30.8355 27.5009 30.8209C27.9769 30.7869 28.3121 30.6703 28.4773 30.5975C28.7347 30.5052 29.0358 30.3643 29.3176 30.1554C29.8373 29.7717 30.153 29.2228 30.1239 28.4991C30.1093 28.1008 29.9782 27.7025 29.8179 27.3285C29.8664 27.2605 29.9102 27.1925 29.9587 27.1245C30.7796 25.9247 31.4159 24.6084 31.4159 24.6084C31.4159 24.6084 31.4742 25.0115 31.6734 25.6818C31.7705 26.0219 31.9697 26.391 32.1445 26.7505C31.3722 27.3771 30.8962 28.1056 30.7262 28.5817C30.4202 29.4657 30.6582 29.864 31.1099 29.9563C31.3139 30 31.6054 29.9029 31.8191 29.8106C32.0911 29.7231 32.4117 29.5726 32.7177 29.3491C33.2374 28.9654 33.7377 28.4311 33.7086 27.7073C33.694 27.3771 33.6066 27.0516 33.4851 26.7359C34.1409 26.4639 34.9861 26.3133 36.0644 26.4396C38.3765 26.7116 38.8331 28.1542 38.7456 28.7614C38.6582 29.3686 38.1725 29.6988 38.0122 29.8009C37.8519 29.9029 37.7984 29.9369 37.813 30.0097C37.8324 30.1166 37.9102 30.1117 38.0462 30.0923C38.2356 30.0583 39.2605 29.6017 39.3042 28.4845C39.3771 27.0565 38.017 25.4973 35.6126 25.5118ZM17.7766 31.5252C17.0091 32.3607 15.9405 32.6764 15.4791 32.4092C14.9836 32.1226 15.1779 30.8889 16.1202 30.0049C16.6934 29.4657 17.4317 28.9654 17.9223 28.6594C18.034 28.5914 18.1992 28.4942 18.3983 28.3728C18.4323 28.3534 18.4518 28.3437 18.4518 28.3437C18.4906 28.3194 18.5295 28.2951 18.5683 28.2708C18.9132 29.5337 18.5829 30.646 17.7766 31.5252ZM23.3625 27.7268C23.0953 28.3777 22.5368 30.0437 22.1967 29.9514C21.9053 29.8737 21.7256 28.6108 22.1385 27.3625C22.3473 26.7359 22.7893 25.9879 23.0468 25.6964C23.4645 25.2301 23.9259 25.0747 24.0377 25.2641C24.1785 25.5118 23.5276 27.3188 23.3625 27.7268ZM27.9721 29.932C27.8604 29.9903 27.7535 30.0291 27.7049 30C27.6709 29.9806 27.7535 29.9029 27.7535 29.9029C27.7535 29.9029 28.3315 29.2811 28.5598 28.9994C28.691 28.8342 28.8464 28.64 29.0116 28.4214V28.4845C29.0116 29.2277 28.2927 29.728 27.9721 29.932ZM31.5276 29.1208C31.4451 29.0625 31.4596 28.8682 31.7365 28.2611C31.8434 28.0231 32.096 27.6248 32.5283 27.241C32.5768 27.3965 32.6108 27.5471 32.606 27.6879C32.6011 28.6254 31.9308 28.9751 31.5276 29.1208Z" fill="#CD6799"/>
</g>
<rect width="90" height="40" transform="translate(46 4)" fill="#F2F2F2"/>
<path d="M82.3975 26.5527C82.3975 26.2793 82.3519 26.0355 82.2607 25.8213C82.1696 25.6071 82.0192 25.4157 81.8096 25.2471C81.6045 25.0739 81.3265 24.9144 80.9756 24.7686C80.6292 24.6182 80.1963 24.4701 79.6768 24.3242C79.18 24.1829 78.7311 24.028 78.3301 23.8594C77.929 23.6908 77.585 23.4971 77.2979 23.2783C77.0153 23.0596 76.7988 22.8044 76.6484 22.5127C76.498 22.2165 76.4229 21.8724 76.4229 21.4805C76.4229 21.0977 76.5049 20.749 76.6689 20.4346C76.833 20.1201 77.0632 19.849 77.3594 19.6211C77.6602 19.3932 78.0133 19.2178 78.4189 19.0947C78.8291 18.9717 79.278 18.9102 79.7656 18.9102C80.4629 18.9102 81.0645 19.0423 81.5703 19.3066C82.0807 19.571 82.4749 19.9287 82.7529 20.3799C83.0355 20.8265 83.1768 21.3278 83.1768 21.8838H82.3359C82.3359 21.4508 82.2334 21.0658 82.0283 20.7285C81.8278 20.3867 81.5361 20.1201 81.1533 19.9287C80.7751 19.7327 80.3125 19.6348 79.7656 19.6348C79.2188 19.6348 78.7585 19.7191 78.3848 19.8877C78.0156 20.0518 77.7354 20.2728 77.5439 20.5508C77.3571 20.8242 77.2637 21.1296 77.2637 21.4668C77.2637 21.7038 77.3092 21.9225 77.4004 22.123C77.4915 22.319 77.6396 22.5036 77.8447 22.6768C78.0544 22.8454 78.3301 23.0049 78.6719 23.1553C79.0137 23.3011 79.4352 23.4401 79.9365 23.5723C80.4652 23.7181 80.9346 23.8799 81.3447 24.0576C81.7549 24.2354 82.1012 24.4404 82.3838 24.6729C82.6663 24.9007 82.8805 25.1673 83.0264 25.4727C83.1722 25.778 83.2451 26.1335 83.2451 26.5391C83.2451 26.9447 83.1585 27.3092 82.9854 27.6328C82.8167 27.9518 82.5775 28.223 82.2676 28.4463C81.9622 28.6696 81.5999 28.8405 81.1807 28.959C80.766 29.0775 80.3125 29.1367 79.8203 29.1367C79.3783 29.1367 78.9385 29.0798 78.501 28.9658C78.0635 28.8519 77.6624 28.6764 77.2979 28.4395C76.9378 28.1979 76.6484 27.888 76.4297 27.5098C76.2155 27.1315 76.1084 26.6803 76.1084 26.1562H76.9424C76.9424 26.5755 77.0267 26.9287 77.1953 27.2158C77.3639 27.5029 77.5872 27.7354 77.8652 27.9131C78.1478 28.0908 78.4577 28.2207 78.7949 28.3027C79.1367 28.3802 79.4785 28.4189 79.8203 28.4189C80.3444 28.4189 80.7979 28.3415 81.1807 28.1865C81.568 28.0316 81.8665 27.8151 82.0762 27.5371C82.2904 27.2546 82.3975 26.9264 82.3975 26.5527ZM89.6501 27.6738V23.8594C89.6501 23.5085 89.5772 23.2054 89.4314 22.9502C89.2855 22.695 89.0713 22.499 88.7888 22.3623C88.5062 22.2256 88.1576 22.1572 87.7429 22.1572C87.3601 22.1572 87.0183 22.2256 86.7175 22.3623C86.4213 22.4945 86.1866 22.6745 86.0134 22.9023C85.8448 23.1257 85.7605 23.374 85.7605 23.6475L84.9402 23.6406C84.9402 23.3626 85.0085 23.0938 85.1452 22.834C85.282 22.5742 85.4756 22.3418 85.7263 22.1367C85.9769 21.9316 86.2754 21.7699 86.6218 21.6514C86.9727 21.5283 87.3578 21.4668 87.7771 21.4668C88.3057 21.4668 88.7706 21.5557 89.1716 21.7334C89.5772 21.9111 89.8939 22.1777 90.1218 22.5332C90.3497 22.8887 90.4636 23.3353 90.4636 23.873V27.4482C90.4636 27.7035 90.4818 27.9678 90.5183 28.2412C90.5593 28.5146 90.6163 28.7402 90.6892 28.918V29H89.821C89.7663 28.8359 89.723 28.6309 89.6911 28.3848C89.6638 28.1341 89.6501 27.8971 89.6501 27.6738ZM89.8415 24.6934L89.8552 25.3223H88.2487C87.8295 25.3223 87.4535 25.361 87.1208 25.4385C86.7927 25.5114 86.5147 25.6208 86.2868 25.7666C86.059 25.9079 85.8835 26.0788 85.7605 26.2793C85.642 26.4798 85.5827 26.7077 85.5827 26.9629C85.5827 27.2272 85.6488 27.4688 85.781 27.6875C85.9177 27.9062 86.1091 28.0817 86.3552 28.2139C86.6058 28.3415 86.9021 28.4053 87.2439 28.4053C87.6996 28.4053 88.1006 28.321 88.447 28.1523C88.7979 27.9837 89.0873 27.7627 89.3152 27.4893C89.543 27.2158 89.6957 26.9173 89.7732 26.5938L90.1286 27.0654C90.0694 27.2933 89.96 27.528 89.8005 27.7695C89.6456 28.0065 89.4428 28.2298 89.1921 28.4395C88.9415 28.6445 88.6452 28.8132 88.3034 28.9453C87.9662 29.0729 87.5834 29.1367 87.155 29.1367C86.6719 29.1367 86.2504 29.0456 85.8904 28.8633C85.5349 28.681 85.2569 28.4326 85.0564 28.1182C84.8604 27.7992 84.7624 27.4391 84.7624 27.0381C84.7624 26.6735 84.8399 26.3477 84.9948 26.0605C85.1498 25.7689 85.3731 25.5228 85.6648 25.3223C85.961 25.1172 86.3165 24.9622 86.7312 24.8574C87.1504 24.748 87.6198 24.6934 88.1394 24.6934H89.8415ZM97.3676 27.1133C97.3676 26.9128 97.3175 26.7145 97.2172 26.5186C97.117 26.3226 96.9233 26.1426 96.6362 25.9785C96.3536 25.8145 95.9366 25.6755 95.3852 25.5615C94.975 25.4704 94.6082 25.3678 94.2846 25.2539C93.9656 25.14 93.6967 25.0033 93.478 24.8438C93.2592 24.6842 93.0929 24.4928 92.9789 24.2695C92.865 24.0462 92.808 23.7819 92.808 23.4766C92.808 23.2031 92.8673 22.9456 92.9858 22.7041C93.1088 22.458 93.282 22.2438 93.5053 22.0615C93.7332 21.8747 94.0066 21.7288 94.3256 21.624C94.6492 21.5192 95.0115 21.4668 95.4125 21.4668C95.9822 21.4668 96.4698 21.5648 96.8754 21.7607C97.2856 21.9521 97.5978 22.2142 97.812 22.5469C98.0307 22.8796 98.1401 23.2555 98.1401 23.6748H97.3266C97.3266 23.4196 97.2514 23.1781 97.101 22.9502C96.9552 22.7223 96.7387 22.5355 96.4516 22.3896C96.169 22.2438 95.8227 22.1709 95.4125 22.1709C94.9887 22.1709 94.6446 22.2347 94.3803 22.3623C94.116 22.4899 93.9223 22.6517 93.7993 22.8477C93.6808 23.0436 93.6215 23.2464 93.6215 23.4561C93.6215 23.6201 93.6466 23.7705 93.6967 23.9072C93.7514 24.0394 93.8471 24.1624 93.9838 24.2764C94.1251 24.3903 94.3256 24.4974 94.5854 24.5977C94.8452 24.6979 95.1824 24.7959 95.5971 24.8916C96.1941 25.0238 96.6817 25.1855 97.06 25.377C97.4428 25.5638 97.7254 25.7962 97.9077 26.0742C98.0899 26.3477 98.1811 26.6803 98.1811 27.0723C98.1811 27.3776 98.1173 27.6579 97.9897 27.9131C97.8621 28.1637 97.6775 28.3802 97.436 28.5625C97.199 28.7448 96.9119 28.8861 96.5746 28.9863C96.242 29.0866 95.8683 29.1367 95.4536 29.1367C94.8292 29.1367 94.3006 29.0342 93.8676 28.8291C93.4392 28.6195 93.1134 28.346 92.8901 28.0088C92.6713 27.667 92.562 27.3047 92.562 26.9219H93.3754C93.4028 27.3047 93.5235 27.6077 93.7377 27.8311C93.9519 28.0498 94.214 28.2048 94.5239 28.2959C94.8383 28.387 95.1482 28.4326 95.4536 28.4326C95.8728 28.4326 96.2237 28.3711 96.5063 28.248C96.7888 28.125 97.003 27.9632 97.1489 27.7627C97.2947 27.5622 97.3676 27.3457 97.3676 27.1133ZM104.743 27.1133C104.743 26.9128 104.693 26.7145 104.593 26.5186C104.493 26.3226 104.299 26.1426 104.012 25.9785C103.729 25.8145 103.312 25.6755 102.761 25.5615C102.351 25.4704 101.984 25.3678 101.66 25.2539C101.341 25.14 101.072 25.0033 100.854 24.8438C100.635 24.6842 100.469 24.4928 100.355 24.2695C100.241 24.0462 100.184 23.7819 100.184 23.4766C100.184 23.2031 100.243 22.9456 100.361 22.7041C100.485 22.458 100.658 22.2438 100.881 22.0615C101.109 21.8747 101.382 21.7288 101.701 21.624C102.025 21.5192 102.387 21.4668 102.788 21.4668C103.358 21.4668 103.846 21.5648 104.251 21.7607C104.661 21.9521 104.973 22.2142 105.188 22.5469C105.406 22.8796 105.516 23.2555 105.516 23.6748H104.702C104.702 23.4196 104.627 23.1781 104.477 22.9502C104.331 22.7223 104.114 22.5355 103.827 22.3896C103.545 22.2438 103.198 22.1709 102.788 22.1709C102.364 22.1709 102.02 22.2347 101.756 22.3623C101.492 22.4899 101.298 22.6517 101.175 22.8477C101.056 23.0436 100.997 23.2464 100.997 23.4561C100.997 23.6201 101.022 23.7705 101.072 23.9072C101.127 24.0394 101.223 24.1624 101.36 24.2764C101.501 24.3903 101.701 24.4974 101.961 24.5977C102.221 24.6979 102.558 24.7959 102.973 24.8916C103.57 25.0238 104.057 25.1855 104.436 25.377C104.819 25.5638 105.101 25.7962 105.283 26.0742C105.466 26.3477 105.557 26.6803 105.557 27.0723C105.557 27.3776 105.493 27.6579 105.365 27.9131C105.238 28.1637 105.053 28.3802 104.812 28.5625C104.575 28.7448 104.288 28.8861 103.95 28.9863C103.618 29.0866 103.244 29.1367 102.829 29.1367C102.205 29.1367 101.676 29.0342 101.243 28.8291C100.815 28.6195 100.489 28.346 100.266 28.0088C100.047 27.667 99.9377 27.3047 99.9377 26.9219H100.751C100.778 27.3047 100.899 27.6077 101.113 27.8311C101.328 28.0498 101.59 28.2048 101.9 28.2959C102.214 28.387 102.524 28.4326 102.829 28.4326C103.249 28.4326 103.599 28.3711 103.882 28.248C104.165 28.125 104.379 27.9632 104.525 27.7627C104.67 27.5622 104.743 27.3457 104.743 27.1133Z" fill="black"/>
</g>
</g>
<defs>
<filter id="filter0_d_2_238" x="0" y="0" width="142" height="52" filterUnits="userSpaceOnUse" color-interpolation-filters="sRGB">
<feFlood flood-opacity="0" result="BackgroundImageFix"/>
<feColorMatrix in="SourceAlpha" type="matrix" values="0 0 0 0 0 0 0 0 0 0 0 0 0 0 0 0 0 0 127 0" result="hardAlpha"/>
<feOffset dy="2"/>
<feGaussianBlur stdDeviation="3"/>
<feComposite in2="hardAlpha" operator="out"/>
<feColorMatrix type="matrix" values="0 0 0 0 0 0 0 0 0 0 0 0 0 0 0 0 0 0 0.25 0"/>
<feBlend mode="normal" in2="BackgroundImageFix" result="effect1_dropShadow_2_238"/>
<feBlend mode="normal" in="SourceGraphic" in2="effect1_dropShadow_2_238" result="shape"/>
</filter>
<clipPath id="clip0_2_238">
<rect x="6" y="4" width="130" height="40" rx="6" fill="white"/>
</clipPath>
<clipPath id="clip1_2_238">
<rect width="26.6667" height="20" fill="white" transform="translate(12.6667 14)"/>
</clipPath>
</defs>
</svg>
