<svg width="142" height="52" viewBox="0 0 142 52" fill="none" xmlns="http://www.w3.org/2000/svg">
<g filter="url(#filter0_d_2_258)">
<g clip-path="url(#clip0_2_258)">
<rect width="40" height="40" transform="translate(6 4)" fill="#EA8101"/>
<g clip-path="url(#clip1_2_258)">
<path d="M32.1496 20.3758V27.5781L26.0296 31.1989L25.9742 31.2492V33.9411L26.0296 33.9932L34.6487 29.0146V18.9786L34.5673 18.9587L32.1374 20.3172L32.1496 20.3758Z" fill="#2F406A"/>
<path d="M19.8899 27.6371L26.0296 31.1989V33.9932L17.3514 28.9949V18.9983L17.4404 18.9849L19.8633 20.3935L19.8899 20.4742V27.6371Z" fill="#2379BD"/>
<path d="M19.8899 20.4742L17.3514 18.9983L26.0099 14L34.6487 18.9786L32.1496 20.3758L26.0099 16.873L19.8899 20.4742Z" fill="#03AFEF"/>
<path d="M25.9242 26.8134L25.8577 26.7455V24.0411L25.9242 24.0067L25.9404 23.9401L28.2589 22.5876L28.3299 22.6034V25.3901L25.9242 26.8134Z" fill="#2F406A"/>
<path d="M23.4784 25.4769V22.5835L23.5456 22.5801L25.9041 23.9527L25.9242 24.0068V26.8134L23.4784 25.4769Z" fill="#2379BD"/>
<path d="M25.8841 21.1601L23.4784 22.5834L25.9242 24.0068L28.3299 22.6034L25.8841 21.1601Z" fill="#03AFEF"/>
<path d="M22.9304 28.5776L22.864 28.5097V25.8052L22.9304 25.7709L22.9466 25.7042L25.2652 24.3517L25.3361 24.3676V27.1542L22.9304 28.5776Z" fill="#2F406A"/>
<path d="M20.4847 27.2411V24.3476L20.5518 24.3443L22.9104 25.7169L22.9304 25.771V28.5776L20.4847 27.2411Z" fill="#2379BD"/>
<path d="M22.8904 22.9243L20.4847 24.3476L22.9304 25.7709L25.3361 24.3676L22.8904 22.9243Z" fill="#03AFEF"/>
<path d="M29.1318 28.6444L29.0653 28.5766V25.872L29.1318 25.8378L29.1479 25.7711L31.4665 24.4186L31.5375 24.4345V27.221L29.1318 28.6444Z" fill="#2F406A"/>
<path d="M26.686 27.3079V24.4144L26.7532 24.4111L29.1117 25.7837L29.1318 25.8378V28.6444L26.686 27.3079Z" fill="#2379BD"/>
<path d="M29.0916 22.9911L26.686 24.4144L29.1318 25.8378L31.5375 24.4345L29.0916 22.9911Z" fill="#03AFEF"/>
<path d="M26.138 30.4086L26.0716 30.3407V27.6362L26.138 27.602L26.1542 27.5352L28.4728 26.1828L28.5437 26.1986V28.9852L26.138 30.4086Z" fill="#2F406A"/>
<path d="M23.6923 29.0721V26.1786L23.7594 26.1753L26.118 27.5478L26.138 27.602V30.4086L23.6923 29.0721Z" fill="#2379BD"/>
<path d="M26.0979 24.7552L23.6923 26.1786L26.138 27.6019L28.5437 26.1986L26.0979 24.7552Z" fill="#03AFEF"/>
<path d="M25.9242 22.9777L25.8577 22.9098V20.2053L25.9242 20.1711L25.9404 20.1043L28.2589 18.7519L28.3299 18.7678V21.5543L25.9242 22.9777Z" fill="#2F406A"/>
<path d="M23.4784 21.6412V18.7477L23.5456 18.7444L25.9041 20.117L25.9242 20.1711V22.9777L23.4784 21.6412Z" fill="#2379BD"/>
<path d="M25.8841 17.3243L23.4784 18.7477L25.9242 20.1711L28.3299 18.7678L25.8841 17.3243Z" fill="#03AFEF"/>
<path d="M22.9304 24.7418L22.864 24.674V21.9695L22.9304 21.9352L22.9466 21.8685L25.2652 20.516L25.3361 20.5319V23.3185L22.9304 24.7418Z" fill="#2F406A"/>
<path d="M20.4847 23.4053V20.5119L20.5518 20.5086L22.9104 21.8811L22.9304 21.9352V24.7418L20.4847 23.4053Z" fill="#2379BD"/>
<path d="M22.8904 19.0885L20.4847 20.5119L22.9304 21.9352L25.3361 20.5319L22.8904 19.0885Z" fill="#03AFEF"/>
<path d="M29.1318 24.8086L29.0653 24.7408V22.0363L29.1318 22.002L29.1479 21.9353L31.4665 20.5828L31.5375 20.5987V23.3853L29.1318 24.8086Z" fill="#2F406A"/>
<path d="M26.686 23.4722V20.5787L26.7532 20.5754L29.1117 21.948L29.1318 22.002V24.8087L26.686 23.4722Z" fill="#2379BD"/>
<path d="M29.0916 19.1553L26.686 20.5787L29.1318 22.002L31.5375 20.5987L29.0916 19.1553Z" fill="#03AFEF"/>
<path d="M26.138 26.5728L26.0716 26.505V23.8005L26.138 23.7662L26.1542 23.6995L28.4728 22.347L28.5437 22.3629V25.1494L26.138 26.5728Z" fill="#2F406A"/>
<path d="M23.6923 25.2364V22.3428L23.7594 22.3395L26.118 23.7122L26.138 23.7662V26.5728L23.6923 25.2364Z" fill="#2379BD"/>
<path d="M26.0979 20.9195L23.6923 22.3428L26.138 23.7662L28.5437 22.3629L26.0979 20.9195Z" fill="#03AFEF"/>
</g>
<rect width="90" height="40" transform="translate(46 4)" fill="#F2F2F2"/>
<path d="M66.8975 26.5527C66.8975 26.2793 66.8519 26.0355 66.7607 25.8213C66.6696 25.6071 66.5192 25.4157 66.3096 25.2471C66.1045 25.0739 65.8265 24.9144 65.4756 24.7686C65.1292 24.6182 64.6963 24.4701 64.1768 24.3242C63.68 24.1829 63.2311 24.028 62.8301 23.8594C62.429 23.6908 62.085 23.4971 61.7979 23.2783C61.5153 23.0596 61.2988 22.8044 61.1484 22.5127C60.998 22.2165 60.9229 21.8724 60.9229 21.4805C60.9229 21.0977 61.0049 20.749 61.1689 20.4346C61.333 20.1201 61.5632 19.849 61.8594 19.6211C62.1602 19.3932 62.5133 19.2178 62.9189 19.0947C63.3291 18.9717 63.778 18.9102 64.2656 18.9102C64.9629 18.9102 65.5645 19.0423 66.0703 19.3066C66.5807 19.571 66.9749 19.9287 67.2529 20.3799C67.5355 20.8265 67.6768 21.3278 67.6768 21.8838H66.8359C66.8359 21.4508 66.7334 21.0658 66.5283 20.7285C66.3278 20.3867 66.0361 20.1201 65.6533 19.9287C65.2751 19.7327 64.8125 19.6348 64.2656 19.6348C63.7188 19.6348 63.2585 19.7191 62.8848 19.8877C62.5156 20.0518 62.2354 20.2728 62.0439 20.5508C61.8571 20.8242 61.7637 21.1296 61.7637 21.4668C61.7637 21.7038 61.8092 21.9225 61.9004 22.123C61.9915 22.319 62.1396 22.5036 62.3447 22.6768C62.5544 22.8454 62.8301 23.0049 63.1719 23.1553C63.5137 23.3011 63.9352 23.4401 64.4365 23.5723C64.9652 23.7181 65.4346 23.8799 65.8447 24.0576C66.2549 24.2354 66.6012 24.4404 66.8838 24.6729C67.1663 24.9007 67.3805 25.1673 67.5264 25.4727C67.6722 25.778 67.7451 26.1335 67.7451 26.5391C67.7451 26.9447 67.6585 27.3092 67.4854 27.6328C67.3167 27.9518 67.0775 28.223 66.7676 28.4463C66.4622 28.6696 66.0999 28.8405 65.6807 28.959C65.266 29.0775 64.8125 29.1367 64.3203 29.1367C63.8783 29.1367 63.4385 29.0798 63.001 28.9658C62.5635 28.8519 62.1624 28.6764 61.7979 28.4395C61.4378 28.1979 61.1484 27.888 60.9297 27.5098C60.7155 27.1315 60.6084 26.6803 60.6084 26.1562H61.4424C61.4424 26.5755 61.5267 26.9287 61.6953 27.2158C61.8639 27.5029 62.0872 27.7354 62.3652 27.9131C62.6478 28.0908 62.9577 28.2207 63.2949 28.3027C63.6367 28.3802 63.9785 28.4189 64.3203 28.4189C64.8444 28.4189 65.2979 28.3415 65.6807 28.1865C66.068 28.0316 66.3665 27.8151 66.5762 27.5371C66.7904 27.2546 66.8975 26.9264 66.8975 26.5527ZM72.5095 29.1367C72.0264 29.1367 71.5821 29.0479 71.1765 28.8701C70.7754 28.6924 70.4245 28.4417 70.1237 28.1182C69.8275 27.7946 69.5974 27.4118 69.4333 26.9697C69.2738 26.5231 69.1941 26.0355 69.1941 25.5068V25.2129C69.1941 24.6432 69.2784 24.1283 69.447 23.668C69.6156 23.2077 69.848 22.8135 70.1443 22.4854C70.4405 22.1572 70.7777 21.9066 71.156 21.7334C71.5388 21.5557 71.9398 21.4668 72.3591 21.4668C72.8285 21.4668 73.2455 21.5511 73.6101 21.7197C73.9747 21.8838 74.28 22.1185 74.5261 22.4238C74.7767 22.7246 74.9659 23.0824 75.0935 23.4971C75.2211 23.9072 75.2849 24.3607 75.2849 24.8574V25.3564H69.6862V24.6592H74.4714V24.5635C74.4623 24.1488 74.378 23.7614 74.2185 23.4014C74.0635 23.0368 73.8311 22.7406 73.5212 22.5127C73.2113 22.2848 72.8239 22.1709 72.3591 22.1709C72.0127 22.1709 71.6937 22.2438 71.4021 22.3896C71.115 22.5355 70.8666 22.7451 70.657 23.0186C70.4519 23.2874 70.2924 23.6087 70.1784 23.9824C70.0691 24.3516 70.0144 24.7617 70.0144 25.2129V25.5068C70.0144 25.917 70.0736 26.2998 70.1921 26.6553C70.3152 27.0062 70.4883 27.3161 70.7116 27.585C70.9395 27.8538 71.2084 28.0635 71.5183 28.2139C71.8282 28.3643 72.17 28.4395 72.5437 28.4395C72.9812 28.4395 73.3685 28.3597 73.7058 28.2002C74.043 28.0361 74.3461 27.7786 74.615 27.4277L75.1277 27.8242C74.9682 28.0612 74.7676 28.2799 74.5261 28.4805C74.2891 28.681 74.0043 28.8405 73.6716 28.959C73.3389 29.0775 72.9515 29.1367 72.5095 29.1367ZM81.9838 31.8438V23.0254L82.0385 21.6035H82.7973V31.8438H81.9838ZM76.85 25.377V25.2334C76.85 24.6592 76.9138 24.1419 77.0414 23.6816C77.169 23.2168 77.3559 22.8203 77.602 22.4922C77.8526 22.1595 78.1534 21.9066 78.5043 21.7334C78.8598 21.5557 79.2631 21.4668 79.7143 21.4668C80.1472 21.4668 80.5323 21.5374 80.8696 21.6787C81.2068 21.82 81.4962 22.0228 81.7377 22.2871C81.9838 22.5514 82.1821 22.8659 82.3325 23.2305C82.4829 23.5951 82.5922 24.0007 82.6606 24.4473V26.2725C82.6059 26.6917 82.5034 27.0768 82.353 27.4277C82.2071 27.7741 82.0112 28.0771 81.7651 28.3369C81.519 28.5921 81.2228 28.7904 80.8764 28.9316C80.5346 29.0684 80.1427 29.1367 79.7006 29.1367C79.254 29.1367 78.853 29.0456 78.4975 28.8633C78.1466 28.681 77.8481 28.4235 77.602 28.0908C77.3605 27.7536 77.1736 27.3548 77.0414 26.8945C76.9138 26.4342 76.85 25.9284 76.85 25.377ZM77.6704 25.2334V25.377C77.6704 25.8099 77.7136 26.2109 77.8002 26.5801C77.8914 26.9492 78.0258 27.2728 78.2036 27.5508C78.3813 27.8288 78.6069 28.0452 78.8803 28.2002C79.1583 28.3551 79.4819 28.4326 79.851 28.4326C80.3204 28.4326 80.7169 28.3415 81.0405 28.1592C81.364 27.9769 81.6215 27.7354 81.8129 27.4346C82.0089 27.1338 82.1502 26.8057 82.2368 26.4502V24.3242C82.1912 24.0918 82.1137 23.8503 82.0043 23.5996C81.895 23.349 81.7468 23.1165 81.56 22.9023C81.3777 22.6836 81.1476 22.5081 80.8696 22.376C80.5916 22.2393 80.2566 22.1709 79.8647 22.1709C79.491 22.1709 79.1651 22.2507 78.8871 22.4102C78.6137 22.5651 78.3858 22.7816 78.2036 23.0596C78.0258 23.3376 77.8914 23.6611 77.8002 24.0303C77.7136 24.3994 77.6704 24.8005 77.6704 25.2334ZM90.0021 27.291V21.6035H90.8224V29H90.0363L90.0021 27.291ZM90.1525 25.9238L90.5763 25.9102C90.5763 26.375 90.5216 26.8034 90.4123 27.1953C90.3029 27.5872 90.132 27.929 89.8996 28.2207C89.6671 28.5124 89.3664 28.738 88.9972 28.8975C88.6281 29.057 88.1838 29.1367 87.6642 29.1367C87.3042 29.1367 86.9738 29.0866 86.673 28.9863C86.3768 28.8815 86.1216 28.7174 85.9074 28.4941C85.6932 28.2708 85.5268 27.9814 85.4084 27.626C85.2944 27.2705 85.2375 26.8398 85.2375 26.334V21.6035H86.0509V26.3477C86.0509 26.7441 86.0942 27.0745 86.1808 27.3389C86.272 27.6032 86.395 27.8151 86.55 27.9746C86.7095 28.1341 86.8918 28.248 87.0968 28.3164C87.3019 28.3848 87.5229 28.4189 87.7599 28.4189C88.3615 28.4189 88.8354 28.3027 89.1818 28.0703C89.5327 27.8379 89.7811 27.5326 89.9269 27.1543C90.0773 26.7715 90.1525 26.3613 90.1525 25.9238ZM97.7401 27.6738V23.8594C97.7401 23.5085 97.6672 23.2054 97.5214 22.9502C97.3755 22.695 97.1613 22.499 96.8788 22.3623C96.5962 22.2256 96.2476 22.1572 95.8329 22.1572C95.4501 22.1572 95.1083 22.2256 94.8075 22.3623C94.5113 22.4945 94.2766 22.6745 94.1034 22.9023C93.9348 23.1257 93.8505 23.374 93.8505 23.6475L93.0302 23.6406C93.0302 23.3626 93.0985 23.0938 93.2352 22.834C93.372 22.5742 93.5656 22.3418 93.8163 22.1367C94.0669 21.9316 94.3654 21.7699 94.7118 21.6514C95.0627 21.5283 95.4478 21.4668 95.8671 21.4668C96.3957 21.4668 96.8606 21.5557 97.2616 21.7334C97.6672 21.9111 97.9839 22.1777 98.2118 22.5332C98.4397 22.8887 98.5536 23.3353 98.5536 23.873V27.4482C98.5536 27.7035 98.5718 27.9678 98.6083 28.2412C98.6493 28.5146 98.7063 28.7402 98.7792 28.918V29H97.911C97.8563 28.8359 97.813 28.6309 97.7811 28.3848C97.7538 28.1341 97.7401 27.8971 97.7401 27.6738ZM97.9315 24.6934L97.9452 25.3223H96.3387C95.9195 25.3223 95.5435 25.361 95.2108 25.4385C94.8827 25.5114 94.6047 25.6208 94.3768 25.7666C94.149 25.9079 93.9735 26.0788 93.8505 26.2793C93.732 26.4798 93.6727 26.7077 93.6727 26.9629C93.6727 27.2272 93.7388 27.4688 93.871 27.6875C94.0077 27.9062 94.1991 28.0817 94.4452 28.2139C94.6958 28.3415 94.9921 28.4053 95.3339 28.4053C95.7896 28.4053 96.1906 28.321 96.537 28.1523C96.8879 27.9837 97.1773 27.7627 97.4052 27.4893C97.633 27.2158 97.7857 26.9173 97.8632 26.5938L98.2186 27.0654C98.1594 27.2933 98.05 27.528 97.8905 27.7695C97.7356 28.0065 97.5328 28.2298 97.2821 28.4395C97.0315 28.6445 96.7352 28.8132 96.3934 28.9453C96.0562 29.0729 95.6734 29.1367 95.245 29.1367C94.7619 29.1367 94.3404 29.0456 93.9804 28.8633C93.6249 28.681 93.3469 28.4326 93.1464 28.1182C92.9504 27.7992 92.8524 27.4391 92.8524 27.0381C92.8524 26.6735 92.9299 26.3477 93.0848 26.0605C93.2398 25.7689 93.4631 25.5228 93.7548 25.3223C94.051 25.1172 94.4065 24.9622 94.8212 24.8574C95.2404 24.748 95.7098 24.6934 96.2294 24.6934H97.9315ZM101.937 18.5V29H101.124V18.5H101.937ZM105.362 21.6035V29H104.548V21.6035H105.362ZM104.405 19.4639C104.405 19.3089 104.452 19.179 104.548 19.0742C104.648 18.9648 104.785 18.9102 104.958 18.9102C105.131 18.9102 105.268 18.9648 105.368 19.0742C105.473 19.179 105.526 19.3089 105.526 19.4639C105.526 19.6143 105.473 19.7441 105.368 19.8535C105.268 19.9583 105.131 20.0107 104.958 20.0107C104.785 20.0107 104.648 19.9583 104.548 19.8535C104.452 19.7441 104.405 19.6143 104.405 19.4639ZM113.216 28.2959V29H107.699V28.2959H113.216ZM112.915 22.2119L107.904 29H107.405V28.3848L112.402 21.6035H112.915V22.2119ZM112.553 21.6035V22.3145H107.542V21.6035H112.553ZM117.727 29.1367C117.244 29.1367 116.8 29.0479 116.394 28.8701C115.993 28.6924 115.642 28.4417 115.342 28.1182C115.045 27.7946 114.815 27.4118 114.651 26.9697C114.492 26.5231 114.412 26.0355 114.412 25.5068V25.2129C114.412 24.6432 114.496 24.1283 114.665 23.668C114.833 23.2077 115.066 22.8135 115.362 22.4854C115.658 22.1572 115.996 21.9066 116.374 21.7334C116.757 21.5557 117.158 21.4668 117.577 21.4668C118.046 21.4668 118.463 21.5511 118.828 21.7197C119.192 21.8838 119.498 22.1185 119.744 22.4238C119.995 22.7246 120.184 23.0824 120.311 23.4971C120.439 23.9072 120.503 24.3607 120.503 24.8574V25.3564H114.904V24.6592H119.689V24.5635C119.68 24.1488 119.596 23.7614 119.436 23.4014C119.281 23.0368 119.049 22.7406 118.739 22.5127C118.429 22.2848 118.042 22.1709 117.577 22.1709C117.231 22.1709 116.912 22.2438 116.62 22.3896C116.333 22.5355 116.084 22.7451 115.875 23.0186C115.67 23.2874 115.51 23.6087 115.396 23.9824C115.287 24.3516 115.232 24.7617 115.232 25.2129V25.5068C115.232 25.917 115.291 26.2998 115.41 26.6553C115.533 27.0062 115.706 27.3161 115.929 27.585C116.157 27.8538 116.426 28.0635 116.736 28.2139C117.046 28.3643 117.388 28.4395 117.761 28.4395C118.199 28.4395 118.586 28.3597 118.924 28.2002C119.261 28.0361 119.564 27.7786 119.833 27.4277L120.345 27.8242C120.186 28.0612 119.985 28.2799 119.744 28.4805C119.507 28.681 119.222 28.8405 118.889 28.959C118.557 29.0775 118.169 29.1367 117.727 29.1367Z" fill="black"/>
</g>
</g>
<defs>
<filter id="filter0_d_2_258" x="0" y="0" width="142" height="52" filterUnits="userSpaceOnUse" color-interpolation-filters="sRGB">
<feFlood flood-opacity="0" result="BackgroundImageFix"/>
<feColorMatrix in="SourceAlpha" type="matrix" values="0 0 0 0 0 0 0 0 0 0 0 0 0 0 0 0 0 0 127 0" result="hardAlpha"/>
<feOffset dy="2"/>
<feGaussianBlur stdDeviation="3"/>
<feComposite in2="hardAlpha" operator="out"/>
<feColorMatrix type="matrix" values="0 0 0 0 0 0 0 0 0 0 0 0 0 0 0 0 0 0 0.25 0"/>
<feBlend mode="normal" in2="BackgroundImageFix" result="effect1_dropShadow_2_258"/>
<feBlend mode="normal" in="SourceGraphic" in2="effect1_dropShadow_2_258" result="shape"/>
</filter>
<clipPath id="clip0_2_258">
<rect x="6" y="4" width="130" height="40" rx="6" fill="white"/>
</clipPath>
<clipPath id="clip1_2_258">
<rect width="17.2973" height="20" fill="white" transform="translate(17.3514 14)"/>
</clipPath>
</defs>
</svg>
