<svg width="180" height="200" viewBox="0 0 180 200" fill="none" xmlns="http://www.w3.org/2000/svg">
<g clip-path="url(#clip0_3_364)">
<path d="M75.0519 113.749C75.1669 113.798 75.271 113.87 75.3583 113.96C75.4455 114.049 75.5143 114.155 75.5606 114.272C75.6069 114.388 75.6298 114.512 75.6281 114.637C75.6263 114.763 75.6 114.886 75.5505 115.001L74.2562 118.008L74.4029 118.083L73.5203 120.123L73.3791 120.045L68.7421 130.815C68.5834 131.184 68.296 131.482 67.9336 131.654C67.5711 131.827 67.1583 131.861 66.7722 131.752L59.5624 129.703C59.3869 129.653 59.2244 129.566 59.0863 129.446C58.9482 129.327 58.8379 129.179 58.7631 129.012C58.6883 128.846 58.6508 128.665 58.6533 128.483C58.6557 128.3 58.6981 128.121 58.7774 127.956L66.0444 112.887C66.197 112.57 66.4528 112.315 66.7697 112.163C67.0866 112.011 67.4457 111.972 67.788 112.051L74.8824 113.694C74.9405 113.707 74.9973 113.725 75.0519 113.749Z" fill="#3F3D56"/>
<path d="M69.0512 113.212L72.7808 114.076C72.8479 114.091 72.9183 114.084 72.981 114.056C73.0437 114.027 73.0953 113.979 73.1278 113.918C73.1646 113.849 73.223 113.795 73.2941 113.762C73.3651 113.73 73.4448 113.722 73.5209 113.74L74.3065 113.922C74.4137 113.947 74.5141 113.995 74.6007 114.062C74.6873 114.13 74.758 114.216 74.8077 114.315C74.8574 114.413 74.885 114.521 74.8884 114.631C74.8919 114.741 74.8712 114.85 74.8277 114.951L68.1167 130.571C68.0334 130.765 67.8817 130.921 67.6904 131.01C67.4992 131.099 67.2819 131.115 67.0799 131.054L59.9208 128.894C59.8295 128.866 59.7452 128.82 59.6736 128.756C59.6021 128.693 59.5451 128.615 59.5064 128.528C59.4677 128.441 59.4482 128.347 59.4494 128.251C59.4506 128.156 59.4723 128.062 59.5132 127.976L66.6063 113.002C66.7108 112.782 66.8876 112.604 67.1074 112.497C67.3272 112.391 67.5767 112.363 67.8145 112.418L68.6426 112.61C68.6223 112.743 68.6531 112.879 68.7289 112.991C68.8046 113.103 68.9198 113.182 69.0512 113.212Z" fill="#009EEB"/>
<path d="M98.1201 32.5599C94.9003 32.5599 91.7527 31.6051 89.0755 29.8162C86.3983 28.0274 84.3116 25.4848 83.0794 22.51C81.8472 19.5352 81.5249 16.2619 82.153 13.1039C82.7812 9.94589 84.3317 7.04508 86.6085 4.76829C88.8853 2.4915 91.7861 0.940986 94.9441 0.312821C98.1021 -0.315344 101.375 0.00705489 104.35 1.23925C107.325 2.47144 109.868 4.55807 111.656 7.23529C113.445 9.91252 114.4 13.0601 114.4 16.2799C114.395 20.5962 112.678 24.7342 109.626 27.7862C106.574 30.8382 102.436 32.555 98.1201 32.5599ZM98.1201 0.775241C95.0536 0.775241 92.0559 1.68457 89.5062 3.38825C86.9564 5.09193 84.9692 7.51344 83.7957 10.3465C82.6221 13.1797 82.3151 16.2971 82.9133 19.3048C83.5116 22.3124 84.9883 25.0751 87.1567 27.2434C89.325 29.4118 92.0877 30.8885 95.0953 31.4867C98.1029 32.085 101.22 31.7779 104.054 30.6044C106.887 29.4309 109.308 27.4436 111.012 24.8939C112.715 22.3442 113.625 19.3465 113.625 16.2799C113.62 12.1693 111.985 8.22829 109.078 5.3216C106.172 2.41491 102.231 0.779886 98.1201 0.775241Z" fill="#CCCCCC"/>
<path d="M160.914 47.677C157.694 47.677 154.547 46.7222 151.87 44.9333C149.192 43.1445 147.106 40.6019 145.873 37.6271C144.641 34.6523 144.319 31.379 144.947 28.221C145.575 25.063 147.126 22.1622 149.403 19.8854C151.679 17.6086 154.58 16.0581 157.738 15.4299C160.896 14.8018 164.169 15.1242 167.144 16.3563C170.119 17.5885 172.662 19.6752 174.45 22.3524C176.239 25.0296 177.194 28.1772 177.194 31.397C177.189 35.7133 175.472 39.8513 172.42 42.9033C169.368 45.9553 165.23 47.6721 160.914 47.677ZM160.914 15.8923C157.848 15.8923 154.85 16.8017 152.3 18.5053C149.751 20.209 147.763 22.6305 146.59 25.4637C145.416 28.2968 145.109 31.4142 145.707 34.4219C146.306 37.4295 147.782 40.1922 149.951 42.3605C152.119 44.5289 154.882 46.0056 157.889 46.6038C160.897 47.2021 164.014 46.895 166.848 45.7215C169.681 44.548 172.102 42.5607 173.806 40.011C175.51 37.4613 176.419 34.4636 176.419 31.397C176.414 27.2864 174.779 23.3454 171.873 20.4387C168.966 17.532 165.025 15.897 160.914 15.8923Z" fill="#CCCCCC"/>
<path d="M131.843 99.2301C128.623 99.2301 125.475 98.2753 122.798 96.4865C120.121 94.6976 118.034 92.155 116.802 89.1802C115.57 86.2055 115.248 82.9321 115.876 79.7741C116.504 76.6161 118.054 73.7153 120.331 71.4385C122.608 69.1617 125.509 67.6112 128.667 66.983C131.825 66.3549 135.098 66.6773 138.073 67.9095C141.048 69.1417 143.59 71.2283 145.379 73.9055C147.168 76.5827 148.123 79.7303 148.123 82.9502C148.118 87.2664 146.401 91.4044 143.349 94.4564C140.297 97.5085 136.159 99.2252 131.843 99.2301ZM131.843 67.4455C128.776 67.4455 125.779 68.3548 123.229 70.0585C120.679 71.7622 118.692 74.1837 117.518 77.0168C116.345 79.8499 116.038 82.9674 116.636 85.975C117.234 88.9826 118.711 91.7453 120.879 93.9137C123.048 96.082 125.81 97.5587 128.818 98.157C131.826 98.7552 134.943 98.4482 137.776 97.2747C140.609 96.1011 143.031 94.1139 144.735 91.5641C146.438 89.0144 147.348 86.0167 147.348 82.9502C147.343 78.8395 145.708 74.8985 142.801 71.9918C139.895 69.0851 135.954 67.4501 131.843 67.4455Z" fill="#CCCCCC"/>
<path d="M170.217 26.9385L172.155 26.5509C172.155 26.5509 170.527 28.3727 170.217 28.489C170.188 28.8761 170.188 29.2648 170.217 29.6519C166.496 45.6217 152.774 38.5671 152.774 38.5671C157.774 38.6834 158.201 36.629 158.201 36.629C155.294 36.2026 154.712 34.3033 154.712 34.3033C154.973 34.4409 155.276 34.4774 155.562 34.4059C155.848 34.3344 156.097 34.1598 156.263 33.9157C153.123 33.1017 153.549 30.0395 153.549 30.0395C154.109 30.4435 154.763 30.6971 155.449 30.776C155.1 30.3496 152.154 26.8223 153.937 25.0004C153.937 25.0004 156.108 28.8766 161.806 29.2255L162.193 29.148C162.127 28.8688 162.101 28.5817 162.116 28.2952C162.116 27.2158 162.545 26.1806 163.308 25.4173C164.071 24.654 165.106 24.2252 166.186 24.2252C168.899 24.2252 169.481 25.7757 169.481 25.7757L171.419 24.6128C171.38 24.6128 171.186 26.5509 170.217 26.9385Z" fill="#3F3D56"/>
<path d="M139.08 74.0343L124.713 74.0356C124.529 74.0266 124.344 74.0543 124.17 74.1169C123.996 74.1795 123.836 74.2758 123.699 74.4004C123.563 74.525 123.452 74.6753 123.374 74.8428C123.295 75.0103 123.251 75.1916 123.243 75.3763L123.244 89.7745C123.254 90.1619 123.412 90.5307 123.686 90.8051C123.959 91.0794 124.328 91.2385 124.715 91.2495L139.077 91.2482C139.455 91.2333 139.812 91.0702 140.07 90.7941C140.329 90.5179 140.468 90.1511 140.458 89.773L140.457 75.3748C140.46 75.1948 140.426 75.0161 140.357 74.8497C140.289 74.6833 140.187 74.5327 140.058 74.4072C139.929 74.2816 139.775 74.1838 139.607 74.1196C139.439 74.0555 139.26 74.0265 139.08 74.0343ZM128.58 88.3839L126.114 88.3841L126.113 80.7166L128.579 80.7164L128.58 88.3839ZM127.431 79.5507H127.414C127.059 79.5484 126.719 79.4055 126.47 79.1533C126.22 78.9011 126.08 78.5603 126.082 78.2054C126.083 77.8506 126.224 77.5106 126.476 77.2601C126.727 77.0096 127.068 76.8689 127.422 76.8689C127.777 76.8689 128.118 77.0096 128.369 77.2601C128.62 77.5106 128.762 77.8506 128.763 78.2054C128.764 78.5603 128.625 78.9011 128.375 79.1533C128.126 79.4055 127.786 79.5484 127.431 79.5507ZM137.592 88.3831L135.126 88.3833L135.126 84.1909C135.126 83.1865 134.767 82.5002 133.875 82.5003C133.596 82.5026 133.324 82.5913 133.098 82.7544C132.871 82.9174 132.701 83.1468 132.61 83.4107C132.545 83.6055 132.516 83.8109 132.525 84.0163L132.526 88.3835L130.059 88.3837L130.059 80.7163L132.525 80.7161L132.525 81.7831C132.749 81.3947 133.074 81.0739 133.466 80.8546C133.857 80.6352 134.3 80.5253 134.749 80.5364C136.368 80.5363 137.592 81.6032 137.592 83.9036V88.3831Z" fill="#3F3D56"/>
<path fill-rule="evenodd" clip-rule="evenodd" d="M108.763 16.3438C108.762 14.3101 108.179 12.319 107.082 10.6064C105.986 8.8937 104.421 7.53116 102.574 6.68005C100.727 5.82894 98.6746 5.5249 96.66 5.80392C94.6455 6.08294 92.7531 6.93334 91.2069 8.25445C89.6607 9.57555 88.5253 11.312 87.9353 13.2583C87.3453 15.2046 87.3253 17.2792 87.8777 19.2365C88.4301 21.1938 89.5318 22.9518 91.0523 24.3025C92.5728 25.6531 94.4485 26.5398 96.4572 26.8576V19.4211H93.7543V16.3438H96.4572V13.9987C96.4572 11.3319 98.0465 9.85762 100.477 9.85762C101.275 9.86873 102.072 9.93829 102.86 10.0657V12.685H101.517C100.196 12.685 99.7825 13.505 99.7825 14.3479V16.3443H102.734L102.263 19.4216H99.7825V26.8585C102.286 26.462 104.566 25.1852 106.212 23.2577C107.858 21.3302 108.763 18.8786 108.763 16.3438Z" fill="#3F3D56"/>
<path d="M51.2962 195.15L55.7274 195.15L57.8349 178.057L51.2946 178.058L51.2962 195.15Z" fill="#FFB8B8"/>
<path d="M64.2738 199.264L50.3468 199.265L50.3464 193.884L58.8925 193.883C59.5991 193.883 60.2988 194.022 60.9517 194.293C61.6045 194.563 62.1978 194.959 62.6975 195.459C63.1972 195.958 63.5936 196.552 63.8641 197.204C64.1345 197.857 64.2738 198.557 64.2738 199.264Z" fill="#2F2E41"/>
<path d="M27.4104 195.15L31.842 195.15L33.9491 178.057L27.4088 178.058L27.4104 195.15Z" fill="#FFB8B8"/>
<path d="M40.3884 199.264L26.4613 199.265L26.4609 193.884L35.007 193.883C36.4341 193.883 37.8028 194.45 38.812 195.459C39.8212 196.468 40.3882 197.837 40.3884 199.264Z" fill="#2F2E41"/>
<path d="M40.3883 73.6414C45.6463 73.6414 49.9086 69.3791 49.9086 64.1211C49.9086 58.8632 45.6463 54.6009 40.3883 54.6009C35.1304 54.6009 30.8681 58.8632 30.8681 64.1211C30.8681 69.3791 35.1304 73.6414 40.3883 73.6414Z" fill="#FFB8B8"/>
<path d="M72.9415 126.209C72.875 125.682 72.6937 125.176 72.4104 124.726C72.1271 124.277 71.7487 123.895 71.3018 123.607C70.8549 123.32 70.3505 123.134 69.8239 123.062C69.2974 122.991 68.7616 123.036 68.2543 123.194L62.9337 116.816L58.2692 119.104L65.9094 128.005C66.2314 128.84 66.8483 129.527 67.6434 129.937C68.4385 130.348 69.3563 130.452 70.2231 130.23C71.0899 130.009 71.8454 129.477 72.3464 128.736C72.8474 127.995 73.0591 127.096 72.9415 126.209Z" fill="#FFB8B8"/>
<path d="M27.1507 132.66C27.3775 132.179 27.4961 131.655 27.4982 131.123C27.5003 130.592 27.3859 130.067 27.163 129.584C26.9401 129.102 26.6142 128.674 26.2082 128.331C25.8021 127.989 25.3259 127.739 24.813 127.6L23.7448 119.363L18.581 118.792L20.2528 130.403C20.0768 131.28 20.2286 132.191 20.6795 132.964C21.1304 133.736 21.849 134.317 22.6993 134.595C23.5495 134.873 24.4723 134.83 25.2928 134.473C26.1132 134.116 26.7743 133.471 27.1507 132.66Z" fill="#FFB8B8"/>
<path d="M19.9241 127.623C19.5059 127.623 19.1017 127.473 18.7851 127.199C18.4684 126.926 18.2604 126.548 18.199 126.135L15.6572 109.018C15.3378 106.864 15.5962 104.663 16.4058 102.641L24.2091 83.1668C24.5282 82.3703 25.0518 81.6721 25.727 81.1427C26.4022 80.6132 27.2051 80.2712 28.0547 80.1512C28.9043 80.0312 29.7705 80.1375 30.5659 80.4593C31.3613 80.781 32.0578 81.3069 32.585 81.9839C33.1298 82.6817 33.474 83.5149 33.5806 84.3938C33.6871 85.2727 33.552 86.164 33.1897 86.9718L29.511 95.2002C25.3854 104.431 23.8288 114.605 25.0055 124.647C25.0531 125.052 24.957 125.462 24.734 125.803C24.511 126.145 24.1752 126.398 23.7851 126.518L20.4365 127.546C20.2704 127.597 20.0978 127.623 19.9241 127.623Z" fill="#CCCCCC"/>
<path d="M38.0703 73.6411C36.6375 73.672 35.2143 73.3994 33.8944 72.8411C32.5744 72.2829 31.3875 71.4516 30.4117 70.402C29.4358 69.3523 28.6932 68.1081 28.2325 66.751C27.7718 65.3939 27.6035 63.9546 27.7387 62.5278C27.8739 61.101 28.3095 59.719 29.0168 58.4726C29.7242 57.2261 30.6873 56.1435 31.8429 55.2958C32.9985 54.4481 34.3204 53.8545 35.7217 53.5541C37.123 53.2536 38.5721 53.2532 39.9736 53.5526C42.0672 52.2814 44.5013 51.4261 46.941 51.6436C49.3806 51.8612 51.7933 53.3096 52.7056 55.5826C53.6179 57.8557 52.6378 60.8519 50.3694 61.7757C48.9151 62.3679 47.2728 62.0807 45.7209 61.8419C44.1689 61.6031 42.4758 61.4473 41.1251 62.248C39.7744 63.0488 39.1672 65.1961 40.3769 66.1972C41.0182 66.749 41.4761 67.483 41.6896 68.3016C41.9032 69.1201 41.8623 69.9843 41.5724 70.779C40.9644 72.3513 39.3051 73.6144 38.0703 73.6411Z" fill="#2F2E41"/>
<path d="M26.1205 191.706C25.8875 191.706 25.6569 191.66 25.4422 191.569C25.2274 191.479 25.033 191.346 24.8704 191.179C24.7078 191.013 24.5803 190.815 24.4954 190.598C24.4105 190.381 24.3699 190.149 24.376 189.916L26.0696 125.643L26.2543 125.639L54.2505 125.028L59.0843 187.526C59.1107 187.907 59.0122 188.285 58.8036 188.605C58.595 188.924 58.2879 189.166 57.9288 189.295L57.8757 189.306L52.381 189.641C52.1493 189.719 51.9037 189.748 51.6602 189.725C51.4167 189.702 51.1807 189.629 50.9676 189.509C50.7545 189.389 50.569 189.225 50.4231 189.029C50.2773 188.832 50.1744 188.608 50.1211 188.369L41.1642 148.291C41.1347 148.159 41.06 148.041 40.9532 147.958C40.8463 147.875 40.7138 147.832 40.5786 147.836C40.4434 147.84 40.3139 147.892 40.2124 147.981C40.1109 148.071 40.0438 148.193 40.0225 148.326L33.4054 189.952C33.3412 190.346 33.1442 190.707 32.8471 190.974C32.55 191.241 32.1706 191.398 31.7717 191.42L26.2085 191.704C26.1791 191.706 26.1498 191.706 26.1205 191.706Z" fill="#2F2E41"/>
<path d="M34.3599 130.963C30.876 130.963 27.8336 130.436 26.1537 128.935C25.074 127.97 24.6071 126.657 24.766 125.034C25.363 118.932 24.3284 105.557 23.3554 95.4112C23.1326 93.0318 23.3852 90.6318 24.0985 88.3509C24.8119 86.0701 25.9718 83.9539 27.5107 82.1254C28.9914 80.3541 30.8143 78.8997 32.8702 77.8493C34.9261 76.7988 37.1729 76.174 39.4759 76.0122C42.6809 75.7839 50.1862 75.2517 52.5191 81.2268C56.0237 90.2026 54.3096 94.3188 52.652 98.2994C51.2437 101.681 49.7875 105.178 51.5725 111.745C52.5586 115.377 53.7527 118.948 55.149 122.443C56.1156 124.921 56.6008 126.165 56.1529 126.978C55.7995 127.619 54.918 127.898 53.4151 128.189C52.9242 128.284 52.2756 128.422 51.503 128.586C47.5756 129.421 40.3217 130.963 34.3599 130.963Z" fill="#CCCCCC"/>
<path d="M62.9628 125.337C62.9493 125.337 62.936 125.337 62.9226 125.337C62.6714 125.331 62.4245 125.272 62.1987 125.162C61.9729 125.052 61.7735 124.894 61.6142 124.7L51.7457 112.674C49.6385 110.105 48.2511 107.023 47.7251 103.742L44.6866 84.7519C44.5841 84.1114 44.6104 83.457 44.7639 82.8268C44.9175 82.1967 45.1951 81.6034 45.5807 81.0819C45.9662 80.5603 46.4519 80.1209 47.0093 79.7893C47.5668 79.4577 48.1847 79.2406 48.8271 79.1508C49.4694 79.0609 50.1232 79.1 50.7503 79.2659C51.3773 79.4317 51.965 79.721 52.4789 80.1167C52.9928 80.5124 53.4226 81.0066 53.7432 81.5704C54.0637 82.1343 54.2687 82.7564 54.3459 83.4004L55.5539 93.4725C56.6709 102.776 60.2792 111.606 65.998 119.03L66.6883 119.925C66.9375 120.249 67.0654 120.649 67.0498 121.057C67.0342 121.465 66.876 121.854 66.6029 122.157L64.2588 124.76C64.0953 124.942 63.8955 125.087 63.6722 125.187C63.4489 125.286 63.2072 125.338 62.9628 125.337Z" fill="#CCCCCC"/>
<path d="M110.283 36.3706C113.868 36.3706 116.774 33.4326 116.774 29.8085C116.774 26.1843 113.868 23.2464 110.283 23.2464C106.698 23.2464 103.792 26.1843 103.792 29.8085C103.792 33.4326 106.698 36.3706 110.283 36.3706Z" fill="#3F3D56"/>
<path d="M111.581 33.3083H110.26V28.2727C109.772 28.7319 109.189 29.0776 108.552 29.2853V28.0728C108.961 27.9223 109.341 27.7028 109.676 27.4238C110.055 27.1399 110.344 26.7527 110.508 26.3087H111.581V33.3083Z" fill="#3F3D56"/>
<path d="M110.283 36.3706C113.868 36.3706 116.774 33.4326 116.774 29.8085C116.774 26.1843 113.868 23.2464 110.283 23.2464C106.698 23.2464 103.792 26.1843 103.792 29.8085C103.792 33.4326 106.698 36.3706 110.283 36.3706Z" fill="#009EEB"/>
<path d="M111.581 33.3083H110.26V28.2727C109.772 28.7319 109.189 29.0776 108.552 29.2853V28.0728C108.961 27.9223 109.341 27.7028 109.676 27.4238C110.055 27.1399 110.344 26.7527 110.508 26.3087H111.581V33.3083Z" fill="white"/>
<path d="M172.78 52.7844C176.404 52.7844 179.342 49.8464 179.342 46.2222C179.342 42.5981 176.404 39.6601 172.78 39.6601C169.156 39.6601 166.218 42.5981 166.218 46.2222C166.218 49.8464 169.156 52.7844 172.78 52.7844Z" fill="#3F3D56"/>
<path d="M172.001 47.2949C171.978 47.6471 172.078 47.9963 172.282 48.2838C172.355 48.388 172.451 48.4738 172.563 48.5343C172.674 48.5949 172.798 48.6285 172.925 48.6325C173.038 48.6335 173.149 48.6083 173.25 48.5587C173.351 48.5091 173.439 48.4367 173.506 48.3471C173.685 48.0698 173.767 47.7408 173.739 47.4119C173.767 47.0666 173.679 46.7218 173.488 46.4322C173.416 46.3369 173.323 46.2594 173.217 46.2056C173.11 46.1517 172.993 46.123 172.873 46.1217C172.754 46.1203 172.635 46.1463 172.527 46.1976C172.42 46.249 172.325 46.3244 172.251 46.418C172.067 46.6718 171.978 46.9823 172.001 47.2949ZM174.847 44.4288L173.631 44.5695C173.622 44.3555 173.54 44.1511 173.399 43.9898C173.335 43.9272 173.258 43.8783 173.175 43.8461C173.091 43.814 173.002 43.7992 172.912 43.8028C172.778 43.8047 172.646 43.8398 172.529 43.905C172.411 43.9703 172.312 44.0636 172.239 44.1766C171.997 44.6592 171.878 45.1944 171.893 45.7342C172.028 45.5528 172.204 45.4057 172.407 45.3048C172.609 45.204 172.833 45.1522 173.059 45.1537C173.316 45.1528 173.57 45.2085 173.803 45.3169C174.036 45.4253 174.242 45.5837 174.406 45.7808C174.791 46.2295 174.992 46.8076 174.967 47.3984C174.997 48.0163 174.786 48.6216 174.377 49.0864C174.17 49.3012 173.918 49.4689 173.64 49.578C173.362 49.6872 173.064 49.7353 172.766 49.719C172.467 49.7028 172.176 49.6227 171.911 49.484C171.647 49.3453 171.415 49.1514 171.232 48.9153C170.806 48.3779 170.593 47.4966 170.593 46.2715C170.593 45.015 170.815 44.1095 171.259 43.5547C171.461 43.2893 171.723 43.0754 172.023 42.9308C172.324 42.7861 172.654 42.7147 172.988 42.7225C173.44 42.7063 173.882 42.8625 174.223 43.1595C174.573 43.497 174.794 43.9459 174.847 44.4288Z" fill="#3F3D56"/>
<path d="M172.78 52.7844C176.404 52.7844 179.342 49.8464 179.342 46.2222C179.342 42.5981 176.404 39.6601 172.78 39.6601C169.156 39.6601 166.218 42.5981 166.218 46.2222C166.218 49.8464 169.156 52.7844 172.78 52.7844Z" fill="#009EEB"/>
<path d="M172.001 47.2949C171.978 47.6471 172.078 47.9963 172.282 48.2838C172.355 48.388 172.451 48.4738 172.563 48.5343C172.674 48.5949 172.798 48.6285 172.925 48.6325C173.038 48.6335 173.149 48.6083 173.25 48.5587C173.351 48.5091 173.439 48.4367 173.506 48.3471C173.685 48.0698 173.767 47.7408 173.739 47.4119C173.767 47.0666 173.679 46.7218 173.488 46.4322C173.416 46.3369 173.323 46.2594 173.217 46.2056C173.11 46.1517 172.993 46.123 172.873 46.1217C172.754 46.1203 172.635 46.1463 172.527 46.1976C172.42 46.249 172.325 46.3244 172.251 46.418C172.067 46.6718 171.978 46.9823 172.001 47.2949ZM174.847 44.4288L173.631 44.5695C173.622 44.3555 173.54 44.1511 173.399 43.9898C173.335 43.9272 173.258 43.8783 173.175 43.8461C173.091 43.814 173.002 43.7992 172.912 43.8028C172.778 43.8047 172.646 43.8398 172.529 43.905C172.411 43.9703 172.312 44.0636 172.239 44.1766C171.997 44.6592 171.878 45.1944 171.893 45.7342C172.028 45.5528 172.204 45.4057 172.407 45.3048C172.609 45.204 172.833 45.1522 173.059 45.1537C173.316 45.1528 173.57 45.2085 173.803 45.3169C174.036 45.4253 174.242 45.5837 174.406 45.7808C174.791 46.2295 174.992 46.8076 174.967 47.3984C174.997 48.0163 174.786 48.6216 174.377 49.0864C174.17 49.3012 173.918 49.4689 173.64 49.578C173.362 49.6872 173.064 49.7353 172.766 49.719C172.467 49.7028 172.176 49.6227 171.911 49.484C171.647 49.3453 171.415 49.1514 171.232 48.9153C170.806 48.3779 170.593 47.4966 170.593 46.2715C170.593 45.015 170.815 44.1095 171.259 43.5547C171.461 43.2893 171.723 43.0754 172.023 42.9308C172.324 42.7861 172.654 42.7147 172.988 42.7225C173.44 42.7063 173.882 42.8625 174.223 43.1595C174.573 43.497 174.794 43.9459 174.847 44.4288Z" fill="white"/>
<path d="M145.165 103.484C148.789 103.484 151.727 100.546 151.727 96.9214C151.727 93.2973 148.789 90.3593 145.165 90.3593C141.541 90.3593 138.603 93.2973 138.603 96.9214C138.603 100.546 141.541 103.484 145.165 103.484Z" fill="#3F3D56"/>
<path d="M144.352 95.2813C144.346 95.3925 144.361 95.504 144.398 95.609C144.435 95.7141 144.493 95.8107 144.568 95.8931C144.643 95.9673 144.733 96.0251 144.832 96.0629C144.931 96.1007 145.036 96.1177 145.142 96.1127C145.249 96.1178 145.355 96.1007 145.455 96.0625C145.555 96.0243 145.646 95.9659 145.723 95.8909C145.798 95.8082 145.856 95.7112 145.894 95.6057C145.931 95.5002 145.947 95.3883 145.94 95.2765C145.946 95.1686 145.929 95.0607 145.892 94.9592C145.855 94.8577 145.799 94.7646 145.725 94.6852C145.651 94.6108 145.562 94.5526 145.464 94.5144C145.366 94.4762 145.261 94.4589 145.156 94.4634C145.048 94.4582 144.94 94.4754 144.839 94.514C144.739 94.5526 144.647 94.6118 144.57 94.6877C144.496 94.7672 144.439 94.8606 144.402 94.9625C144.364 95.0645 144.347 95.1728 144.352 95.2813ZM144.235 98.2159C144.216 98.5215 144.312 98.823 144.505 99.0613C144.588 99.1586 144.691 99.2362 144.807 99.2888C144.924 99.3413 145.051 99.3674 145.178 99.3652C145.302 99.3679 145.425 99.3431 145.538 99.2926C145.651 99.2421 145.751 99.167 145.832 99.0729C146.019 98.8334 146.111 98.533 146.09 98.2297C146.104 97.948 146.01 97.6717 145.827 97.4569C145.744 97.3621 145.642 97.2868 145.526 97.2362C145.411 97.1856 145.286 97.1611 145.16 97.1642C145.025 97.1553 144.891 97.1811 144.769 97.2393C144.647 97.2974 144.542 97.3859 144.464 97.4963C144.314 97.7066 144.234 97.9581 144.235 98.2159ZM144.09 96.6036C143.793 96.4881 143.541 96.281 143.37 96.0123C143.221 95.7636 143.143 95.4783 143.146 95.1881C143.139 94.9524 143.181 94.7178 143.271 94.4996C143.36 94.2814 143.494 94.0844 143.665 93.9214C144.088 93.5973 144.607 93.4216 145.14 93.4216C145.673 93.4216 146.192 93.5973 146.615 93.9214C146.787 94.0837 146.922 94.2804 147.012 94.4987C147.103 94.717 147.146 94.952 147.139 95.1882C147.145 95.4888 147.061 95.7843 146.898 96.0367C146.734 96.289 146.499 96.4865 146.222 96.6036C146.563 96.7304 146.855 96.9609 147.058 97.2626C147.261 97.5644 147.364 97.9221 147.352 98.2855C147.368 98.5714 147.323 98.8574 147.22 99.1247C147.118 99.392 146.959 99.6345 146.756 99.8363C146.553 100.038 146.309 100.194 146.041 100.295C145.773 100.396 145.487 100.439 145.201 100.421C144.655 100.441 144.12 100.267 143.69 99.9308C143.455 99.7398 143.269 99.4966 143.145 99.2206C143.021 98.9447 142.964 98.6436 142.978 98.3415C142.974 97.9836 143.067 97.6314 143.245 97.3213C143.441 96.9962 143.737 96.7442 144.09 96.6036Z" fill="#3F3D56"/>
<path d="M145.165 103.484C148.789 103.484 151.727 100.546 151.727 96.9214C151.727 93.2973 148.789 90.3593 145.165 90.3593C141.541 90.3593 138.603 93.2973 138.603 96.9214C138.603 100.546 141.541 103.484 145.165 103.484Z" fill="#009EEB"/>
<path d="M144.352 95.2813C144.346 95.3925 144.361 95.504 144.398 95.609C144.435 95.7141 144.493 95.8107 144.568 95.8931C144.643 95.9673 144.733 96.0251 144.832 96.0629C144.931 96.1007 145.036 96.1177 145.142 96.1127C145.249 96.1178 145.355 96.1007 145.455 96.0625C145.555 96.0243 145.646 95.9659 145.723 95.8909C145.798 95.8082 145.856 95.7112 145.894 95.6057C145.931 95.5002 145.947 95.3883 145.94 95.2765C145.946 95.1686 145.929 95.0607 145.892 94.9592C145.855 94.8577 145.799 94.7646 145.725 94.6852C145.651 94.6108 145.562 94.5526 145.464 94.5144C145.366 94.4762 145.261 94.4589 145.156 94.4634C145.048 94.4582 144.94 94.4754 144.839 94.514C144.739 94.5526 144.647 94.6118 144.57 94.6877C144.496 94.7672 144.439 94.8606 144.402 94.9625C144.364 95.0645 144.347 95.1728 144.352 95.2813ZM144.235 98.2159C144.216 98.5215 144.312 98.823 144.505 99.0613C144.588 99.1586 144.691 99.2362 144.807 99.2888C144.924 99.3413 145.051 99.3674 145.178 99.3652C145.302 99.3679 145.425 99.3431 145.538 99.2926C145.651 99.2421 145.751 99.167 145.832 99.0729C146.019 98.8334 146.111 98.533 146.09 98.2297C146.104 97.948 146.01 97.6717 145.827 97.4569C145.744 97.3621 145.642 97.2868 145.526 97.2362C145.411 97.1856 145.286 97.1611 145.16 97.1642C145.025 97.1553 144.891 97.1811 144.769 97.2393C144.647 97.2974 144.542 97.3859 144.464 97.4963C144.314 97.7066 144.234 97.9581 144.235 98.2159ZM144.09 96.6036C143.793 96.4881 143.541 96.281 143.37 96.0123C143.221 95.7636 143.143 95.4783 143.146 95.1881C143.139 94.9524 143.181 94.7178 143.271 94.4996C143.36 94.2814 143.494 94.0844 143.665 93.9214C144.088 93.5973 144.607 93.4216 145.14 93.4216C145.673 93.4216 146.192 93.5973 146.615 93.9214C146.787 94.0837 146.922 94.2804 147.012 94.4987C147.103 94.717 147.146 94.952 147.139 95.1882C147.145 95.4888 147.061 95.7843 146.898 96.0367C146.734 96.289 146.499 96.4865 146.222 96.6036C146.563 96.7304 146.855 96.9609 147.058 97.2626C147.261 97.5644 147.364 97.9221 147.352 98.2855C147.368 98.5714 147.323 98.8574 147.22 99.1247C147.118 99.392 146.959 99.6345 146.756 99.8363C146.553 100.038 146.309 100.194 146.041 100.295C145.773 100.396 145.487 100.439 145.201 100.421C144.655 100.441 144.12 100.267 143.69 99.9308C143.455 99.7398 143.269 99.4966 143.145 99.2206C143.021 98.9447 142.964 98.6436 142.978 98.3415C142.974 97.9836 143.067 97.6314 143.245 97.3213C143.441 96.9962 143.737 96.7442 144.09 96.6036Z" fill="white"/>
<path d="M89.9273 200H0.387618C0.284815 200 0.186217 199.959 0.113524 199.886C0.040832 199.814 0 199.715 0 199.612C0 199.51 0.040832 199.411 0.113524 199.338C0.186217 199.266 0.284815 199.225 0.387618 199.225H89.9273C90.0301 199.225 90.1287 199.266 90.2014 199.338C90.2741 199.411 90.3149 199.51 90.3149 199.612C90.3149 199.715 90.2741 199.814 90.2014 199.886C90.1287 199.959 90.0301 200 89.9273 200Z" fill="#CCCCCC"/>
</g>
<defs>
<clipPath id="clip0_3_364">
<rect width="179.342" height="200" fill="white"/>
</clipPath>
</defs>
</svg>
