<svg width="142" height="52" viewBox="0 0 142 52" fill="none" xmlns="http://www.w3.org/2000/svg">
<g filter="url(#filter0_d_2_248)">
<g clip-path="url(#clip0_2_248)">
<rect width="40" height="40" transform="translate(6 4)" fill="#EA8101"/>
<g clip-path="url(#clip1_2_248)">
<path d="M26 16.5C22.6753 16.5 20.5974 18.1623 19.7662 21.487C21.013 19.8247 22.4675 19.2013 24.1299 19.6169C25.0783 19.854 25.7562 20.5421 26.5066 21.3037C27.729 22.5445 29.1437 23.9805 32.2338 23.9805C35.5584 23.9805 37.6364 22.3182 38.4675 18.9935C37.2208 20.6558 35.7662 21.2792 34.1039 20.8636C33.1554 20.6265 32.4775 19.9385 31.7272 19.1768C30.5048 17.936 29.0901 16.5 26 16.5ZM19.7662 23.9805C16.4416 23.9805 14.3636 25.6429 13.5325 28.9675C14.7792 27.3052 16.2338 26.6818 17.8961 27.0974C18.8446 27.3345 19.5225 28.0226 20.2728 28.7843C21.4952 30.025 22.9099 31.461 26 31.461C29.3247 31.461 31.4026 29.7987 32.2338 26.474C30.987 28.1364 29.5325 28.7597 27.8701 28.3442C26.9217 28.107 26.2438 27.419 25.4934 26.6573C24.271 25.4165 22.8563 23.9805 19.7662 23.9805Z" fill="url(#paint0_linear_2_248)"/>
</g>
<rect width="90" height="40" transform="translate(46 4)" fill="#F2F2F2"/>
<path d="M69.1006 19.0469V29H68.2666V19.0469H69.1006ZM72.5117 19.0469V19.7715H64.8623V19.0469H72.5117ZM77.9392 27.6738V23.8594C77.9392 23.5085 77.8663 23.2054 77.7204 22.9502C77.5746 22.695 77.3604 22.499 77.0779 22.3623C76.7953 22.2256 76.4467 22.1572 76.032 22.1572C75.6491 22.1572 75.3073 22.2256 75.0066 22.3623C74.7103 22.4945 74.4756 22.6745 74.3025 22.9023C74.1338 23.1257 74.0495 23.374 74.0495 23.6475L73.2292 23.6406C73.2292 23.3626 73.2976 23.0938 73.4343 22.834C73.571 22.5742 73.7647 22.3418 74.0154 22.1367C74.266 21.9316 74.5645 21.7699 74.9109 21.6514C75.2618 21.5283 75.6469 21.4668 76.0661 21.4668C76.5948 21.4668 77.0596 21.5557 77.4607 21.7334C77.8663 21.9111 78.183 22.1777 78.4109 22.5332C78.6387 22.8887 78.7527 23.3353 78.7527 23.873V27.4482C78.7527 27.7035 78.7709 27.9678 78.8073 28.2412C78.8484 28.5146 78.9053 28.7402 78.9782 28.918V29H78.1101C78.0554 28.8359 78.0121 28.6309 77.9802 28.3848C77.9529 28.1341 77.9392 27.8971 77.9392 27.6738ZM78.1306 24.6934L78.1443 25.3223H76.5378C76.1185 25.3223 75.7426 25.361 75.4099 25.4385C75.0818 25.5114 74.8038 25.6208 74.5759 25.7666C74.348 25.9079 74.1726 26.0788 74.0495 26.2793C73.931 26.4798 73.8718 26.7077 73.8718 26.9629C73.8718 27.2272 73.9379 27.4688 74.07 27.6875C74.2068 27.9062 74.3982 28.0817 74.6443 28.2139C74.8949 28.3415 75.1911 28.4053 75.5329 28.4053C75.9887 28.4053 76.3897 28.321 76.7361 28.1523C77.087 27.9837 77.3764 27.7627 77.6042 27.4893C77.8321 27.2158 77.9848 26.9173 78.0622 26.5938L78.4177 27.0654C78.3585 27.2933 78.2491 27.528 78.0896 27.7695C77.9346 28.0065 77.7318 28.2298 77.4812 28.4395C77.2305 28.6445 76.9343 28.8132 76.5925 28.9453C76.2553 29.0729 75.8724 29.1367 75.4441 29.1367C74.961 29.1367 74.5394 29.0456 74.1794 28.8633C73.8239 28.681 73.546 28.4326 73.3454 28.1182C73.1495 27.7992 73.0515 27.4391 73.0515 27.0381C73.0515 26.6735 73.129 26.3477 73.2839 26.0605C73.4389 25.7689 73.6622 25.5228 73.9538 25.3223C74.2501 25.1172 74.6055 24.9622 75.0202 24.8574C75.4395 24.748 75.9089 24.6934 76.4284 24.6934H78.1306ZM82.1362 21.6035V29H81.3227V21.6035H82.1362ZM81.1791 19.4639C81.1791 19.3089 81.227 19.179 81.3227 19.0742C81.423 18.9648 81.5597 18.9102 81.7329 18.9102C81.906 18.9102 82.0427 18.9648 82.143 19.0742C82.2478 19.179 82.3002 19.3089 82.3002 19.4639C82.3002 19.6143 82.2478 19.7441 82.143 19.8535C82.0427 19.9583 81.906 20.0107 81.7329 20.0107C81.5597 20.0107 81.423 19.9583 81.3227 19.8535C81.227 19.7441 81.1791 19.6143 81.1791 19.4639ZM85.5607 18.5V29H84.7472V18.5H85.5607ZM90.1268 27.2705L91.911 21.6035H92.4852L92.1434 23.1279L90.2772 29H89.703L90.1268 27.2705ZM88.2743 21.6035L89.8397 27.3047L90.1747 29H89.58L87.4335 21.6035H88.2743ZM94.7069 27.2842L96.2313 21.6035H97.0721L94.9257 29H94.3378L94.7069 27.2842ZM92.6014 21.6035L94.3583 27.2227L94.8026 29H94.2284L92.3212 23.1211L91.9999 21.6035H92.6014ZM99.8336 21.6035V29H99.0201V21.6035H99.8336ZM98.8766 19.4639C98.8766 19.3089 98.9244 19.179 99.0201 19.0742C99.1204 18.9648 99.2571 18.9102 99.4303 18.9102C99.6035 18.9102 99.7402 18.9648 99.8404 19.0742C99.9452 19.179 99.9977 19.3089 99.9977 19.4639C99.9977 19.6143 99.9452 19.7441 99.8404 19.8535C99.7402 19.9583 99.6035 20.0107 99.4303 20.0107C99.2571 20.0107 99.1204 19.9583 99.0201 19.8535C98.9244 19.7441 98.8766 19.6143 98.8766 19.4639ZM103.162 23.1826V29H102.349V21.6035H103.128L103.162 23.1826ZM102.978 24.8438L102.616 24.6387C102.643 24.2012 102.732 23.791 102.882 23.4082C103.033 23.0254 103.235 22.6882 103.491 22.3965C103.75 22.1048 104.053 21.877 104.4 21.7129C104.751 21.5488 105.138 21.4668 105.562 21.4668C105.931 21.4668 106.261 21.5169 106.553 21.6172C106.845 21.7174 107.093 21.877 107.298 22.0957C107.503 22.3145 107.658 22.5947 107.763 22.9365C107.872 23.2783 107.927 23.6953 107.927 24.1875V29H107.107V24.1807C107.107 23.6702 107.036 23.2715 106.895 22.9844C106.754 22.6927 106.553 22.4854 106.293 22.3623C106.034 22.2393 105.726 22.1777 105.37 22.1777C104.979 22.1777 104.634 22.2643 104.338 22.4375C104.047 22.6061 103.8 22.8271 103.6 23.1006C103.404 23.3695 103.254 23.6589 103.149 23.9688C103.044 24.2741 102.987 24.5658 102.978 24.8438ZM115.132 27.5645V18.5H115.952V29H115.187L115.132 27.5645ZM109.998 25.377V25.2334C109.998 24.6592 110.064 24.1419 110.196 23.6816C110.328 23.2168 110.518 22.8203 110.764 22.4922C111.014 22.1595 111.315 21.9066 111.666 21.7334C112.017 21.5557 112.413 21.4668 112.856 21.4668C113.288 21.4668 113.671 21.5374 114.004 21.6787C114.337 21.82 114.621 22.0228 114.858 22.2871C115.1 22.5514 115.294 22.8659 115.439 23.2305C115.59 23.5951 115.699 24.0007 115.768 24.4473V26.2725C115.713 26.6917 115.613 27.0768 115.467 27.4277C115.321 27.7741 115.127 28.0771 114.886 28.3369C114.644 28.5921 114.353 28.7904 114.011 28.9316C113.674 29.0684 113.284 29.1367 112.842 29.1367C112.404 29.1367 112.01 29.0456 111.659 28.8633C111.308 28.681 111.01 28.4235 110.764 28.0908C110.518 27.7536 110.328 27.3548 110.196 26.8945C110.064 26.4342 109.998 25.9284 109.998 25.377ZM110.818 25.2334V25.377C110.818 25.8099 110.862 26.2109 110.948 26.5801C111.035 26.9492 111.167 27.2705 111.345 27.5439C111.522 27.8174 111.748 28.0316 112.022 28.1865C112.295 28.3415 112.619 28.4189 112.992 28.4189C113.462 28.4189 113.856 28.3301 114.175 28.1523C114.494 27.9701 114.749 27.7308 114.94 27.4346C115.132 27.1338 115.271 26.8057 115.357 26.4502V24.3242C115.303 24.0827 115.223 23.8366 115.118 23.5859C115.013 23.3353 114.87 23.1051 114.688 22.8955C114.51 22.6813 114.282 22.5104 114.004 22.3828C113.731 22.2507 113.398 22.1846 113.006 22.1846C112.628 22.1846 112.302 22.262 112.028 22.417C111.755 22.5719 111.527 22.7884 111.345 23.0664C111.167 23.3398 111.035 23.6611 110.948 24.0303C110.862 24.3994 110.818 24.8005 110.818 25.2334Z" fill="black"/>
</g>
</g>
<defs>
<filter id="filter0_d_2_248" x="0" y="0" width="142" height="52" filterUnits="userSpaceOnUse" color-interpolation-filters="sRGB">
<feFlood flood-opacity="0" result="BackgroundImageFix"/>
<feColorMatrix in="SourceAlpha" type="matrix" values="0 0 0 0 0 0 0 0 0 0 0 0 0 0 0 0 0 0 127 0" result="hardAlpha"/>
<feOffset dy="2"/>
<feGaussianBlur stdDeviation="3"/>
<feComposite in2="hardAlpha" operator="out"/>
<feColorMatrix type="matrix" values="0 0 0 0 0 0 0 0 0 0 0 0 0 0 0 0 0 0 0.25 0"/>
<feBlend mode="normal" in2="BackgroundImageFix" result="effect1_dropShadow_2_248"/>
<feBlend mode="normal" in="SourceGraphic" in2="effect1_dropShadow_2_248" result="shape"/>
</filter>
<linearGradient id="paint0_linear_2_248" x1="-55.7316" y1="495.253" x2="2097.82" y2="1736.94" gradientUnits="userSpaceOnUse">
<stop stop-color="#2298BD"/>
<stop offset="1" stop-color="#0ED7B5"/>
</linearGradient>
<clipPath id="clip0_2_248">
<rect x="6" y="4" width="130" height="40" rx="6" fill="white"/>
</clipPath>
<clipPath id="clip1_2_248">
<rect width="24.9351" height="15" fill="white" transform="translate(13.5325 16.5)"/>
</clipPath>
</defs>
</svg>
