<svg width="142" height="52" viewBox="0 0 142 52" fill="none" xmlns="http://www.w3.org/2000/svg">
<g filter="url(#filter0_d_4_2)">
<g clip-path="url(#clip0_4_2)">
<rect width="40" height="40" transform="translate(6 4)" fill="#EA8101"/>
<g clip-path="url(#clip1_4_2)">
<path d="M17.5625 14H34.4375C35.3004 14 36 14.6996 36 15.5625V32.4375C36 33.3004 35.3004 34 34.4375 34H17.5625C16.6996 34 16 33.3004 16 32.4375V15.5625C16 14.6996 16.6996 14 17.5625 14Z" fill="#3178C6"/>
<path d="M27.7592 29.6621V31.8199C28.1102 31.9998 28.5252 32.1346 29.0044 32.2245C29.4835 32.3145 29.9885 32.3594 30.5195 32.3594C31.0368 32.3594 31.5284 32.3099 31.994 32.211C32.4596 32.1121 32.868 31.9491 33.2188 31.7222C33.5698 31.4952 33.8476 31.1984 34.0523 30.832C34.257 30.4657 34.3594 30.0128 34.3594 29.4734C34.3594 29.0823 34.3009 28.7395 34.1839 28.445C34.067 28.1505 33.8982 27.8887 33.6777 27.6595C33.4573 27.4302 33.193 27.2245 32.8848 27.0424C32.5766 26.8604 32.2291 26.6884 31.8421 26.5266C31.5587 26.4097 31.3045 26.2962 31.0795 26.1861C30.8546 26.0759 30.6634 25.9636 30.5059 25.8489C30.3484 25.7343 30.227 25.6129 30.1415 25.4848C30.056 25.3566 30.0133 25.2117 30.0133 25.0498C30.0133 24.9015 30.0515 24.7678 30.128 24.6487C30.2045 24.5295 30.3125 24.4273 30.452 24.3419C30.5914 24.2564 30.7623 24.1902 30.9648 24.1429C31.1673 24.0957 31.3923 24.0721 31.6397 24.0721C31.8197 24.0721 32.0098 24.0856 32.2099 24.1126C32.4102 24.1395 32.6115 24.1811 32.814 24.2373C33.0164 24.2935 33.2132 24.3643 33.4045 24.4498C33.5956 24.5352 33.7723 24.6341 33.9342 24.7464V22.7302C33.6058 22.6044 33.247 22.5111 32.8578 22.4504C32.4687 22.3897 32.0221 22.3594 31.5182 22.3594C31.0053 22.3594 30.5195 22.4145 30.0605 22.5246C29.6016 22.6347 29.1978 22.8066 28.8491 23.0404C28.5005 23.2742 28.2249 23.572 28.0224 23.9339C27.82 24.2958 27.7188 24.7284 27.7188 25.232C27.7188 25.8748 27.9043 26.4232 28.2755 26.8773C28.6467 27.3312 29.2102 27.7156 29.966 28.0303C30.263 28.1517 30.5397 28.2708 30.7961 28.3877C31.0526 28.5046 31.2741 28.6259 31.4609 28.7518C31.6476 28.8777 31.7949 29.0148 31.9029 29.1631C32.0109 29.3115 32.0648 29.4801 32.0648 29.6689C32.0648 29.8082 32.0311 29.9375 31.9636 30.0566C31.8962 30.1757 31.7938 30.2791 31.6566 30.3668C31.5194 30.4545 31.3484 30.523 31.1437 30.5724C30.939 30.6219 30.6994 30.6466 30.4249 30.6466C29.957 30.6466 29.4937 30.5646 29.0348 30.4005C28.5758 30.2364 28.1506 29.9903 27.7592 29.6621ZM24.1627 24.2923H26.9375V22.5156H19.2031V24.2923H21.9644V32.2031H24.1627V24.2923Z" fill="white"/>
</g>
<rect width="90" height="40" transform="translate(46 4)" fill="#F2F2F2"/>
<path d="M61.6006 19.0469V29H60.7666V19.0469H61.6006ZM65.0117 19.0469V19.7715H57.3623V19.0469H65.0117ZM68.4226 28.2617L70.7263 21.6035H71.6081L68.4773 30.1895C68.4135 30.3581 68.3314 30.5449 68.2312 30.75C68.1355 30.9551 68.0079 31.151 67.8484 31.3379C67.6934 31.5293 67.4974 31.6842 67.2605 31.8027C67.028 31.9258 66.7432 31.9873 66.406 31.9873C66.3194 31.9873 66.2077 31.9759 66.071 31.9531C65.9389 31.9349 65.8432 31.9167 65.7839 31.8984L65.7771 31.208C65.8272 31.2217 65.9001 31.2331 65.9958 31.2422C66.0915 31.2513 66.1576 31.2559 66.1941 31.2559C66.4903 31.2559 66.7387 31.2057 66.9392 31.1055C67.1443 31.0052 67.3152 30.8548 67.4519 30.6543C67.5886 30.4583 67.7094 30.2122 67.8142 29.916L68.4226 28.2617ZM66.2693 21.6035L68.6277 27.9541L68.8464 28.8086L68.2517 29.1436L65.3806 21.6035H66.2693ZM73.9731 23.0254V31.8438H73.1528V21.6035H73.9184L73.9731 23.0254ZM79.1137 25.2334V25.377C79.1137 25.9284 79.0499 26.4342 78.9223 26.8945C78.7947 27.3548 78.6101 27.7536 78.3686 28.0908C78.1316 28.4235 77.8377 28.681 77.4868 28.8633C77.1358 29.0456 76.7371 29.1367 76.2905 29.1367C75.8484 29.1367 75.4542 29.0684 75.1079 28.9316C74.7615 28.7949 74.463 28.6012 74.2123 28.3506C73.9663 28.0954 73.768 27.7992 73.6176 27.4619C73.4718 27.1201 73.3692 26.7464 73.31 26.3408V24.4473C73.3784 24.0007 73.49 23.5951 73.645 23.2305C73.7999 22.8659 73.9982 22.5514 74.2397 22.2871C74.4858 22.0228 74.7774 21.82 75.1147 21.6787C75.4519 21.5374 75.837 21.4668 76.27 21.4668C76.7211 21.4668 77.1222 21.5557 77.4731 21.7334C77.8286 21.9066 78.1271 22.1595 78.3686 22.4922C78.6147 22.8203 78.7993 23.2168 78.9223 23.6816C79.0499 24.1419 79.1137 24.6592 79.1137 25.2334ZM78.2934 25.377V25.2334C78.2934 24.8005 78.2478 24.3994 78.1567 24.0303C78.0701 23.6611 77.9357 23.3398 77.7534 23.0664C77.5756 22.7884 77.3478 22.5719 77.0698 22.417C76.7963 22.262 76.4705 22.1846 76.0922 22.1846C75.7003 22.1846 75.3653 22.2507 75.0873 22.3828C74.8139 22.5104 74.586 22.6813 74.4038 22.8955C74.2215 23.1051 74.0779 23.3353 73.9731 23.5859C73.8683 23.8366 73.7908 24.0827 73.7407 24.3242V26.5049C73.8273 26.8512 73.9663 27.1725 74.1577 27.4688C74.3491 27.7604 74.6043 27.9951 74.9233 28.1729C75.2468 28.346 75.6411 28.4326 76.1059 28.4326C76.4796 28.4326 76.8032 28.3551 77.0766 28.2002C77.35 28.0452 77.5756 27.8288 77.7534 27.5508C77.9357 27.2728 78.0701 26.9492 78.1567 26.5801C78.2478 26.2109 78.2934 25.8099 78.2934 25.377ZM84.0695 29.1367C83.5864 29.1367 83.1421 29.0479 82.7365 28.8701C82.3354 28.6924 81.9845 28.4417 81.6838 28.1182C81.3875 27.7946 81.1574 27.4118 80.9933 26.9697C80.8338 26.5231 80.7541 26.0355 80.7541 25.5068V25.2129C80.7541 24.6432 80.8384 24.1283 81.007 23.668C81.1756 23.2077 81.408 22.8135 81.7043 22.4854C82.0005 22.1572 82.3377 21.9066 82.716 21.7334C83.0988 21.5557 83.4998 21.4668 83.9191 21.4668C84.3885 21.4668 84.8055 21.5511 85.1701 21.7197C85.5347 21.8838 85.84 22.1185 86.0861 22.4238C86.3367 22.7246 86.5259 23.0824 86.6535 23.4971C86.7811 23.9072 86.8449 24.3607 86.8449 24.8574V25.3564H81.2463V24.6592H86.0314V24.5635C86.0223 24.1488 85.938 23.7614 85.7785 23.4014C85.6235 23.0368 85.3911 22.7406 85.0812 22.5127C84.7713 22.2848 84.3839 22.1709 83.9191 22.1709C83.5727 22.1709 83.2537 22.2438 82.9621 22.3896C82.675 22.5355 82.4266 22.7451 82.217 23.0186C82.0119 23.2874 81.8524 23.6087 81.7384 23.9824C81.6291 24.3516 81.5744 24.7617 81.5744 25.2129V25.5068C81.5744 25.917 81.6336 26.2998 81.7521 26.6553C81.8752 27.0062 82.0483 27.3161 82.2716 27.585C82.4995 27.8538 82.7684 28.0635 83.0783 28.2139C83.3882 28.3643 83.73 28.4395 84.1037 28.4395C84.5412 28.4395 84.9285 28.3597 85.2658 28.2002C85.603 28.0361 85.9061 27.7786 86.175 27.4277L86.6877 27.8242C86.5282 28.0612 86.3276 28.2799 86.0861 28.4805C85.8491 28.681 85.5643 28.8405 85.2316 28.959C84.8989 29.0775 84.5115 29.1367 84.0695 29.1367ZM94.5624 26.5527C94.5624 26.2793 94.5168 26.0355 94.4257 25.8213C94.3345 25.6071 94.1841 25.4157 93.9745 25.2471C93.7694 25.0739 93.4914 24.9144 93.1405 24.7686C92.7942 24.6182 92.3612 24.4701 91.8417 24.3242C91.3449 24.1829 90.896 24.028 90.495 23.8594C90.094 23.6908 89.7499 23.4971 89.4628 23.2783C89.1802 23.0596 88.9638 22.8044 88.8134 22.5127C88.663 22.2165 88.5878 21.8724 88.5878 21.4805C88.5878 21.0977 88.6698 20.749 88.8339 20.4346C88.9979 20.1201 89.2281 19.849 89.5243 19.6211C89.8251 19.3932 90.1783 19.2178 90.5839 19.0947C90.994 18.9717 91.4429 18.9102 91.9305 18.9102C92.6278 18.9102 93.2294 19.0423 93.7352 19.3066C94.2457 19.571 94.6399 19.9287 94.9179 20.3799C95.2004 20.8265 95.3417 21.3278 95.3417 21.8838H94.5009C94.5009 21.4508 94.3983 21.0658 94.1932 20.7285C93.9927 20.3867 93.7011 20.1201 93.3182 19.9287C92.94 19.7327 92.4774 19.6348 91.9305 19.6348C91.3837 19.6348 90.9234 19.7191 90.5497 19.8877C90.1805 20.0518 89.9003 20.2728 89.7089 20.5508C89.522 20.8242 89.4286 21.1296 89.4286 21.4668C89.4286 21.7038 89.4742 21.9225 89.5653 22.123C89.6565 22.319 89.8046 22.5036 90.0096 22.6768C90.2193 22.8454 90.495 23.0049 90.8368 23.1553C91.1786 23.3011 91.6001 23.4401 92.1014 23.5723C92.6301 23.7181 93.0995 23.8799 93.5096 24.0576C93.9198 24.2354 94.2662 24.4404 94.5487 24.6729C94.8313 24.9007 95.0455 25.1673 95.1913 25.4727C95.3371 25.778 95.41 26.1335 95.41 26.5391C95.41 26.9447 95.3235 27.3092 95.1503 27.6328C94.9817 27.9518 94.7424 28.223 94.4325 28.4463C94.1272 28.6696 93.7649 28.8405 93.3456 28.959C92.9309 29.0775 92.4774 29.1367 91.9852 29.1367C91.5432 29.1367 91.1034 29.0798 90.6659 28.9658C90.2284 28.8519 89.8274 28.6764 89.4628 28.4395C89.1027 28.1979 88.8134 27.888 88.5946 27.5098C88.3804 27.1315 88.2733 26.6803 88.2733 26.1562H89.1073C89.1073 26.5755 89.1916 26.9287 89.3602 27.2158C89.5289 27.5029 89.7522 27.7354 90.0302 27.9131C90.3127 28.0908 90.6226 28.2207 90.9598 28.3027C91.3016 28.3802 91.6434 28.4189 91.9852 28.4189C92.5093 28.4189 92.9628 28.3415 93.3456 28.1865C93.733 28.0316 94.0315 27.8151 94.2411 27.5371C94.4553 27.2546 94.5624 26.9264 94.5624 26.5527ZM100.045 28.4326C100.391 28.4326 100.714 28.3688 101.015 28.2412C101.321 28.109 101.571 27.9154 101.767 27.6602C101.968 27.4004 102.082 27.0837 102.109 26.71H102.888C102.865 27.1794 102.722 27.5986 102.458 27.9678C102.198 28.3324 101.856 28.6195 101.432 28.8291C101.013 29.0342 100.55 29.1367 100.045 29.1367C99.5296 29.1367 99.0738 29.0433 98.6773 28.8564C98.2854 28.6696 97.9573 28.4098 97.693 28.0771C97.4286 27.7399 97.2281 27.348 97.0914 26.9014C96.9592 26.4502 96.8932 25.9648 96.8932 25.4453V25.1582C96.8932 24.6387 96.9592 24.1556 97.0914 23.709C97.2281 23.2578 97.4286 22.8659 97.693 22.5332C97.9573 22.196 98.2854 21.9339 98.6773 21.7471C99.0693 21.5602 99.5227 21.4668 100.038 21.4668C100.566 21.4668 101.04 21.5739 101.46 21.7881C101.883 22.0023 102.221 22.3053 102.471 22.6973C102.726 23.0892 102.865 23.554 102.888 24.0918H102.109C102.086 23.6953 101.981 23.3535 101.795 23.0664C101.608 22.7793 101.362 22.5583 101.056 22.4033C100.751 22.2484 100.411 22.1709 100.038 22.1709C99.6184 22.1709 99.2607 22.2529 98.9645 22.417C98.6682 22.5765 98.4267 22.7975 98.2398 23.0801C98.0576 23.3581 97.9231 23.6771 97.8365 24.0371C97.7499 24.3926 97.7066 24.7663 97.7066 25.1582V25.4453C97.7066 25.8418 97.7477 26.2201 97.8297 26.5801C97.9163 26.9355 98.0507 27.2523 98.233 27.5303C98.4199 27.8083 98.6614 28.0293 98.9576 28.1934C99.2584 28.3529 99.6207 28.4326 100.045 28.4326ZM105.629 22.8271V29H104.816V21.6035H105.609L105.629 22.8271ZM108.247 21.5488L108.227 22.3008C108.136 22.2871 108.047 22.2757 107.96 22.2666C107.874 22.2575 107.78 22.2529 107.68 22.2529C107.325 22.2529 107.012 22.319 106.743 22.4512C106.479 22.5788 106.256 22.7588 106.074 22.9912C105.891 23.2191 105.752 23.488 105.657 23.7979C105.561 24.1032 105.506 24.4313 105.493 24.7822L105.192 24.8984C105.192 24.4154 105.242 23.9665 105.342 23.5518C105.442 23.137 105.595 22.7747 105.8 22.4648C106.01 22.1504 106.272 21.9066 106.586 21.7334C106.905 21.5557 107.279 21.4668 107.707 21.4668C107.812 21.4668 107.915 21.4759 108.015 21.4941C108.12 21.5078 108.197 21.526 108.247 21.5488ZM110.722 21.6035V29H109.908V21.6035H110.722ZM109.765 19.4639C109.765 19.3089 109.813 19.179 109.908 19.0742C110.009 18.9648 110.145 18.9102 110.318 18.9102C110.492 18.9102 110.628 18.9648 110.729 19.0742C110.833 19.179 110.886 19.3089 110.886 19.4639C110.886 19.6143 110.833 19.7441 110.729 19.8535C110.628 19.9583 110.492 20.0107 110.318 20.0107C110.145 20.0107 110.009 19.9583 109.908 19.8535C109.813 19.7441 109.765 19.6143 109.765 19.4639ZM114.044 23.0254V31.8438H113.223V21.6035H113.989L114.044 23.0254ZM119.184 25.2334V25.377C119.184 25.9284 119.121 26.4342 118.993 26.8945C118.865 27.3548 118.681 27.7536 118.439 28.0908C118.202 28.4235 117.908 28.681 117.557 28.8633C117.206 29.0456 116.808 29.1367 116.361 29.1367C115.919 29.1367 115.525 29.0684 115.178 28.9316C114.832 28.7949 114.534 28.6012 114.283 28.3506C114.037 28.0954 113.839 27.7992 113.688 27.4619C113.542 27.1201 113.44 26.7464 113.381 26.3408V24.4473C113.449 24.0007 113.561 23.5951 113.716 23.2305C113.871 22.8659 114.069 22.5514 114.31 22.2871C114.556 22.0228 114.848 21.82 115.185 21.6787C115.523 21.5374 115.908 21.4668 116.341 21.4668C116.792 21.4668 117.193 21.5557 117.544 21.7334C117.899 21.9066 118.198 22.1595 118.439 22.4922C118.685 22.8203 118.87 23.2168 118.993 23.6816C119.121 24.1419 119.184 24.6592 119.184 25.2334ZM118.364 25.377V25.2334C118.364 24.8005 118.318 24.3994 118.227 24.0303C118.141 23.6611 118.006 23.3398 117.824 23.0664C117.646 22.7884 117.418 22.5719 117.14 22.417C116.867 22.262 116.541 22.1846 116.163 22.1846C115.771 22.1846 115.436 22.2507 115.158 22.3828C114.885 22.5104 114.657 22.6813 114.474 22.8955C114.292 23.1051 114.149 23.3353 114.044 23.5859C113.939 23.8366 113.861 24.0827 113.811 24.3242V26.5049C113.898 26.8512 114.037 27.1725 114.228 27.4688C114.42 27.7604 114.675 27.9951 114.994 28.1729C115.317 28.346 115.712 28.4326 116.177 28.4326C116.55 28.4326 116.874 28.3551 117.147 28.2002C117.421 28.0452 117.646 27.8288 117.824 27.5508C118.006 27.2728 118.141 26.9492 118.227 26.5801C118.318 26.2109 118.364 25.8099 118.364 25.377ZM124.079 21.6035V22.2734H120.374V21.6035H124.079ZM121.734 19.7031H122.547V27.2021C122.547 27.5439 122.593 27.8014 122.684 27.9746C122.775 28.1478 122.894 28.264 123.04 28.3232C123.185 28.3825 123.343 28.4121 123.511 28.4121C123.634 28.4121 123.753 28.4053 123.867 28.3916C123.981 28.3734 124.083 28.3551 124.174 28.3369L124.208 29.0273C124.108 29.0592 123.978 29.0843 123.819 29.1025C123.659 29.1253 123.5 29.1367 123.34 29.1367C123.026 29.1367 122.748 29.0798 122.506 28.9658C122.265 28.8473 122.076 28.6468 121.939 28.3643C121.802 28.0771 121.734 27.6875 121.734 27.1953V19.7031Z" fill="black"/>
</g>
</g>
<defs>
<filter id="filter0_d_4_2" x="0" y="0" width="142" height="52" filterUnits="userSpaceOnUse" color-interpolation-filters="sRGB">
<feFlood flood-opacity="0" result="BackgroundImageFix"/>
<feColorMatrix in="SourceAlpha" type="matrix" values="0 0 0 0 0 0 0 0 0 0 0 0 0 0 0 0 0 0 127 0" result="hardAlpha"/>
<feOffset dy="2"/>
<feGaussianBlur stdDeviation="3"/>
<feComposite in2="hardAlpha" operator="out"/>
<feColorMatrix type="matrix" values="0 0 0 0 0 0 0 0 0 0 0 0 0 0 0 0 0 0 0.25 0"/>
<feBlend mode="normal" in2="BackgroundImageFix" result="effect1_dropShadow_4_2"/>
<feBlend mode="normal" in="SourceGraphic" in2="effect1_dropShadow_4_2" result="shape"/>
</filter>
<clipPath id="clip0_4_2">
<rect x="6" y="4" width="130" height="40" rx="6" fill="white"/>
</clipPath>
<clipPath id="clip1_4_2">
<rect width="20" height="20" fill="white" transform="translate(16 14)"/>
</clipPath>
</defs>
</svg>
